<?xml version="1.0" encoding="UTF-8"?>
<svg width="100mm" height="99.101mm" version="1.1" xmlns="http://www.w3.org/2000/svg">
    <path d="m247.09 0.11523c-1.2804-0.31622-2.6358 0.021443-3.6191 0.90039l-7.9199 7.0781c-0.34957 0.31247-0.8749 0.3035-1.2129-0.021484l-1.0098-0.97266c-2.391-2.299-5.3733-3.8881-8.6152-4.5898l-0.61523-0.13086c-5.1502-1.1148-10.516-0.64118-15.391 1.3594l-1.0059 0.41406c-4.9386 2.0267-9.5044 4.8615-13.51 8.3906l-2.6738 2.3574c-0.86488 0.76205-2.052 1.0447-3.168 0.75586l-0.76562-0.19922c-12.234-3.1671-25.244-0.1279-34.811 8.1289l-1.6816 1.4531c-0.84164 0.72639-2.0568 0.81897-3 0.23047l-16.924-10.559c-1.1218-0.69989-2.5119-0.8241-3.7383-0.33008l-29.48 11.877c-0.63851 0.2572-1.0912 0.83883-1.1797 1.5215l-4.4492 34.34c-0.088238 0.68074-0.054644 1.3736 0.097656 2.043l0.13672 0.60547c0.13771 0.60521 0.10364 1.2358-0.09961 1.8223l-1.1152 3.2168c-4.4915 0.94593-8.4959 3.4699-11.271 7.1289l-0.28125 0.33594c-4.2935 5.1178-7.8854 10.784-10.684 16.85l-0.67188 1.4531c-2.7913 6.051-4.501 12.544-5.0508 19.186l-0.052734 0.6582c-0.10694 1.2918-0.4892 2.544-1.1211 3.6758l-0.24609 0.4375c-2.604 4.6637-4.4598 9.7069-5.5039 14.945l-0.3125 1.5645c-1.046 5.2479-1.4814 10.599-1.2969 15.947l0.13867 4.0117c0.14498 4.5715 1.6863 8.9883 4.416 12.658 0.32141 0.42961 0.36028 1.0056 0.099609 1.4746l-0.71289 1.2832c-1.616 2.9073-2.4833 6.1721-2.5254 9.498l-0.029297 2.377c-0.058882 3.9334 0.31896 7.8633 1.1289 11.713 0.69684 3.2735 1.8752 6.4233 3.4961 9.3516l1.7266 3.1211c0.73718 1.3318 0.19514 3.0034-1.1836 3.6484l-2.1504 1.0059c-1.1943 0.55878-2.0344 1.6726-2.2422 2.9746l-0.28711 1.8106c-0.14012 0.87806-1.0681 1.3751-1.877 1.0059l-2.9062-1.3262c-3.5025-1.599-7.5547-1.4488-10.93 0.4043l-0.054688 0.03125c-3.4947 1.9189-6.4696 4.6597-8.6641 7.9883l-1.5996 2.4277a0.18974 0.18974 0 0 0-0.001953 0.00195c-0.31216 0.49248-0.71754 0.9208-1.1934 1.2578-2.7587 1.8813-5.1391 4.266-7.0137 7.0293l-1.8535 2.7324c-0.75772 1.117-1.2374 2.4004-1.4004 3.7402l-0.39258 3.2207c-0.074273 0.61066-0.33161 1.1866-0.74024 1.6465l-0.55859 0.625c-3.0339 3.4142-4.6747 7.8414-4.6016 12.408l0.03125 2c0.060539 3.9638 1.2095 7.8339 3.3203 11.189 0.61844 0.9815 0.63097 2.2284 0.033204 3.2226l-15.809 26.293c-0.67382 1.1207-0.68539 2.52-0.03125 3.6524l2.291 3.9668c6.5999 11.424 16.05 20.942 27.426 27.625l6.3828 3.752c0.80994 0.47581 0.99988 1.5541 0.40039 2.2773l-0.66797 0.80469c-1.2639 1.5247-1.8815 3.4832-1.7207 5.457l0.023438 0.28711c0.24809 3.0448 2.4864 5.5598 5.4824 6.1562l9.4941 1.8906c7.7531 1.5434 15.07 4.7828 21.422 9.4883l5.5547 4.1133c3.0777 2.2798 7.0852 2.8856 10.699 1.6172l15.25-5.3496c3.7145-1.3036 7.6733-1.7561 11.586-1.3223l8.0547 0.89258c3.0984 0.38593 6.2396 0.18115 9.2617-0.60352a0.18974 0.18974 0 0 0 0.0039 0c0.72161-0.19778 1.3832-0.51944 1.9629-0.93555 1.7391-1.2483 2.7535-3.3572 2.541-5.5918l-0.86719-9.1289c-0.04317-0.45367 0.28149-0.85561 0.73438-0.90625l0.63281-0.07031c4.6592-0.52088 9.2747-1.3729 13.812-2.5508l7.5918-1.9707c1.2412-0.32219 2.5447-0.31225 3.7812 0.02735l24.1 6.6191-0.01562-0.00586c3.395 1.259 6.9886 1.8934 10.609 1.875 3.7006 0.50128 7.3764-1.0927 9.5371-4.1387a0.18974 0.18974 0 0 0 0.01953-0.03711c1.516-3.6962 2.1998-7.6818 2.002-11.672l-0.21094-4.25c-0.09277-1.8704 0.58063-3.6979 1.8652-5.0605l0.79297-0.83789 0.00782-0.01172c1.646-1.5307 3.0809-3.2734 4.2656-5.1836a0.18974 0.18974 0 0 0 0.00586-0.00976c2.2729-4.2722 1.4415-9.5363-2.0371-12.9l-5.3535-5.1777c-0.50556-0.48891-0.25884-1.3214 0.43165-1.4551l1.3789-0.26757c3.8416-0.74385 7.2442-2.9527 9.4883-6.1582l0.14063-0.19531c2.6741-3.8199 4.5487-8.1427 5.5117-12.705l0.14648-0.70117c0.14284-0.67671-0.04006-1.3826-0.49414-1.9043l-10.166-11.68c-0.63433-0.72887-0.50268-1.839 0.28516-2.3984l6.25-4.4375c1.0001-0.71009 2.2517-0.9693 3.4512-0.71289l4.9688 1.0644c0.51265 0.10959 0.90061 0.52593 0.97461 1.0449l0.07031 0.4961c0.09638 0.67582 0.27832 1.3367 0.54102 1.9668l10.287 24.67c0.26645 0.63905 0.80228 1.1286 1.4629 1.3359l32.85 10.309c0.66095 0.20741 1.371 0.19374 2.0234-0.03907l18.062-6.4434c0.6493-0.23164 1.2396-0.6078 1.7226-1.0996l23.77-24.199c0.48512-0.49388 0.72543-1.1805 0.65429-1.8691l-1.9688-19.045c-0.20713-2.0051-0.63118-3.9806-1.2695-5.8926l-0.02148-0.06641c-0.15405-0.46139 0.0471-0.96276 0.47851-1.1875l1.2539-0.65234c2.3653-1.2322 4.3851-3.0372 5.877-5.248l0.2207-0.32617c0.34509-0.51141 0.83495-0.90967 1.4062-1.1426l2.5312-1.0332c7.9568-3.2438 14.959-8.4531 20.35-15.145l1.0176-1.2656c3.3057-4.1036 5.2892-9.1147 5.6875-14.369l0.33203-4.3594c0.09377-1.2367 0.65916-2.3899 1.5801-3.2207l2.8262-2.5488c6.3508-5.7291 10.897-13.185 13.08-21.455l0.77735-2.9492c0.84442-3.1982 1.2723-6.4768 1.2832-9.7578 0.00544-1.6405-0.09188-3.2809-0.29492-4.9121-0.20305-1.6312-0.51027-3.2536-0.92188-4.8555l-2.9648-11.531c-0.6446-2.5085-0.57778-5.1486 0.19336-7.6211l2.3711-7.5976 0.00195-0.00782c2.6302-7.1696 3.6137-14.838 2.877-22.439a0.18974 0.18974 0 0 0 0-0.00195 0.18974 0.18974 0 0 0 0-0.00196c-1.045-8.4844-4.6195-16.462-10.256-22.889a0.18974 0.18974 0 0 0-0.00196-0.001953c-0.84024-0.91385-1.3019-2.1122-1.2871-3.3535l0.01367-1.1094c0.03975-3.3384-0.58235-6.651-1.834-9.7461l-0.01367-0.03125-0.00195-0.003906c-2.2652-5.8404-6.6972-10.585-12.371-13.242a0.18974 0.18974 0 0 0-0.00195-0.001953c-1.0892-0.49078-1.8658-1.4845-2.0781-2.6602l-3.9785-22.025c-0.23031-1.2753-1.1892-2.2987-2.4473-2.6094l-96.367-23.801z"/>
</svg>
