<?xml version="1.0" encoding="UTF-8"?>
<svg width="100mm" height="99.101mm" version="1.1" xmlns="http://www.w3.org/2000/svg">
    <path transform="matrix(1.004 0 0 1.004 -.78802 -2.6135)" d="m98.42 28.933 29.366-11.829a3.9336 3.9336 5.0105 0 1 3.552 0.31141l16.857 10.518a2.7148 2.7148 175.58 0 0 3.2109-0.24805l1.6757-1.4462a38.167 38.167 166.86 0 1 34.502-8.0551l0.76269 0.19744a3.6487 3.6487 166.57 0 0 3.3266-0.79463l2.6644-2.3476a47.624 47.624 148.15 0 1 13.403-8.326l1.0015-0.41099a25.744 25.744 174.95 0 1 15.22-1.3448l0.60978 0.13199a17.633 17.633 28.045 0 1 8.491 4.5233l1.0066 0.96787a1.0786 1.0786 1.0423 0 0 1.4664 0.02668l7.8883-7.051a3.7882 3.7882 166.04 0 1 3.4328-0.85333l95.987 23.706a3.0862 3.0862 46.818 0 1 2.2971 2.4477l3.9624 21.94a3.8009 3.8009 52.01 0 0 2.1789 2.7898 24.05 24.05 46.956 0 1 12.226 13.09l0.0141 0.03497a24.91 24.91 79.332 0 1 1.815 9.635l-0.0131 1.1029a5.0413 5.0413 69.042 0 0 1.3299 3.4721 42.253 42.253 65.864 0 1 10.168 22.694 50.51 50.51 97.309 0 1-2.8573 22.276l-2.3634 7.5778a14.073 14.073 91.455 0 0-0.19542 7.6927l2.9516 11.486a38.388 38.388 90.189 0 1-0.064 19.354l-0.77533 2.9365a43.669 43.669 121.37 0 1-12.971 21.277l-2.816 2.5403a4.9989 4.9989 116.14 0 0-1.6362 3.3339l-0.32921 4.343a25.749 25.749 111.59 0 1-5.6234 14.207l-1.0142 1.259a50.328 50.328 143.34 0 1-20.193 15.031l-2.5211 1.0278a3.2904 3.2904 140.92 0 0-1.4854 1.2064l-0.22063 0.32695a15.767 15.767 138.25 0 1-5.7849 5.1638l-1.2485 0.65041a1.172 1.172 112.01 0 0-0.57019 1.4106l0.0215 0.0642a27.251 27.251 77.82 0 1 1.2583 5.8297l1.9598 18.971a2.1258 2.1258 109.29 0 1-0.598 1.7081l-23.677 24.104a4.3527 4.3527 147.43 0 1-1.6426 1.0494l-17.993 6.4192a2.9837 2.9837 178.89 0 1-1.896 0.0366l-32.721-10.269a2.1473 2.1473 42.395 0 1-1.339-1.2224l-10.245-24.573a7.8503 7.8503 74.626 0 1-0.52598-1.913l-0.0707-0.4956a1.433 1.433 46.976 0 0-1.1191-1.199l-4.9487-1.0579a4.5515 4.5515 168.35 0 0-3.5865 0.73979l-6.2238 4.4191a1.8117 1.8117 96.795 0 0-0.31773 2.6665l10.126 11.635a2.0078 2.0078 75.443 0 1 0.44996 1.7328l-0.14789 0.70065a34.291 34.291 113.46 0 1-5.4602 12.584l-0.13788 0.19696a14.833 14.833 147.02 0 1-9.3316 6.0559l-1.374 0.26605a1.0411 1.0411 106.54 0 0-0.52583 1.7705l5.333 5.1573a10.622 10.622 81.027 0 1 1.9934 12.624 24.976 24.976 129.46 0 1-4.2255 5.1337l-0.79778 0.84623a7.0418 7.0418 110.24 0 0-1.9093 5.1792l0.20986 4.2321a26.909 26.909 99.731 0 1-1.9797 11.544 9.8101 9.8101 156.54 0 1-9.3202 4.0451 29.769 29.769 10.006 0 1-10.525-1.8569l-24.005-6.5934a7.4876 7.4876 0.40357 0 0-3.8644-0.0272l-7.5602 1.9624a97.987 97.987 169.53 0 1-13.732 2.5365l-0.63057 0.0705a1.0167 1.0167 129.09 0 0-0.89915 1.1066l0.86485 9.0951a5.9477 5.9477 124.62 0 1-4.3488 6.2992 24.424 24.424 176.27 0 1-9.1566 0.59655l-8.0238-0.88976a26.338 26.338 173.49 0 0-11.625 1.3257l-15.189 5.3308a11.316 11.316 8.5954 0 1-10.483-1.5845l-5.532-4.0979a53.528 53.528 23.894 0 0-21.412-9.4857l-9.4574-1.8826a6.6252 6.6252 48.3 0 1-5.3098-5.9596l-0.02345-0.28775a7.3669 7.3669 107.5 0 1 1.6709-5.2997l0.66434-0.80143a1.7014 1.7014 80.045 0 0-0.44806-2.5528l-6.3576-3.735a75.827 75.827 45.209 0 1-27.249-27.449l-2.2826-3.9512a3.3932 3.3932 90.5 0 1 0.030097-3.4458l15.747-26.19a3.249 3.249 89.401 0 0-0.03564-3.4062 21.363 21.363 73.476 0 1-3.2777-11.049l-0.03192-1.9926a17.981 17.981 110.35 0 1 4.5376-12.232l0.55349-0.62288a3.2017 3.2017 114.28 0 0 0.78498-1.7402l0.39043-3.2102a8.2615 8.2615 110.54 0 1 1.3642-3.6405l1.8467-2.7222a26.253 26.253 134.93 0 1 6.9383-6.9541 4.6469 4.6469 133.53 0 0 1.239-1.3043l1.5935-2.4171a24.214 24.214 137.31 0 1 8.5618-7.8972l0.05536-0.0304a11.954 11.954 177.88 0 1 10.717-0.39605l2.8935 1.321a1.5216 1.5216 151.8 0 0 2.1345-1.1444l0.2876-1.8023a3.7726 3.7726 127 0 1 2.1267-2.8226l2.1415-1.002a2.8029 2.8029 107.98 0 0 1.2644-3.8961l-1.7202-3.1077a33.559 33.559 69.509 0 1-3.4624-9.265 52.625 52.625 84.489 0 1-1.1216-11.625l0.02993-2.3675a19.801 19.801 104.9 0 1 2.4924-9.3698l0.71007-1.2774a1.5437 1.5437 86.133 0 0-0.11321-1.6748 22.123 22.123 70.771 0 1-4.361-12.502l-0.13789-3.997a68.887 68.887 94.648 0 1 1.288-15.841l0.31037-1.5571a50.785 50.785 110.22 0 1 5.4639-14.831l0.24283-0.4349a9.2332 9.2332 106.95 0 0 1.14-3.7394l0.05428-0.65558a56.624 56.624 104.75 0 1 5.0138-19.046l0.66773-1.4475a74.792 74.792 122.38 0 1 10.616-16.741l0.28611-0.34104a18.815 18.815 147.82 0 1 11.224-7.0633l1.1412-3.2929a3.495 3.495 93.148 0 0 0.10559-1.9199l-0.13761-0.60474a5.6128 5.6128 87.283 0 1-0.09333-1.9668l4.4333-34.204a1.7087 1.7087 127.72 0 1 1.0561-1.3653z" fill="none" stroke="#000" stroke-linecap="round" stroke-linejoin="round" stroke-width=".37795"/>
</svg>
