%TF.GenerationSoftware,KiCad,Pcbnew,9.0.0*%
%TF.CreationDate,2025-12-18T00:51:24+08:00*%
%TF.ProjectId,hnr26-badge,686e7232-362d-4626-9164-67652e6b6963,0.0.14*%
%TF.SameCoordinates,Original*%
%TF.FileFunction,Profile,NP*%
%FSLAX46Y46*%
G04 Gerber Fmt 4.6, Leading zero omitted, Abs format (unit mm)*
G04 Created by KiCad (PCBNEW 9.0.0) date 2025-12-18 00:51:24*
%MOMM*%
%LPD*%
G01*
G04 APERTURE LIST*
%TA.AperFunction,Profile*%
%ADD10C,0.200000*%
%TD*%
G04 APERTURE END LIST*
D10*
X177595724Y-119985368D02*
X177393479Y-120235912D01*
X99556705Y-123666130D02*
X99711029Y-123375970D01*
X102130987Y-133508771D02*
X102001188Y-133421231D01*
X104995545Y-108354960D02*
X105031766Y-108204032D01*
X172024495Y-52895548D02*
X172499876Y-53014382D01*
X174695373Y-53551314D02*
X175854384Y-53833232D01*
X149139579Y-126128199D02*
X149133546Y-126508540D01*
X107147862Y-137333297D02*
X107410479Y-137091812D01*
X130544860Y-143128829D02*
X128886878Y-143216440D01*
X190035445Y-66816336D02*
X190222823Y-67715672D01*
X130399768Y-53634187D02*
X130483723Y-53650035D01*
X101327779Y-113580684D02*
X101513524Y-113255994D01*
X100745458Y-121685001D02*
X100842052Y-121443516D01*
X144647454Y-53827377D02*
X144732353Y-53823991D01*
X152312106Y-117356198D02*
X152194951Y-117420717D01*
X106058084Y-106761152D02*
X106096761Y-106677764D01*
X104077897Y-108741339D02*
X104222788Y-108741339D01*
X150854135Y-118035378D02*
X151213346Y-118426812D01*
X186167034Y-105731919D02*
X185362486Y-106616087D01*
X149332849Y-127190738D02*
X149429443Y-127577116D01*
X142086614Y-53497752D02*
X143409091Y-53538286D01*
X117214821Y-144529560D02*
X117166524Y-144432964D01*
X176974631Y-120664462D02*
X176882397Y-120754730D01*
X151590528Y-129808541D02*
X151856732Y-130645541D01*
X185991718Y-61543909D02*
X186036062Y-61809164D01*
X159068336Y-50402647D02*
X159304537Y-50181159D01*
X151494071Y-118817189D02*
X151795931Y-119173381D01*
X151460945Y-132267980D02*
X151104565Y-132733030D01*
X149624152Y-138001012D02*
X149625475Y-138117984D01*
X120885238Y-66915923D02*
X120981832Y-66915923D01*
X113755375Y-77701303D02*
X113772044Y-77581822D01*
X103809316Y-134815816D02*
X103498402Y-134628664D01*
X127115555Y-54648423D02*
X127115555Y-54551829D01*
X175854384Y-53833232D02*
X176850515Y-54089812D01*
X141991366Y-138637165D02*
X141991366Y-138492271D01*
X100648864Y-121733298D02*
X100745458Y-121685001D01*
X176882397Y-120754730D02*
X176787092Y-120849271D01*
X171483102Y-125563701D02*
X171149929Y-125678405D01*
X163230692Y-50690889D02*
X164551321Y-51021046D01*
X162568513Y-125388467D02*
X161754227Y-125122987D01*
X172901833Y-124824149D02*
X172805239Y-124824149D01*
X146911388Y-52951999D02*
X147016660Y-52873138D01*
X149912415Y-134242129D02*
X149815821Y-134290429D01*
X177903026Y-111958594D02*
X177939814Y-112067639D01*
X184058118Y-55896437D02*
X184158607Y-55921599D01*
X120643751Y-67688680D02*
X120885238Y-66915923D01*
X97412948Y-127577265D02*
X97569915Y-127000717D01*
X157428604Y-120857738D02*
X157067134Y-119951975D01*
X152840359Y-116966801D02*
X152718484Y-117068869D01*
X156190988Y-117917644D02*
X156139294Y-117810292D01*
X189610181Y-65836244D02*
X189999436Y-66722560D01*
X146174278Y-139677053D02*
X145794964Y-139603126D01*
X151848311Y-131417302D02*
X151554520Y-132117051D01*
X102782245Y-134058905D02*
X102290970Y-133614422D01*
X184061108Y-107769184D02*
X183913577Y-107871816D01*
X121735518Y-143767858D02*
X120962198Y-144096689D01*
X172765999Y-124911689D02*
X172350569Y-125254864D01*
X140778264Y-53646180D02*
X142086614Y-53497752D01*
X98137419Y-125983456D02*
X98234013Y-125983456D01*
X101125799Y-118551717D02*
X101083540Y-118400788D01*
X106180975Y-136347352D02*
X105924774Y-136218307D01*
X100117595Y-122747540D02*
X100214189Y-122506055D01*
X101798866Y-113024702D02*
X101904514Y-112991497D01*
X179180449Y-111011136D02*
X179095930Y-111098676D01*
X107886538Y-105181590D02*
X108569540Y-104974153D01*
X178455991Y-111590705D02*
X178356379Y-111626926D01*
X189981754Y-98113742D02*
X188513828Y-99549596D01*
X106540475Y-106097202D02*
X107120623Y-105650316D01*
X149839337Y-135367496D02*
X149874476Y-136644293D01*
X112819680Y-92803248D02*
X112745348Y-92726842D01*
X113768831Y-102648149D02*
X113308687Y-102191026D01*
X139703284Y-137897624D02*
X138996937Y-137719527D01*
X178685393Y-117492022D02*
X178701030Y-117633394D01*
X163759697Y-125774290D02*
X163437086Y-125671235D01*
X141309168Y-138401715D02*
X141136731Y-138350775D01*
X120981824Y-65901681D02*
X121050687Y-64907060D01*
X97827613Y-128244241D02*
X97412948Y-127577265D01*
X187740079Y-102262777D02*
X187439278Y-103428470D01*
X115723645Y-143533437D02*
X115572716Y-143467027D01*
X138996937Y-137622931D02*
X138812804Y-137607850D01*
X191696955Y-83800263D02*
X191683844Y-84624043D01*
X114425278Y-142633329D02*
X113785717Y-142307886D01*
X114523774Y-75081930D02*
X114724320Y-74438218D01*
X142812420Y-138878639D02*
X142670545Y-138863558D01*
X116082856Y-143732663D02*
X115723645Y-143533437D01*
X150435382Y-128606069D02*
X150673096Y-128790579D01*
X149236173Y-125500333D02*
X149236173Y-126128199D01*
X121072383Y-64745429D02*
X121141807Y-64235427D01*
X156583402Y-118823216D02*
X156243061Y-118031973D01*
X135084599Y-56532021D02*
X135586251Y-56486177D01*
X120042705Y-67786393D02*
X120643751Y-67688680D01*
X181441832Y-109369007D02*
X180306379Y-109719185D01*
X117501412Y-69777536D02*
X117570651Y-69686564D01*
X151409553Y-118642112D02*
X151409553Y-118787005D01*
X187288359Y-103854089D02*
X187254810Y-103947651D01*
X150932615Y-126762100D02*
X150202117Y-126900953D01*
X130483723Y-53650035D02*
X130795201Y-53815302D01*
X115427650Y-73001377D02*
X115512547Y-72844598D01*
X170984144Y-125735383D02*
X169504993Y-126271931D01*
X120962198Y-144096689D02*
X120331503Y-144402135D01*
X154017603Y-122699095D02*
X153921009Y-122699095D01*
X156243061Y-118031973D02*
X156190988Y-117917644D01*
X152309085Y-125832377D02*
X151699332Y-126273090D01*
X184206391Y-107666553D02*
X184061108Y-107769184D01*
X113281615Y-142000004D02*
X113157854Y-141969818D01*
X130795201Y-53815302D02*
X131350431Y-54152063D01*
X123675131Y-55969640D02*
X124489394Y-55635498D01*
X152423794Y-120091029D02*
X152517370Y-120106137D01*
X146627641Y-53199522D02*
X146724237Y-53199522D01*
X149332547Y-138878666D02*
X149293304Y-138990354D01*
X187439278Y-103428470D02*
X187400648Y-103539920D01*
X150541792Y-133418622D02*
X150284077Y-133665018D01*
X185440327Y-58692760D02*
X185477897Y-58889631D01*
X133201569Y-138670107D02*
X131897242Y-138782077D01*
X182609553Y-108741167D02*
X182496735Y-108813800D01*
X112030914Y-94307886D02*
X112332517Y-93540014D01*
X109197478Y-140714091D02*
X109118994Y-140710334D01*
X192214551Y-82031079D02*
X191953222Y-82766302D01*
X178411454Y-114880286D02*
X178488056Y-115644466D01*
X128310158Y-54086153D02*
X129162152Y-53742851D01*
X139866288Y-138009299D02*
X139866288Y-137912705D01*
X144647454Y-53730783D02*
X144647454Y-53827377D01*
X112674881Y-141728333D02*
X112626584Y-141583439D01*
X102332369Y-111227445D02*
X102387492Y-110963013D01*
X183725723Y-55811895D02*
X184058118Y-55896437D01*
X137842391Y-137459334D02*
X137403129Y-137574644D01*
X104416050Y-135256516D02*
X104416050Y-135159922D01*
X151648016Y-126387795D02*
X151190893Y-126623057D01*
X147207207Y-52716549D02*
X147539251Y-52469027D01*
X185027842Y-56433927D02*
X185050596Y-56552087D01*
X185169790Y-57208005D02*
X185187782Y-57309787D01*
X138996937Y-137719527D02*
X138996937Y-137622931D01*
X134713503Y-56253558D02*
X135084599Y-56435427D01*
X167061039Y-51643223D02*
X167912766Y-51864881D01*
X113658781Y-78999291D02*
X113755375Y-77701303D01*
X129252401Y-53706651D02*
X129516458Y-53601730D01*
X192535808Y-81071937D02*
X192463365Y-81317385D01*
X149627062Y-138233443D02*
X149574045Y-138540584D01*
X171208793Y-52692208D02*
X171486410Y-52761446D01*
X149565197Y-125910860D02*
X149500761Y-125805646D01*
X111696768Y-90714392D02*
X111660735Y-90580396D01*
X158203510Y-51196909D02*
X158296024Y-51109866D01*
X112674855Y-81439694D02*
X113545031Y-79795334D01*
X122678635Y-143432983D02*
X121735518Y-143767858D01*
X111838643Y-96000866D02*
X112030914Y-94307886D01*
X166488868Y-126645483D02*
X166294751Y-126583705D01*
X190723996Y-70151664D02*
X190868882Y-70199964D01*
X179421936Y-110866245D02*
X179180449Y-111011136D01*
X133056306Y-55226299D02*
X133620024Y-55571736D01*
X158798546Y-50736389D02*
X158798546Y-50639792D01*
X104310399Y-135144841D02*
X103809316Y-134815816D01*
X158346985Y-122997084D02*
X158035338Y-122294204D01*
X187343102Y-63293456D02*
X187472906Y-63330246D01*
X102870536Y-134127580D02*
X102782245Y-134058905D01*
X188513828Y-99549596D02*
X188105977Y-99908386D01*
X166294751Y-126583705D02*
X165784506Y-126420746D01*
X101904514Y-112991497D02*
X101952814Y-112846606D01*
X179727200Y-110527140D02*
X179421936Y-110866245D01*
X156727803Y-51817039D02*
X156963250Y-52281900D01*
X153297106Y-124385536D02*
X153246888Y-124488449D01*
X107120623Y-105650316D02*
X107265516Y-105538628D01*
X106347950Y-138685621D02*
X106444544Y-138685621D01*
X104802426Y-135546301D02*
X104802426Y-135449707D01*
X190382132Y-69593966D02*
X190639488Y-69973568D01*
X111705490Y-84726431D02*
X112065375Y-83109164D01*
X151554520Y-132117051D02*
X151460945Y-132267980D01*
X159443885Y-124395133D02*
X159126179Y-124305331D01*
X190310850Y-69143190D02*
X190382132Y-69593966D01*
X156963250Y-52281900D02*
X157156441Y-52233603D01*
X116310879Y-71453942D02*
X117214647Y-70151839D01*
X122012838Y-57252325D02*
X122157353Y-56583332D01*
X156625171Y-51702334D02*
X156727803Y-51817039D01*
X148062174Y-139836846D02*
X147639123Y-139856686D01*
X114220297Y-102897373D02*
X114096536Y-102809835D01*
X157067134Y-119951975D02*
X156867148Y-119511452D01*
X149812831Y-134697937D02*
X149811508Y-134812546D01*
X149293304Y-138990354D02*
X148994465Y-139361638D01*
X173132193Y-124592660D02*
X173046727Y-124679258D01*
X111994040Y-106124706D02*
X111982716Y-105556551D01*
X101056372Y-121088076D02*
X101255598Y-120761316D01*
X151928746Y-119306199D02*
X152037416Y-119414869D01*
X110514826Y-105238847D02*
X110694618Y-105457126D01*
X115572716Y-143467027D02*
X115524419Y-143322136D01*
X115930432Y-72074106D02*
X116248702Y-71552459D01*
X102677277Y-110576635D02*
X102822168Y-110576635D01*
X150347090Y-128591358D02*
X150435382Y-128606069D01*
X157542819Y-51798928D02*
X157766194Y-51599702D01*
X103498402Y-134628664D02*
X103450105Y-134532070D01*
X127264221Y-54496928D02*
X127465712Y-54422030D01*
X150284077Y-133665018D02*
X150161073Y-133784813D01*
X123046715Y-143309584D02*
X122769006Y-143322046D01*
X105641590Y-136014179D02*
X105312566Y-135811934D01*
X179051261Y-54634157D02*
X180136520Y-54909307D01*
X112626489Y-103911614D02*
X112754968Y-103832755D01*
X102387492Y-110963013D02*
X102484089Y-110914716D01*
X129672363Y-53539709D02*
X130037202Y-53461328D01*
X148897871Y-139458232D02*
X148606769Y-139560676D01*
X135084599Y-56435427D02*
X135084599Y-56532021D01*
X114510175Y-142645976D02*
X114425278Y-142633329D01*
X175123508Y-122457584D02*
X175087284Y-122541351D01*
X113650870Y-79348504D02*
X113654706Y-79180181D01*
X105031766Y-108204032D02*
X105285327Y-107727097D01*
X189558746Y-65732467D02*
X189610181Y-65836244D01*
X146482750Y-53344413D02*
X146579344Y-53344413D01*
X158477562Y-50937570D02*
X158798546Y-50736389D01*
X165784506Y-126420746D02*
X165278229Y-126259292D01*
X108617837Y-104925856D02*
X109510338Y-104915703D01*
X127115555Y-54551829D02*
X127264221Y-54496928D01*
X178757963Y-118145148D02*
X178770266Y-118254061D01*
X159126179Y-124305331D02*
X158750741Y-124147989D01*
X163437086Y-125671235D02*
X163291938Y-125624928D01*
X152879115Y-50337911D02*
X153051706Y-50338705D01*
X103208618Y-134387176D02*
X102870536Y-134127580D01*
X105469461Y-107455426D02*
X105526814Y-107340719D01*
X111805456Y-106278180D02*
X111998644Y-106278180D01*
X136147400Y-137961023D02*
X135074928Y-138229257D01*
X192076994Y-86282947D02*
X192221880Y-86765919D01*
X114026919Y-102760596D02*
X113768831Y-102648149D01*
X118518673Y-68702921D02*
X118615267Y-68702921D01*
X177876425Y-111880487D02*
X177903026Y-111958594D01*
X109510338Y-104915703D02*
X110356539Y-105167344D01*
X106444544Y-138685621D02*
X106459626Y-138519600D01*
X107410479Y-137091812D02*
X107313885Y-136898624D01*
X150048135Y-133892826D02*
X149912415Y-134242129D01*
X189296677Y-65265909D02*
X189558746Y-65732467D01*
X139866288Y-137912705D02*
X139703284Y-137897624D01*
X98747727Y-129794219D02*
X98372855Y-129245027D01*
X153679524Y-121395069D02*
X154085506Y-121818621D01*
X101807997Y-119994599D02*
X101856294Y-119559923D01*
X178600909Y-118980182D02*
X178410740Y-119167335D01*
X102146002Y-112798309D02*
X102162036Y-112617570D01*
X119183972Y-144736639D02*
X118663739Y-144770977D01*
X151213346Y-118426812D02*
X151264662Y-118642112D01*
X191683844Y-84624043D02*
X192076994Y-86282947D01*
X161754227Y-125122987D02*
X161654087Y-125090605D01*
X119629684Y-144674372D02*
X119282548Y-144722669D01*
X135745667Y-56353925D02*
X135826887Y-56288367D01*
X191548066Y-71102517D02*
X192130705Y-72183238D01*
X113308687Y-102191026D02*
X113233363Y-102080330D01*
X117383861Y-144577857D02*
X117214821Y-144529560D01*
X148185228Y-52010203D02*
X148740646Y-51657029D01*
X111979144Y-104610248D02*
X112134084Y-104298935D01*
X105768371Y-136077570D02*
X105641590Y-136014179D01*
X151940822Y-117579573D02*
X151188970Y-117702421D01*
X157766194Y-51599702D02*
X157887312Y-51490845D01*
X134269678Y-55966417D02*
X134713503Y-56253558D01*
X191953222Y-82766302D02*
X191894855Y-82935437D01*
X102001188Y-133324637D02*
X101915807Y-133286304D01*
X111177590Y-105795207D02*
X111313427Y-105837469D01*
X190723996Y-70055070D02*
X190723996Y-70151664D01*
X106830912Y-139989647D02*
X106694890Y-139908711D01*
X135586251Y-56486177D02*
X135745667Y-56353925D01*
X172878976Y-53109564D02*
X173421411Y-53238572D01*
X154050287Y-116487731D02*
X153278051Y-116613628D01*
X101856294Y-119559923D02*
X101663106Y-119463327D01*
X143409091Y-53538286D02*
X144647454Y-53730783D01*
X186349116Y-62715588D02*
X186715246Y-62810483D01*
X185030276Y-106950019D02*
X184589745Y-107340547D01*
X169504993Y-126271931D02*
X168836685Y-126500555D01*
X155760477Y-51009192D02*
X156625171Y-51702334D01*
X192646403Y-80700049D02*
X192535808Y-81071937D01*
X136147400Y-137864429D02*
X136147400Y-137961023D01*
X178745025Y-118028387D02*
X178757963Y-118145148D01*
X191146615Y-70559172D02*
X191225328Y-70666532D01*
X122157353Y-56583332D02*
X122479020Y-56435422D01*
X177393479Y-120235912D02*
X177296882Y-120235912D01*
X100310783Y-122457758D02*
X100648864Y-121733298D01*
X188115843Y-63776428D02*
X188260940Y-63891323D01*
X159426410Y-50060226D02*
X159538098Y-49945521D01*
X122754065Y-56328390D02*
X123039719Y-56224121D01*
X182851355Y-55590209D02*
X183499557Y-55754589D01*
X159304537Y-50181159D02*
X159426410Y-50060226D01*
X118213784Y-144871886D02*
X117746091Y-144819342D01*
X98894951Y-124697948D02*
X99270882Y-124152688D01*
X111660563Y-106133289D02*
X111805456Y-106181586D01*
X110356539Y-105167344D02*
X110514826Y-105238847D01*
X185252552Y-57680269D02*
X185440327Y-58692760D01*
X167912766Y-51864881D02*
X168323034Y-51964729D01*
X102315039Y-111340335D02*
X102332369Y-111227445D01*
X145414906Y-139530670D02*
X145290862Y-139506513D01*
X192819546Y-90778482D02*
X192655399Y-92464994D01*
X112332517Y-93540014D02*
X112819680Y-92803248D01*
X115512547Y-72844598D02*
X115651591Y-72589908D01*
X185187782Y-57309787D02*
X185252552Y-57680269D01*
X192062240Y-94573018D02*
X191172157Y-96433256D01*
X149574045Y-138540584D02*
X149477451Y-138540584D01*
X131897242Y-138878671D02*
X131269378Y-138926968D01*
X174277363Y-123409754D02*
X174175959Y-123510216D01*
X112754968Y-103832755D02*
X113233789Y-103761416D01*
X112772983Y-141770780D02*
X112674881Y-141728333D01*
X136151667Y-55995659D02*
X137605802Y-54927442D01*
X124489394Y-55635498D02*
X124657679Y-55566921D01*
X185098221Y-56812794D02*
X185169790Y-57208005D01*
X111480645Y-89394589D02*
X111452264Y-88193881D01*
X110761856Y-141076131D02*
X110380762Y-140979724D01*
X157156441Y-52137009D02*
X157319443Y-51989097D01*
X108123054Y-140518839D02*
X107718377Y-140436395D01*
X154314076Y-50467734D02*
X154596685Y-50543198D01*
X187472906Y-63330246D02*
X187874358Y-63574184D01*
X166225121Y-51439497D02*
X166906568Y-51605708D01*
X116248702Y-71552459D02*
X116310879Y-71453942D01*
X171149929Y-125678405D02*
X170984144Y-125735383D01*
X157156441Y-52233603D02*
X157156441Y-52137009D01*
X131329693Y-142301737D02*
X130979535Y-142887341D01*
X159538098Y-49945521D02*
X160054276Y-49915335D01*
X100917881Y-114324417D02*
X101158173Y-113933860D01*
X164297332Y-125946042D02*
X163759697Y-125774290D01*
X153099955Y-116758519D02*
X152840359Y-116966801D01*
X135074928Y-138229257D02*
X134482276Y-138379284D01*
X184444859Y-107485438D02*
X184206391Y-107666553D01*
X99664809Y-131042593D02*
X99248244Y-130523396D01*
X112065375Y-83109164D02*
X112626441Y-81549991D01*
X116538661Y-143998296D02*
X116248876Y-143853405D01*
X150377279Y-50813335D02*
X151080044Y-50588453D01*
X189155575Y-65064040D02*
X189296677Y-65265909D01*
X178488056Y-115644466D02*
X178503958Y-115801813D01*
X160649807Y-50047934D02*
X160802723Y-50083025D01*
X125237399Y-142986584D02*
X124773342Y-142999046D01*
X131473475Y-141543577D02*
X131365914Y-142066290D01*
X178503958Y-115801813D02*
X178685393Y-117492022D01*
X102580683Y-110673229D02*
X102677277Y-110576635D01*
X149625475Y-138117984D02*
X149627062Y-138233443D01*
X152520388Y-117241491D02*
X152430401Y-117290921D01*
X187873882Y-100385742D02*
X187849805Y-101061905D01*
X111660735Y-90580396D02*
X111480645Y-89394589D01*
X187400648Y-103539920D02*
X187288359Y-103854089D01*
X111313427Y-105837469D02*
X111660563Y-106133289D01*
X112143519Y-91837303D02*
X112071450Y-91713730D01*
X124773342Y-142999046D02*
X124623000Y-143002327D01*
X154596685Y-50543198D02*
X154737430Y-50580364D01*
X101321252Y-118991295D02*
X101125799Y-118551717D01*
X157427358Y-51897220D02*
X157542819Y-51798928D01*
X107313885Y-136898624D02*
X107072397Y-136802028D01*
X153278051Y-116613628D02*
X153099955Y-116758519D01*
X167108787Y-126858464D02*
X166488868Y-126645483D01*
X176850515Y-54089812D02*
X179051261Y-54634157D01*
X109197478Y-140810685D02*
X109197478Y-140714091D01*
X163291938Y-125624928D02*
X162568513Y-125388467D01*
X152182307Y-119559759D02*
X152182307Y-119656353D01*
X151699332Y-126273090D02*
X151648016Y-126387795D01*
X166906568Y-51605708D02*
X167061039Y-51643223D01*
X192655399Y-92464994D02*
X192629205Y-92597905D01*
X150161073Y-133784813D02*
X150048135Y-133892826D01*
X192248338Y-86856925D02*
X192656643Y-88504621D01*
X152616982Y-120139339D02*
X152665279Y-120284233D01*
X190222823Y-67715672D02*
X190241608Y-67873276D01*
X127228955Y-143079209D02*
X125377057Y-142983938D01*
X107718377Y-140436395D02*
X106830912Y-139989647D01*
X106096761Y-106677764D02*
X106540475Y-106097202D01*
X169032400Y-52133771D02*
X169207099Y-52177350D01*
X193041267Y-79105088D02*
X192946335Y-79521332D01*
X135826887Y-56288367D02*
X136151667Y-55995659D01*
X101915807Y-133286304D02*
X101628581Y-133068624D01*
X173674590Y-124003095D02*
X173132193Y-124592660D01*
X153051706Y-50338705D02*
X154210309Y-50446594D01*
X120331503Y-144402135D02*
X119629684Y-144577778D01*
X149815260Y-51026147D02*
X150201636Y-50881254D01*
X150959050Y-132955544D02*
X150665175Y-133298822D01*
X99972704Y-131489341D02*
X99972704Y-131344450D01*
X117842513Y-69475678D02*
X117875715Y-69397195D01*
X111982716Y-105556551D02*
X111976763Y-105311481D01*
X146579344Y-53344413D02*
X146627641Y-53199522D01*
X118953349Y-68316543D02*
X119267282Y-68140900D01*
X111998644Y-106278180D02*
X111994040Y-106124706D01*
X145179845Y-139485373D02*
X144937498Y-139361612D01*
X145922614Y-53856817D02*
X146383137Y-53444026D01*
X113157854Y-141969818D02*
X113109557Y-141873224D01*
X174731091Y-122959421D02*
X174543941Y-123037150D01*
X183499557Y-55754589D02*
X183725723Y-55811895D01*
X140445855Y-138154192D02*
X140445855Y-138057596D01*
X110380762Y-140979724D02*
X109197478Y-140810685D01*
X154210309Y-50446594D02*
X154314076Y-50467734D01*
X158798546Y-50639792D02*
X159068336Y-50402647D01*
X134482276Y-138379284D02*
X133201569Y-138670107D01*
X104222788Y-108741339D02*
X104271085Y-108596448D01*
X192221880Y-86765919D02*
X192248338Y-86856925D01*
X98636226Y-125299181D02*
X98894951Y-124697948D01*
X97944218Y-126369835D02*
X98040814Y-126369835D01*
X118663739Y-144867573D02*
X118313584Y-144870563D01*
X127465712Y-54422030D02*
X127562682Y-54386277D01*
X179988488Y-109898977D02*
X179928491Y-110128770D01*
X105333626Y-107533909D02*
X105430220Y-107533909D01*
X143122673Y-138975349D02*
X142812420Y-138878639D01*
X113943631Y-76920280D02*
X114069303Y-76454630D01*
X99270882Y-124152688D02*
X99480675Y-123807063D01*
X189999436Y-66722560D02*
X190035445Y-66816336D01*
X119629684Y-144577778D02*
X119629684Y-144674372D01*
X117570651Y-69686564D02*
X117745916Y-69475678D01*
X161748382Y-50320171D02*
X163230692Y-50690889D01*
X155997790Y-116806805D02*
X155864408Y-116792465D01*
X130544860Y-143032235D02*
X130544860Y-143128829D01*
X144732353Y-53823991D02*
X145371914Y-53923982D01*
X150114660Y-128211018D02*
X150347090Y-128446465D01*
X190997945Y-70356740D02*
X191070520Y-70454360D01*
X178356379Y-111626926D02*
X177876425Y-111880487D01*
X116248876Y-143853405D02*
X116082856Y-143732663D01*
X177939814Y-112067639D02*
X177975472Y-112172912D01*
X178455991Y-111494108D02*
X178455991Y-111590705D01*
X186826503Y-104735513D02*
X186167034Y-105731919D01*
X117745916Y-69475678D02*
X117842513Y-69475678D01*
X177257348Y-120323105D02*
X177060149Y-120579439D01*
X100643308Y-115840659D02*
X100648785Y-115599547D01*
X192463365Y-81317385D02*
X192427143Y-81441808D01*
X154844578Y-116634212D02*
X154050287Y-116487731D01*
X151190893Y-126623057D02*
X150932615Y-126762100D01*
X151205408Y-50551004D02*
X152879115Y-50337911D01*
X187849805Y-101061905D02*
X187740079Y-102262777D01*
X184493146Y-107340547D02*
X184444859Y-107485438D01*
X107072397Y-136802028D02*
X106180975Y-136347352D01*
X110887808Y-105505425D02*
X110887808Y-105602019D01*
X147639123Y-139856686D02*
X146174278Y-139677053D01*
X101255598Y-120761316D02*
X101469916Y-120477571D01*
X117601200Y-144722748D02*
X117552903Y-144626154D01*
X100645160Y-116263505D02*
X100644102Y-115942344D01*
X101469916Y-120477571D02*
X101614809Y-120139490D01*
X185050596Y-56552087D02*
X185073085Y-56679751D01*
X123879842Y-143177142D02*
X123161420Y-143303922D01*
X149139658Y-126900953D02*
X149236255Y-126997547D01*
X114096536Y-102809835D02*
X114026919Y-102760596D01*
X182496735Y-108813800D02*
X181441832Y-109369007D01*
X99972704Y-131344450D02*
X99827810Y-131296153D01*
X168323034Y-51964729D02*
X169032400Y-52133771D01*
X172499876Y-53014382D02*
X172605056Y-53040761D01*
X113772044Y-77581822D02*
X113943631Y-76920280D01*
X174543941Y-123037150D02*
X174506270Y-123122531D01*
X178701030Y-117633394D02*
X178745025Y-118028387D01*
X158391530Y-123103560D02*
X158346985Y-122997084D01*
X139582280Y-54020565D02*
X140778264Y-53646180D01*
X130399768Y-53537593D02*
X130399768Y-53634187D01*
X164551321Y-51021046D02*
X166225121Y-51439497D01*
X111129293Y-105650316D02*
X111177590Y-105795207D01*
X191172157Y-96433256D02*
X189981754Y-98113742D01*
X113233789Y-103761416D02*
X113914101Y-103620131D01*
X147979964Y-52136983D02*
X148185228Y-52010203D01*
X172350569Y-125254864D02*
X172220344Y-125304552D01*
X177975472Y-112172912D02*
X178021316Y-112315162D01*
X138812804Y-137607850D02*
X138290591Y-137496161D01*
X121911172Y-58185607D02*
X121948103Y-57896058D01*
X148606769Y-139560676D02*
X148438481Y-139676701D01*
X111842135Y-96503105D02*
X111838643Y-96000866D01*
X174833723Y-122856035D02*
X174731091Y-122959421D01*
X121948103Y-57896058D02*
X122012838Y-57252325D01*
X101614809Y-120139490D02*
X101711403Y-119994599D01*
X148994465Y-139361638D02*
X148897871Y-139458232D01*
X149719158Y-137912721D02*
X149622564Y-137912721D01*
X105593222Y-107192809D02*
X105864896Y-106906043D01*
X121231800Y-63569831D02*
X121254289Y-63403152D01*
X173046727Y-124679258D02*
X172950130Y-124679258D01*
X105430220Y-107533909D02*
X105469461Y-107455426D01*
X121254289Y-63403152D02*
X121449438Y-61830383D01*
X123039719Y-56224121D02*
X123675131Y-55969640D01*
X102290970Y-133614422D02*
X102130987Y-133508771D01*
X168014004Y-126800563D02*
X167878921Y-126852633D01*
X112433394Y-141535142D02*
X112203982Y-141447605D01*
X149574333Y-127625413D02*
X149719227Y-127866898D01*
X103981303Y-108886233D02*
X104077897Y-108741339D01*
X147539251Y-52469027D02*
X147634527Y-52400542D01*
X100897332Y-132364918D02*
X100679051Y-132177577D01*
X117746091Y-144722748D02*
X117601200Y-144722748D01*
X151080044Y-50588453D02*
X151205408Y-50551004D01*
X112203982Y-141447605D02*
X110761856Y-141076131D01*
X98427190Y-125741969D02*
X98475487Y-125452187D01*
X185845879Y-60685406D02*
X185991718Y-61543909D01*
X140845627Y-138246257D02*
X140445855Y-138154192D01*
X109118994Y-140710334D02*
X108123054Y-140518839D01*
X98282299Y-125790268D02*
X98427190Y-125741969D01*
X192819546Y-90647812D02*
X192819546Y-90778482D01*
X173421411Y-53238572D02*
X174695373Y-53551314D01*
X138290591Y-137496161D02*
X137842391Y-137459334D01*
X104416050Y-135159922D02*
X104310399Y-135144841D01*
X152430401Y-117290921D02*
X152312106Y-117356198D01*
X152194951Y-117420717D02*
X151940822Y-117579573D01*
X145290862Y-139506513D02*
X145179845Y-139485373D01*
X149133546Y-126508540D02*
X149131165Y-126617773D01*
X193300003Y-76974689D02*
X193073123Y-78962895D01*
X100679051Y-132177577D02*
X100383228Y-131848552D01*
X102822168Y-110576635D02*
X102822168Y-110383447D01*
X174175959Y-123510216D02*
X174070023Y-123613700D01*
X106459626Y-138519600D02*
X106551817Y-138086911D01*
X137403129Y-137574644D02*
X136147400Y-137864429D01*
X188105977Y-99908386D02*
X187873882Y-100385742D01*
X121536385Y-61100621D02*
X121781881Y-59174145D01*
X115093704Y-143078384D02*
X114510175Y-142742570D01*
X98620378Y-125403890D02*
X98636226Y-125299181D01*
X153199568Y-120839651D02*
X153679524Y-121395069D01*
X132144129Y-54636168D02*
X132917262Y-55137439D01*
X97569915Y-127000717D02*
X97634626Y-126934119D01*
X176184237Y-121444733D02*
X175997166Y-121629227D01*
X121781881Y-59174145D02*
X121911172Y-58185607D01*
X152873747Y-125153198D02*
X152710557Y-125442982D01*
X156027412Y-117104043D02*
X155997790Y-116806805D01*
X101663106Y-119463327D02*
X101425392Y-119171656D01*
X151188970Y-117702421D02*
X150443608Y-117579573D01*
X148438481Y-139676701D02*
X148062174Y-139836846D01*
X99827810Y-131296153D02*
X99664809Y-131042593D01*
X161654087Y-125090605D02*
X160325825Y-124678374D01*
X158603400Y-123705574D02*
X158391530Y-123103560D01*
X175368012Y-122258358D02*
X175268399Y-122457584D01*
X175268399Y-122457584D02*
X175123508Y-122457584D01*
X149622564Y-137912721D02*
X149624152Y-138001012D01*
X131365914Y-142066290D02*
X131329693Y-142301737D01*
X130037202Y-53461328D02*
X130399768Y-53537593D01*
X193236189Y-75597694D02*
X193300003Y-76633721D01*
X100793755Y-117772925D02*
X100745458Y-117145061D01*
X141136731Y-138350775D02*
X140845627Y-138246257D01*
X188644109Y-64313736D02*
X188706551Y-64396074D01*
X144665827Y-139310296D02*
X144357931Y-139216721D01*
X121514398Y-61284199D02*
X121536385Y-61100621D01*
X108569540Y-104974153D02*
X108617837Y-104925856D01*
X181978126Y-55374780D02*
X182754862Y-55565894D01*
X142670545Y-138863558D02*
X141991366Y-138637165D01*
X117552903Y-144626154D02*
X117383861Y-144577857D01*
X100768210Y-115095257D02*
X100814620Y-114777173D01*
X146724237Y-53102928D02*
X146911388Y-52951999D01*
X155864408Y-116792465D02*
X154844578Y-116634212D01*
X146383137Y-53444026D02*
X146482750Y-53344413D01*
X114775520Y-74311356D02*
X115427650Y-73001377D01*
X154737430Y-50580364D02*
X155760477Y-51009192D01*
X151017216Y-129137714D02*
X151590528Y-129808541D01*
X152520388Y-117144897D02*
X152520388Y-117241491D01*
X98040814Y-126369835D02*
X98061954Y-126258146D01*
X187343102Y-63196862D02*
X187343102Y-63293456D01*
X149236173Y-126128199D02*
X149139579Y-126128199D01*
X152037416Y-119511462D02*
X152182307Y-119559759D01*
X120990881Y-66801218D02*
X121271609Y-66143168D01*
X106694890Y-139908711D02*
X106364355Y-139476867D01*
X145794964Y-139603126D02*
X145544232Y-139554826D01*
X105285327Y-107727097D02*
X105333626Y-107533909D01*
X186956731Y-63003674D02*
X187343102Y-63196862D01*
X178827156Y-118612915D02*
X178842396Y-118738695D01*
X177060149Y-120579439D02*
X176974631Y-120664462D01*
X98372855Y-129245027D02*
X97827613Y-128244241D01*
X187254810Y-103947651D02*
X186956308Y-104491009D01*
X176787092Y-120849271D02*
X176484885Y-121147522D01*
X175087284Y-122541351D02*
X174833723Y-122856035D01*
X104802426Y-135449707D02*
X104690740Y-135407445D01*
X149811508Y-134812546D02*
X149839337Y-135367496D01*
X98234013Y-125983456D02*
X98249094Y-125889881D01*
X151856732Y-130645541D02*
X151848311Y-131417302D01*
X150665175Y-133298822D02*
X150541792Y-133418622D01*
X149429443Y-127577116D02*
X149574333Y-127625413D01*
X102484089Y-110914716D02*
X102580683Y-110673229D01*
X106830912Y-137574785D02*
X106975803Y-137526488D01*
X151795931Y-119173381D02*
X151928746Y-119306199D01*
X131897242Y-138782077D02*
X131897242Y-138878671D01*
X192427143Y-81441808D02*
X192214551Y-82031079D01*
X106364355Y-139476867D02*
X106347950Y-138685621D01*
X191225328Y-70666532D02*
X191379606Y-70878389D01*
X131365972Y-140019693D02*
X131471623Y-141438424D01*
X114510175Y-142742570D02*
X114510175Y-142645976D01*
X105312566Y-135811934D02*
X104802426Y-135546301D01*
X178310561Y-119267324D02*
X177988137Y-119630117D01*
X113233363Y-102080330D02*
X112480228Y-100693133D01*
X191379606Y-70878389D02*
X191548066Y-71102517D01*
X122479020Y-56435422D02*
X122754065Y-56328390D01*
X158035338Y-122294204D02*
X157670092Y-121404101D01*
X182754862Y-55565894D02*
X182851355Y-55590209D01*
X119484618Y-68010725D02*
X120042705Y-67786393D01*
X192892757Y-79757912D02*
X192646403Y-80700049D01*
X175413292Y-122167802D02*
X175368012Y-122258358D01*
X131471623Y-141438424D02*
X131473475Y-141543577D01*
X192656643Y-88504621D02*
X192678868Y-88618312D01*
X153921009Y-122699095D02*
X153903652Y-122796631D01*
X169745353Y-52319601D02*
X171208793Y-52692208D01*
X113785717Y-142307886D02*
X113399339Y-142114698D01*
X167743843Y-126913759D02*
X167108787Y-126858464D01*
X117021633Y-144288073D02*
X116915983Y-144279024D01*
X112626584Y-141583439D02*
X112433394Y-141535142D01*
X160802723Y-50083025D02*
X161748382Y-50320171D01*
X149815821Y-134290429D02*
X149812831Y-134697937D01*
X186715246Y-62810483D02*
X186956731Y-63003674D01*
X111805456Y-106181586D02*
X111805456Y-106278180D01*
X174070023Y-123613700D02*
X173965788Y-123716610D01*
X149459327Y-138655291D02*
X149332547Y-138878666D01*
X111452264Y-88193881D02*
X111452529Y-88029279D01*
X177731558Y-119897830D02*
X177634964Y-119897830D01*
X141843835Y-138497933D02*
X141309168Y-138401715D01*
X118615267Y-68606327D02*
X118905052Y-68413137D01*
X152327201Y-119704650D02*
X152423794Y-120091029D01*
X105864896Y-106906043D02*
X105913193Y-106761152D01*
X111968439Y-98716644D02*
X111950368Y-98609649D01*
X153903652Y-122796631D02*
X153459735Y-124065944D01*
X192130705Y-72183238D02*
X192237437Y-72412015D01*
X119282548Y-144722669D02*
X119183972Y-144736639D01*
X100648864Y-117145061D02*
X100646218Y-116487398D01*
X139241748Y-54170928D02*
X139582280Y-54020565D01*
X175509886Y-122167802D02*
X175413292Y-122167802D01*
X100745458Y-117145061D02*
X100648864Y-117145061D01*
X103000264Y-110138940D02*
X103368719Y-109602199D01*
X153149704Y-124689188D02*
X152873747Y-125153198D01*
X152665279Y-120284233D02*
X152876938Y-120457421D01*
X112071450Y-91713730D02*
X111696768Y-90714392D01*
X101083540Y-118400788D02*
X100986943Y-118352491D01*
X147207207Y-52813143D02*
X147207207Y-52716549D01*
X148740646Y-51657029D02*
X149581699Y-51192546D01*
X100383228Y-131848552D02*
X99972704Y-131489341D01*
X185477897Y-58889631D02*
X185679854Y-59825675D01*
X119267282Y-68140900D02*
X119484618Y-68010725D01*
X152517370Y-120106137D02*
X152616982Y-120139339D01*
X193025551Y-74579659D02*
X193236189Y-75597694D01*
X156867148Y-119511452D02*
X156583402Y-118823216D01*
X117875715Y-69397195D02*
X118518673Y-68702921D01*
X153246888Y-124488449D02*
X153149704Y-124689188D01*
X179095930Y-111098676D02*
X178802784Y-111354202D01*
X113654706Y-79180181D02*
X113658781Y-78999291D01*
X116915983Y-144279024D02*
X116538661Y-143998296D01*
X140445855Y-138057596D02*
X139866288Y-138009299D01*
X175615598Y-122044062D02*
X175509886Y-122167802D01*
X152576043Y-125591834D02*
X152309085Y-125832377D01*
X104690740Y-135407445D02*
X104416050Y-135256516D01*
X124657679Y-55566921D02*
X125512997Y-55221859D01*
X180306379Y-109719185D02*
X179988488Y-109898977D01*
X175997166Y-121629227D02*
X175615598Y-122044062D01*
X185362486Y-106616087D02*
X185030276Y-106950019D01*
X185073085Y-56679751D02*
X185098221Y-56812794D01*
X192629205Y-92597905D02*
X192062240Y-94573018D01*
X128886878Y-143216440D02*
X127228955Y-143079209D01*
X188706551Y-64396074D02*
X189155575Y-65064040D01*
X124623000Y-143002327D02*
X123879842Y-143177142D01*
X101711403Y-119994599D02*
X101807997Y-119994599D01*
X153459735Y-124065944D02*
X153297106Y-124385536D01*
X106975803Y-137526488D02*
X107147862Y-137333297D01*
X100697082Y-115551250D02*
X100742360Y-115267506D01*
X168836685Y-126500555D02*
X168014004Y-126800563D01*
X113399339Y-142018102D02*
X113281615Y-142000004D01*
X190868882Y-70199964D02*
X190997945Y-70356740D01*
X177988137Y-119630117D02*
X177731558Y-119897830D01*
X192237437Y-72412015D02*
X192984911Y-74438046D01*
X157670092Y-121404101D02*
X157428604Y-120857738D01*
X121449438Y-61830383D02*
X121514398Y-61284199D01*
X133620024Y-55571736D02*
X134169970Y-55904158D01*
X110887808Y-105602019D02*
X111129293Y-105650316D01*
X100842052Y-121443516D02*
X101056372Y-121088076D01*
X122769006Y-143418643D02*
X122678635Y-143432983D01*
X102918764Y-110335150D02*
X103000264Y-110138940D01*
X147979964Y-52233577D02*
X147979964Y-52136983D01*
X117356334Y-69966006D02*
X117501412Y-69777536D01*
X176484885Y-121147522D02*
X176184237Y-121444733D01*
X174506270Y-123122531D02*
X174277363Y-123409754D01*
X126922367Y-54648423D02*
X127115555Y-54648423D01*
X100890349Y-117772925D02*
X100793755Y-117772925D01*
X117214647Y-70151839D02*
X117356334Y-69966006D01*
X99711029Y-123375970D02*
X100117595Y-122747540D01*
X112134084Y-104298935D02*
X112626489Y-103911614D01*
X123161420Y-143303922D02*
X123046715Y-143309584D01*
X172220344Y-125304552D02*
X171483102Y-125563701D01*
X106551817Y-138086911D02*
X106782615Y-137719676D01*
X152710557Y-125442982D02*
X152576043Y-125591834D01*
X101952814Y-112846606D02*
X102146002Y-112798309D01*
X126632394Y-54800484D02*
X126922367Y-54648423D01*
X99248244Y-130523396D02*
X98747727Y-129794219D01*
X185679854Y-59825675D02*
X185845879Y-60685406D01*
X150201636Y-50881254D02*
X150377279Y-50813335D01*
X101424638Y-132874870D02*
X101321723Y-132777614D01*
X191894855Y-82935437D02*
X191696955Y-83800263D01*
X125847752Y-55086118D02*
X126632394Y-54800484D01*
X144937498Y-139361612D02*
X144665827Y-139310296D01*
X169207099Y-52177350D02*
X169745353Y-52319601D01*
X117166524Y-144432964D02*
X117021633Y-144384667D01*
X129516458Y-53601730D02*
X129672363Y-53539709D01*
X104271085Y-108596448D02*
X104995545Y-108354960D01*
X190639488Y-69973568D02*
X190723996Y-70055070D01*
X149236255Y-127190738D02*
X149332849Y-127190738D01*
X154147402Y-122074248D02*
X154017603Y-122699095D01*
X147634527Y-52400542D02*
X147979964Y-52233577D01*
X188260940Y-63891323D02*
X188644109Y-64313736D01*
X172805239Y-124824149D02*
X172765999Y-124911689D01*
X149131165Y-126617773D02*
X149139658Y-126900953D01*
X144357931Y-139216721D02*
X143122673Y-138975349D01*
X177634964Y-119897830D02*
X177595724Y-119985368D01*
X146724237Y-53199522D02*
X146724237Y-53102928D01*
X184976539Y-56242060D02*
X185027842Y-56433927D01*
X100648785Y-115599547D02*
X100697082Y-115551250D01*
X157887312Y-51490845D02*
X158203510Y-51196909D01*
X115865342Y-72195417D02*
X115930432Y-72074106D01*
X156040059Y-117226389D02*
X156027412Y-117104043D01*
X122769006Y-143322046D02*
X122769006Y-143418643D01*
X178240542Y-113313934D02*
X178258560Y-113459460D01*
X131269378Y-138926968D02*
X131365972Y-140019693D01*
X186956308Y-104491009D02*
X186826503Y-104735513D01*
X111452529Y-88029279D02*
X111705490Y-84726431D01*
X186116349Y-62299301D02*
X186349116Y-62715588D01*
X101158173Y-113933860D02*
X101327779Y-113580684D01*
X121050687Y-64907060D02*
X121072383Y-64745429D01*
X129162152Y-53742851D02*
X129252401Y-53706651D01*
X98249094Y-125889881D02*
X98282299Y-125790268D01*
X100644102Y-115942344D02*
X100643308Y-115840659D01*
X99480675Y-123807063D02*
X99556705Y-123666130D01*
X149236255Y-126997547D02*
X149236255Y-127190738D01*
X105924774Y-136218307D02*
X105768371Y-136077570D01*
X125512997Y-55221859D02*
X125847752Y-55086118D01*
X100646218Y-116487398D02*
X100645160Y-116263505D01*
X107265516Y-105538628D02*
X107886538Y-105181590D01*
X100814620Y-114777173D02*
X100917881Y-114324417D01*
X172950130Y-124679258D02*
X172901833Y-124824149D01*
X98061954Y-126258146D02*
X98137419Y-125983456D01*
X180136520Y-54909307D02*
X181978126Y-55374780D01*
X121271609Y-66143168D02*
X120981824Y-65901681D01*
X101321723Y-132777614D02*
X100897332Y-132364918D01*
X100986943Y-118352491D02*
X100890349Y-117772925D01*
X145371914Y-53923982D02*
X145922614Y-53856817D01*
X113914101Y-103620131D02*
X114220297Y-102897373D01*
X158296024Y-51109866D02*
X158477562Y-50937570D01*
X192678868Y-88618312D02*
X192819546Y-90647812D01*
X186036062Y-61809164D02*
X186116349Y-62299301D01*
X149581699Y-51192546D02*
X149815260Y-51026147D01*
X134169970Y-55904158D02*
X134269678Y-55966417D01*
X149719227Y-127866898D02*
X150114660Y-128211018D01*
X132917262Y-55137439D02*
X133056306Y-55226299D01*
X178781696Y-118355341D02*
X178827156Y-118612915D01*
X178802784Y-111354202D02*
X178455991Y-111494108D01*
X97634626Y-126934119D02*
X97944218Y-126369835D01*
X118663739Y-144770977D02*
X118663739Y-144867573D01*
X114069303Y-76454630D02*
X114413422Y-75223051D01*
X120981832Y-66915923D02*
X120990881Y-66801218D01*
X183781153Y-107965391D02*
X182609553Y-108741167D01*
X152037416Y-119414869D02*
X152037416Y-119511462D01*
X152876938Y-120457421D02*
X153199568Y-120839651D01*
X100214189Y-122506055D02*
X100310783Y-122457758D01*
X121141807Y-64235427D02*
X121231800Y-63569831D01*
X187874358Y-63574184D02*
X187992097Y-63671722D01*
X114724320Y-74438218D02*
X114775520Y-74311356D01*
X111976763Y-105311481D02*
X111979144Y-104610248D01*
X190241608Y-67873276D02*
X190310850Y-69143190D01*
X179928491Y-110128770D02*
X179727200Y-110527140D01*
X98475487Y-125452187D02*
X98620378Y-125403890D01*
X150202117Y-126900953D02*
X149957614Y-126577966D01*
X127562682Y-54386277D02*
X128310158Y-54086153D01*
X178842396Y-118738695D02*
X178600909Y-118980182D01*
X177296882Y-120235912D02*
X177257348Y-120323105D01*
X113545031Y-79795334D02*
X113650870Y-79348504D01*
X117746091Y-144819342D02*
X117746091Y-144722748D01*
X102001188Y-133421231D02*
X102001188Y-133324637D01*
X113399339Y-142114698D02*
X113399339Y-142018102D01*
X172605056Y-53040761D02*
X172878976Y-53109564D01*
X157319443Y-51989097D02*
X157427358Y-51897220D01*
X118905052Y-68413137D02*
X118953349Y-68316543D01*
X115524419Y-143322136D02*
X115093704Y-143078384D01*
X111950368Y-98609649D02*
X111842135Y-96503105D01*
X173965788Y-123716610D02*
X173674590Y-124003095D01*
X151409553Y-118787005D02*
X151494071Y-118817189D01*
X101513524Y-113255994D02*
X101798866Y-113024702D01*
X141991366Y-138492271D02*
X141843835Y-138497933D01*
X178770266Y-118254061D02*
X178781696Y-118355341D01*
X152182307Y-119656353D02*
X152327201Y-119704650D01*
X114413422Y-75223051D02*
X114510016Y-75223051D01*
X125377057Y-142983938D02*
X125237399Y-142986584D01*
X178021316Y-112315162D02*
X178054878Y-112416571D01*
X105526814Y-107340719D02*
X105593222Y-107192809D01*
X160325825Y-124678374D02*
X159443885Y-124395133D01*
X106782615Y-137719676D02*
X106830912Y-137574785D01*
X112046923Y-99178484D02*
X112008246Y-98953789D01*
X114510016Y-75223051D02*
X114523774Y-75081930D01*
X152718484Y-117068869D02*
X152520388Y-117144897D01*
X193073123Y-78962895D02*
X193041267Y-79105088D01*
X101528119Y-132973821D02*
X101424638Y-132874870D01*
X115790822Y-72333704D02*
X115865342Y-72195417D01*
X158750741Y-124147989D02*
X158603400Y-123705574D01*
X156139294Y-117810292D02*
X156040059Y-117226389D01*
X103368719Y-109602199D02*
X103661332Y-109200163D01*
X167878921Y-126852633D02*
X167743843Y-126913759D01*
X149874476Y-136644293D02*
X149719158Y-137912721D01*
X103450105Y-134532070D02*
X103208618Y-134387176D01*
X145544232Y-139554826D02*
X145414906Y-139530670D01*
X131350431Y-54152063D02*
X132144129Y-54636168D01*
X147016660Y-52873138D02*
X147207207Y-52813143D01*
X105913193Y-106761152D02*
X106058084Y-106761152D01*
X118313584Y-144870563D02*
X118213784Y-144871886D01*
X102822168Y-110383447D02*
X102918764Y-110335150D01*
X101425392Y-119171656D02*
X101321252Y-118991295D01*
X130979535Y-142887341D02*
X130544860Y-143032235D01*
X102162036Y-112617570D02*
X102315039Y-111340335D01*
X112745348Y-92726842D02*
X112143519Y-91837303D01*
X160189028Y-49943132D02*
X160649807Y-50047934D01*
X187992097Y-63671722D02*
X188115843Y-63776428D01*
X112008246Y-98953789D02*
X111968439Y-98716644D01*
X149957614Y-126577966D02*
X149565197Y-125910860D01*
X193300003Y-76633721D02*
X193300003Y-76974689D01*
X184589745Y-107340547D02*
X184493146Y-107340547D01*
X178054878Y-112416571D02*
X178240542Y-113313934D01*
X191070520Y-70454360D02*
X191146615Y-70559172D01*
X151104565Y-132733030D02*
X150959050Y-132955544D01*
X178410740Y-119167335D02*
X178310561Y-119267324D01*
X150347090Y-128446465D02*
X150347090Y-128591358D01*
X117021633Y-144384667D02*
X117021633Y-144288073D01*
X184158607Y-55921599D02*
X184976539Y-56242060D01*
X165278229Y-126259292D02*
X164297332Y-125946042D01*
X178258560Y-113459460D02*
X178411454Y-114880286D01*
X115651591Y-72589908D02*
X115790822Y-72333704D01*
X149477451Y-138540584D02*
X149459327Y-138655291D01*
X112626441Y-81549991D02*
X112674855Y-81439694D01*
X192984911Y-74438046D02*
X193025551Y-74579659D01*
X154085506Y-121818621D02*
X154147402Y-122074248D01*
X112480228Y-100693133D02*
X112046923Y-99178484D01*
X192946335Y-79521332D02*
X192892757Y-79757912D01*
X118615267Y-68702921D02*
X118615267Y-68606327D01*
X101628581Y-133068624D02*
X101528119Y-132973821D01*
X100742360Y-115267506D02*
X100768210Y-115095257D01*
X150443608Y-117579573D02*
X150854135Y-118035378D01*
X183913577Y-107871816D02*
X183781153Y-107965391D01*
X149500761Y-125805646D02*
X149236173Y-125500333D01*
X151264662Y-118642112D02*
X151409553Y-118642112D01*
X113109557Y-141873224D02*
X112772983Y-141770780D01*
X110694618Y-105457126D02*
X110887808Y-105505425D01*
X160055149Y-49915115D02*
X160189028Y-49943132D01*
X103661332Y-109200163D02*
X103981303Y-108886233D01*
X171486410Y-52761446D02*
X172024495Y-52895548D01*
X137605802Y-54927442D02*
X139241748Y-54170928D01*
X150673096Y-128790579D02*
X151017216Y-129137714D01*
M02*
