M48
; DRILL file {KiCad 9.0.0} date 2025-12-18T00:51:24+0800
; FORMAT={-:-/ absolute / inch / decimal}
; #@! TF.CreationDate,2025-12-18T00:51:24+08:00
; #@! TF.GenerationSoftware,Kicad,Pcbnew,9.0.0
; #@! TF.FileFunction,Plated,1,2,PTH
FMAT,2
INCH
; #@! TA.AperFunction,Plated,PTH,ViaDrill
T1C0.0118
; #@! TA.AperFunction,Plated,PTH,ComponentDrill
T2C0.0236
; #@! TA.AperFunction,Plated,PTH,ComponentDrill
T3C0.0354
; #@! TA.AperFunction,Plated,PTH,ComponentDrill
T4C0.0394
; #@! TA.AperFunction,Plated,PTH,ComponentDrill
T5C0.1260
%
G90
G05
T1
X4.2515Y-4.5574
X4.5177Y-3.5453
X4.5568Y-2.9663
X4.56Y-4.2046
X4.5669Y-3.1879
X4.637Y-3.1561
X4.6594Y-3.0315
X4.7047Y-3.1796
X4.7549Y-2.9273
X4.7566Y-4.5801
X4.7668Y-4.0784
X4.9409Y-3.4449
X4.9699Y-4.0089
X5.0462Y-3.9327
X5.0808Y-3.2363
X5.0851Y-3.7646
X5.0985Y-4.0325
X5.118Y-3.3546
X5.1296Y-2.6657
X5.295Y-2.6583
X5.3881Y-2.6458
X5.419Y-2.9273
X5.5687Y-3.192
X5.6315Y-3.963
X5.7256Y-4.0718
X5.73Y-4.1105
X5.9436Y-4.195
X5.9727Y-3.2997
X6.0372Y-3.0827
X6.0382Y-4.4878
X6.1376Y-2.2408
X6.2788Y-2.1246
X6.3315Y-3.5721
X6.3509Y-2.124
X6.3637Y-2.9868
X6.3886Y-2.0464
X6.4254Y-4.5607
X6.4418Y-2.0582
X6.4456Y-3.7771
X6.4852Y-3.017
X6.4893Y-3.3897
X6.4921Y-2.0718
X6.5157Y-2.8356
X6.5182Y-2.893
X6.563Y-3.7992
X6.5648Y-3.1102
X6.582Y-3.8436
X6.5959Y-3.7997
X6.6501Y-2.1202
X6.6634Y-4.0689
X6.6689Y-3.8019
X6.6915Y-2.9506
X6.7017Y-3.6939
X6.7146Y-2.3799
X6.7346Y-3.6944
X6.7689Y-3.6936
X6.7855Y-2.94
X6.7992Y-2.5591
X6.8071Y-3.4646
X6.8092Y-2.1484
X6.8199Y-3.1231
X6.8708Y-2.1476
X6.908Y-3.9342
X6.9099Y-2.9129
X6.9463Y-2.9159
X6.9714Y-2.5903
X6.993Y-2.2079
X7.0536Y-3.9073
X7.0664Y-3.9757
X7.1063Y-4.1142
X7.4409Y-3.1496
T3
X4.6806Y-2.864
X4.7641Y-2.7805
T4
X5.1866Y-3.0629
X5.2866Y-3.0629
T5
X5.981Y-2.164
T2
G00X4.8399Y-2.3083
M15
G01X4.8522Y-2.3373
M16
G05
G00X4.9019Y-2.4543
M15
G01X4.9188Y-2.4942
M16
G05
G00X5.153Y-2.1754
M15
G01X5.1653Y-2.2044
M16
G05
G00X5.215Y-2.3214
M15
G01X5.2319Y-2.3613
M16
G05
M30
