%TF.GenerationSoftware,KiCad,Pcbnew,9.0.0*%
%TF.CreationDate,2025-12-18T00:51:24+08:00*%
%TF.ProjectId,hnr26-badge,686e7232-362d-4626-9164-67652e6b6963,0.0.14*%
%TF.SameCoordinates,Original*%
%TF.FileFunction,Soldermask,Top*%
%TF.FilePolarity,Negative*%
%FSLAX46Y46*%
G04 Gerber Fmt 4.6, Leading zero omitted, Abs format (unit mm)*
G04 Created by KiCad (PCBNEW 9.0.0) date 2025-12-18 00:51:24*
%MOMM*%
%LPD*%
G01*
G04 APERTURE LIST*
G04 Aperture macros list*
%AMRoundRect*
0 Rectangle with rounded corners*
0 $1 Rounding radius*
0 $2 $3 $4 $5 $6 $7 $8 $9 X,Y pos of 4 corners*
0 Add a 4 corners polygon primitive as box body*
4,1,4,$2,$3,$4,$5,$6,$7,$8,$9,$2,$3,0*
0 Add four circle primitives for the rounded corners*
1,1,$1+$1,$2,$3*
1,1,$1+$1,$4,$5*
1,1,$1+$1,$6,$7*
1,1,$1+$1,$8,$9*
0 Add four rect primitives between the rounded corners*
20,1,$1+$1,$2,$3,$4,$5,0*
20,1,$1+$1,$4,$5,$6,$7,0*
20,1,$1+$1,$6,$7,$8,$9,0*
20,1,$1+$1,$8,$9,$2,$3,0*%
%AMHorizOval*
0 Thick line with rounded ends*
0 $1 width*
0 $2 $3 position (X,Y) of the first rounded end (center of the circle)*
0 $4 $5 position (X,Y) of the second rounded end (center of the circle)*
0 Add line between two ends*
20,1,$1,$2,$3,$4,$5,0*
0 Add two circle primitives to create the rounded ends*
1,1,$1,$2,$3*
1,1,$1,$4,$5*%
G04 Aperture macros list end*
%ADD10C,0.900000*%
%ADD11R,1.000000X0.750000*%
%ADD12RoundRect,0.243750X-0.243750X-0.456250X0.243750X-0.456250X0.243750X0.456250X-0.243750X0.456250X0*%
%ADD13R,1.020000X2.400000*%
%ADD14RoundRect,0.250000X0.475000X-0.250000X0.475000X0.250000X-0.475000X0.250000X-0.475000X-0.250000X0*%
%ADD15RoundRect,0.243750X0.243750X0.456250X-0.243750X0.456250X-0.243750X-0.456250X0.243750X-0.456250X0*%
%ADD16RoundRect,0.243750X0.456250X-0.243750X0.456250X0.243750X-0.456250X0.243750X-0.456250X-0.243750X0*%
%ADD17C,5.600000*%
%ADD18RoundRect,0.250000X-0.475000X0.250000X-0.475000X-0.250000X0.475000X-0.250000X0.475000X0.250000X0*%
%ADD19HorizOval,1.000000X-0.156292X0.368202X0.156292X-0.368202X0*%
%ADD20HorizOval,1.000000X-0.214902X0.506278X0.214902X-0.506278X0*%
%ADD21R,1.700000X1.700000*%
%ADD22C,1.700000*%
G04 APERTURE END LIST*
D10*
%TO.C,SW9*%
X118887506Y-72745686D03*
X121008827Y-70624365D03*
%TD*%
D11*
%TO.C,SW1*%
X172204532Y-104852072D03*
X166204532Y-104852072D03*
X172204532Y-101102072D03*
X166204532Y-101102072D03*
%TD*%
D12*
%TO.C,D6*%
X169509892Y-86615976D03*
X171384892Y-86615976D03*
%TD*%
D13*
%TO.C,U7*%
X176646687Y-97363477D03*
X176646687Y-102763477D03*
X179186687Y-97363477D03*
X179186687Y-102763477D03*
X181726687Y-97363477D03*
X181726687Y-102763477D03*
%TD*%
D14*
%TO.C,C2*%
X115777721Y-78806413D03*
X115777721Y-76906413D03*
%TD*%
D15*
%TO.C,D1*%
X149377514Y-80866736D03*
X147502514Y-80866736D03*
%TD*%
D12*
%TO.C,D2*%
X151415882Y-68654414D03*
X153290882Y-68654414D03*
%TD*%
D16*
%TO.C,D9*%
X183051872Y-84574129D03*
X183051872Y-82699129D03*
%TD*%
D17*
%TO.C,H1*%
X151918504Y-54966296D03*
%TD*%
D11*
%TO.C,SW4*%
X173518168Y-115981325D03*
X167518168Y-115981325D03*
X173518168Y-112231325D03*
X167518168Y-112231325D03*
%TD*%
D12*
%TO.C,D3*%
X154593581Y-89088326D03*
X156468581Y-89088326D03*
%TD*%
D18*
%TO.C,C10*%
X128148853Y-74314323D03*
X128148853Y-76214323D03*
%TD*%
D12*
%TO.C,D5*%
X166103805Y-70433148D03*
X167978805Y-70433148D03*
%TD*%
%TO.C,D4*%
X156686171Y-55587307D03*
X158561171Y-55587307D03*
%TD*%
D16*
%TO.C,D10*%
X185927470Y-71511590D03*
X185927470Y-69636590D03*
%TD*%
D11*
%TO.C,SW2*%
X165804722Y-122403056D03*
X159804722Y-122403056D03*
X165804722Y-118653056D03*
X159804722Y-118653056D03*
%TD*%
D12*
%TO.C,D8*%
X177614030Y-62867329D03*
X179489030Y-62867329D03*
%TD*%
%TO.C,D7*%
X165845413Y-53741365D03*
X167720413Y-53741365D03*
%TD*%
D11*
%TO.C,SW3*%
X163444828Y-112181446D03*
X157444828Y-112181446D03*
X163444828Y-108431446D03*
X157444828Y-108431446D03*
%TD*%
D19*
%TO.C,J1*%
X123090073Y-58998406D03*
D20*
X124723329Y-62846116D03*
D19*
X131043235Y-55622489D03*
D20*
X132676491Y-59470199D03*
%TD*%
D21*
%TO.C,J2*%
X131739056Y-77798673D03*
D22*
X134279056Y-77798673D03*
%TD*%
M02*
