%TF.GenerationSoftware,KiCad,Pcbnew,9.0.0*%
%TF.CreationDate,2025-12-18T00:51:24+08:00*%
%TF.ProjectId,hnr26-badge,686e7232-362d-4626-9164-67652e6b6963,0.0.14*%
%TF.SameCoordinates,Original*%
%TF.FileFunction,Copper,L1,Top*%
%TF.FilePolarity,Positive*%
%FSLAX46Y46*%
G04 Gerber Fmt 4.6, Leading zero omitted, Abs format (unit mm)*
G04 Created by KiCad (PCBNEW 9.0.0) date 2025-12-18 00:51:24*
%MOMM*%
%LPD*%
G01*
G04 APERTURE LIST*
G04 Aperture macros list*
%AMRoundRect*
0 Rectangle with rounded corners*
0 $1 Rounding radius*
0 $2 $3 $4 $5 $6 $7 $8 $9 X,Y pos of 4 corners*
0 Add a 4 corners polygon primitive as box body*
4,1,4,$2,$3,$4,$5,$6,$7,$8,$9,$2,$3,0*
0 Add four circle primitives for the rounded corners*
1,1,$1+$1,$2,$3*
1,1,$1+$1,$4,$5*
1,1,$1+$1,$6,$7*
1,1,$1+$1,$8,$9*
0 Add four rect primitives between the rounded corners*
20,1,$1+$1,$2,$3,$4,$5,0*
20,1,$1+$1,$4,$5,$6,$7,0*
20,1,$1+$1,$6,$7,$8,$9,0*
20,1,$1+$1,$8,$9,$2,$3,0*%
%AMHorizOval*
0 Thick line with rounded ends*
0 $1 width*
0 $2 $3 position (X,Y) of the first rounded end (center of the circle)*
0 $4 $5 position (X,Y) of the second rounded end (center of the circle)*
0 Add line between two ends*
20,1,$1,$2,$3,$4,$5,0*
0 Add two circle primitives to create the rounded ends*
1,1,$1,$2,$3*
1,1,$1,$4,$5*%
G04 Aperture macros list end*
%TA.AperFunction,ComponentPad*%
%ADD10C,0.900000*%
%TD*%
%TA.AperFunction,SMDPad,CuDef*%
%ADD11R,1.000000X0.750000*%
%TD*%
%TA.AperFunction,SMDPad,CuDef*%
%ADD12RoundRect,0.243750X-0.243750X-0.456250X0.243750X-0.456250X0.243750X0.456250X-0.243750X0.456250X0*%
%TD*%
%TA.AperFunction,SMDPad,CuDef*%
%ADD13R,1.020000X2.400000*%
%TD*%
%TA.AperFunction,SMDPad,CuDef*%
%ADD14RoundRect,0.250000X0.475000X-0.250000X0.475000X0.250000X-0.475000X0.250000X-0.475000X-0.250000X0*%
%TD*%
%TA.AperFunction,SMDPad,CuDef*%
%ADD15RoundRect,0.243750X0.243750X0.456250X-0.243750X0.456250X-0.243750X-0.456250X0.243750X-0.456250X0*%
%TD*%
%TA.AperFunction,SMDPad,CuDef*%
%ADD16RoundRect,0.243750X0.456250X-0.243750X0.456250X0.243750X-0.456250X0.243750X-0.456250X-0.243750X0*%
%TD*%
%TA.AperFunction,ComponentPad*%
%ADD17C,5.600000*%
%TD*%
%TA.AperFunction,SMDPad,CuDef*%
%ADD18RoundRect,0.250000X-0.475000X0.250000X-0.475000X-0.250000X0.475000X-0.250000X0.475000X0.250000X0*%
%TD*%
%TA.AperFunction,HeatsinkPad*%
%ADD19HorizOval,1.000000X-0.156292X0.368202X0.156292X-0.368202X0*%
%TD*%
%TA.AperFunction,HeatsinkPad*%
%ADD20HorizOval,1.000000X-0.214902X0.506278X0.214902X-0.506278X0*%
%TD*%
%TA.AperFunction,ComponentPad*%
%ADD21R,1.700000X1.700000*%
%TD*%
%TA.AperFunction,ComponentPad*%
%ADD22C,1.700000*%
%TD*%
%TA.AperFunction,ViaPad*%
%ADD23C,0.600000*%
%TD*%
%TA.AperFunction,Conductor*%
%ADD24C,0.500000*%
%TD*%
%TA.AperFunction,Conductor*%
%ADD25C,0.200000*%
%TD*%
G04 APERTURE END LIST*
D10*
%TO.P,SW9,*%
%TO.N,*%
X118887506Y-72745686D03*
X121008827Y-70624365D03*
%TD*%
D11*
%TO.P,SW1,1,1*%
%TO.N,+3V3*%
X172204532Y-104852072D03*
X166204532Y-104852072D03*
%TO.P,SW1,2,2*%
%TO.N,/BTN_U*%
X172204532Y-101102072D03*
X166204532Y-101102072D03*
%TD*%
D12*
%TO.P,D6,1,K*%
%TO.N,GND*%
X169509892Y-86615976D03*
%TO.P,D6,2,A*%
%TO.N,Net-(D6-A)*%
X171384892Y-86615976D03*
%TD*%
D13*
%TO.P,U7,1,1*%
%TO.N,+3V3*%
X176646687Y-97363477D03*
%TO.P,U7,2,2*%
%TO.N,GND*%
X176646687Y-102763477D03*
%TO.P,U7,3,3*%
%TO.N,/Microcontroller unit/IO_SDA*%
X179186687Y-97363477D03*
%TO.P,U7,4,4*%
%TO.N,/Microcontroller unit/IO_SCL*%
X179186687Y-102763477D03*
%TO.P,U7,5,5*%
%TO.N,/Debug connectors/EXT_0*%
X181726687Y-97363477D03*
%TO.P,U7,6,6*%
%TO.N,/Debug connectors/EXT_1*%
X181726687Y-102763477D03*
%TD*%
D14*
%TO.P,C2,1*%
%TO.N,+3V3*%
X115777721Y-78806413D03*
%TO.P,C2,2*%
%TO.N,GND*%
X115777721Y-76906413D03*
%TD*%
D15*
%TO.P,D1,1,K*%
%TO.N,GND*%
X149377514Y-80866736D03*
%TO.P,D1,2,A*%
%TO.N,Net-(D1-A)*%
X147502514Y-80866736D03*
%TD*%
D12*
%TO.P,D2,1,K*%
%TO.N,GND*%
X151415882Y-68654414D03*
%TO.P,D2,2,A*%
%TO.N,Net-(D2-A)*%
X153290882Y-68654414D03*
%TD*%
D16*
%TO.P,D9,1,K*%
%TO.N,GND*%
X183051872Y-84574129D03*
%TO.P,D9,2,A*%
%TO.N,Net-(D9-A)*%
X183051872Y-82699129D03*
%TD*%
D17*
%TO.P,H1,1*%
%TO.N,N/C*%
X151918504Y-54966296D03*
%TD*%
D11*
%TO.P,SW4,1,1*%
%TO.N,+3V3*%
X173518168Y-115981325D03*
X167518168Y-115981325D03*
%TO.P,SW4,2,2*%
%TO.N,/BTN_R*%
X173518168Y-112231325D03*
X167518168Y-112231325D03*
%TD*%
D12*
%TO.P,D3,1,K*%
%TO.N,GND*%
X154593581Y-89088326D03*
%TO.P,D3,2,A*%
%TO.N,Net-(D3-A)*%
X156468581Y-89088326D03*
%TD*%
D18*
%TO.P,C10,1*%
%TO.N,Net-(D13-K)*%
X128148853Y-74314323D03*
%TO.P,C10,2*%
%TO.N,GND*%
X128148853Y-76214323D03*
%TD*%
D12*
%TO.P,D5,1,K*%
%TO.N,GND*%
X166103805Y-70433148D03*
%TO.P,D5,2,A*%
%TO.N,Net-(D5-A)*%
X167978805Y-70433148D03*
%TD*%
%TO.P,D4,1,K*%
%TO.N,GND*%
X156686171Y-55587307D03*
%TO.P,D4,2,A*%
%TO.N,Net-(D4-A)*%
X158561171Y-55587307D03*
%TD*%
D16*
%TO.P,D10,1,K*%
%TO.N,GND*%
X185927470Y-71511590D03*
%TO.P,D10,2,A*%
%TO.N,Net-(D10-A)*%
X185927470Y-69636590D03*
%TD*%
D11*
%TO.P,SW2,1,1*%
%TO.N,+3V3*%
X165804722Y-122403056D03*
X159804722Y-122403056D03*
%TO.P,SW2,2,2*%
%TO.N,/BTN_D*%
X165804722Y-118653056D03*
X159804722Y-118653056D03*
%TD*%
D12*
%TO.P,D8,1,K*%
%TO.N,GND*%
X177614030Y-62867329D03*
%TO.P,D8,2,A*%
%TO.N,Net-(D8-A)*%
X179489030Y-62867329D03*
%TD*%
%TO.P,D7,1,K*%
%TO.N,GND*%
X165845413Y-53741365D03*
%TO.P,D7,2,A*%
%TO.N,Net-(D7-A)*%
X167720413Y-53741365D03*
%TD*%
D11*
%TO.P,SW3,1,1*%
%TO.N,+3V3*%
X163444828Y-112181446D03*
X157444828Y-112181446D03*
%TO.P,SW3,2,2*%
%TO.N,/BTN_L*%
X163444828Y-108431446D03*
X157444828Y-108431446D03*
%TD*%
D19*
%TO.P,J1,S1,SHIELD*%
%TO.N,GND*%
X123090073Y-58998406D03*
D20*
X124723329Y-62846116D03*
D19*
X131043235Y-55622489D03*
D20*
X132676491Y-59470199D03*
%TD*%
D21*
%TO.P,J2,1,Pin_1*%
%TO.N,/Debug connectors/BOOT_IS_SPI*%
X131739056Y-77798673D03*
D22*
%TO.P,J2,2,Pin_2*%
%TO.N,GND*%
X134279056Y-77798673D03*
%TD*%
D23*
%TO.N,GND*%
X125500000Y-87500000D03*
X170550752Y-60449248D03*
X177072572Y-65794776D03*
X172700000Y-65000000D03*
X143041060Y-100659379D03*
X153369612Y-113990279D03*
X166745556Y-79000000D03*
X134492187Y-67520941D03*
X180500000Y-104500000D03*
X169250000Y-103350000D03*
X115741641Y-75342873D03*
X189000000Y-80000000D03*
X136858835Y-67203795D03*
X150967943Y-106552849D03*
X130292683Y-67708367D03*
X114750000Y-90050000D03*
X163205932Y-115841915D03*
X169963554Y-74945346D03*
X165500000Y-72025000D03*
X115824890Y-106797187D03*
%TO.N,+3V3*%
X175462197Y-99928842D03*
X129160449Y-95621910D03*
X121077236Y-103592278D03*
X164827045Y-86099014D03*
X151705774Y-83812289D03*
X164723938Y-76630712D03*
X153345643Y-78300000D03*
X161637579Y-75863858D03*
X118350000Y-77000000D03*
X160820260Y-90730652D03*
X141444338Y-81077049D03*
%TO.N,/EN*%
X165562830Y-73481849D03*
X129052078Y-82203217D03*
X115998731Y-80972256D03*
X129996729Y-85205826D03*
%TO.N,Net-(D13-K)*%
X120775287Y-74353672D03*
X137642911Y-74353672D03*
%TO.N,Net-(D1-A)*%
X155893773Y-56915055D03*
%TO.N,Net-(D2-A)*%
X159481412Y-53965614D03*
%TO.N,Net-(D3-A)*%
X161313660Y-53948671D03*
%TO.N,Net-(D4-A)*%
X162269508Y-51979453D03*
%TO.N,Net-(D5-A)*%
X163622490Y-52277109D03*
%TO.N,Net-(D6-A)*%
X164898547Y-52622508D03*
%TO.N,Net-(D7-A)*%
X168912204Y-53852470D03*
%TO.N,Net-(D8-A)*%
X172954639Y-54570111D03*
%TO.N,Net-(D9-A)*%
X174517170Y-54549013D03*
%TO.N,Net-(D10-A)*%
X177622898Y-56081232D03*
%TO.N,/Debug connectors/EXT_1*%
X119500000Y-80762389D03*
%TO.N,/Debug connectors/EXT_0*%
X117780375Y-80165584D03*
%TO.N,/Debug connectors/UART_TX*%
X145429698Y-103423655D03*
X129501428Y-102424965D03*
%TO.N,/Debug connectors/UART_RX*%
X126235403Y-101824965D03*
X145542686Y-104406656D03*
%TO.N,/BTN_L*%
X173225945Y-79325945D03*
X172900000Y-88000000D03*
X166700000Y-96500000D03*
%TO.N,/BTN_R*%
X167535520Y-96513010D03*
X170224265Y-93824265D03*
X172352831Y-74675188D03*
%TO.N,/BTN_U*%
X171929085Y-93816505D03*
X169389410Y-96567986D03*
X176435509Y-74064491D03*
%TO.N,/BTN_D*%
X175511245Y-73988755D03*
X171058334Y-93838726D03*
X167182981Y-97627121D03*
%TO.N,/Microcontroller unit/IO_SCL*%
X179487554Y-100983484D03*
%TO.N,/Microcontroller unit/IO_SDA*%
X179161783Y-99246536D03*
%TO.N,/Microcontroller unit/IO_~{INT}*%
X163719202Y-95938304D03*
X128173797Y-99890119D03*
%TO.N,Net-(U3-LB)*%
X120817918Y-116334280D03*
X107989266Y-115756877D03*
%TD*%
D24*
%TO.N,GND*%
X115777721Y-75378953D02*
X115741641Y-75342873D01*
X115777721Y-76906413D02*
X115777721Y-75378953D01*
D25*
X170550752Y-60449248D02*
X165845413Y-55743909D01*
X165845413Y-55743909D02*
X165845413Y-53741365D01*
D24*
%TO.N,+3V3*%
X161637579Y-75863858D02*
X163957084Y-75863858D01*
X115247731Y-81709192D02*
X129160449Y-95621910D01*
X116521249Y-78806413D02*
X115777721Y-78806413D01*
X141444338Y-81077049D02*
X141417289Y-81050000D01*
X151705774Y-83812289D02*
X153345643Y-82172420D01*
X129160449Y-97470334D02*
X129160449Y-95621910D01*
X176646687Y-98744352D02*
X175462197Y-99928842D01*
X174600000Y-115053026D02*
X173610146Y-116042880D01*
X160939741Y-90730652D02*
X164827045Y-86843348D01*
X167253069Y-122462327D02*
X159863993Y-122462327D01*
X126800031Y-77010736D02*
X118316926Y-77010736D01*
X158903722Y-114977047D02*
X159283504Y-114597265D01*
X176646687Y-97363477D02*
X176646687Y-98744352D01*
D25*
X166204532Y-104852072D02*
X172204532Y-104852072D01*
D24*
X153345643Y-82172420D02*
X153345643Y-78300000D01*
X163957084Y-75863858D02*
X164723938Y-76630712D01*
X175462197Y-99928842D02*
X174600000Y-100791039D01*
X159283504Y-114020122D02*
X161122180Y-112181446D01*
X115247731Y-79336403D02*
X115247731Y-81709192D01*
X159863993Y-122462327D02*
X158903722Y-121502056D01*
X158903722Y-121502056D02*
X158903722Y-114977047D01*
X174600000Y-100791039D02*
X174600000Y-104799701D01*
X130839295Y-81050000D02*
X126800031Y-77010736D01*
X167253069Y-116246424D02*
X167253069Y-122462327D01*
X159283504Y-114020122D02*
X157444828Y-112181446D01*
X161122180Y-112181446D02*
X163444828Y-112181446D01*
X174600000Y-104799701D02*
X174600000Y-115053026D01*
X115780917Y-78803217D02*
X115247731Y-79336403D01*
X164827045Y-86843348D02*
X164827045Y-86099014D01*
D25*
X174547629Y-104852072D02*
X174600000Y-104799701D01*
X172204532Y-104852072D02*
X174547629Y-104852072D01*
D24*
X118316926Y-77010736D02*
X116521249Y-78806413D01*
X160820260Y-90730652D02*
X160939741Y-90730652D01*
X173610146Y-116042880D02*
X167456613Y-116042880D01*
X123038505Y-103592278D02*
X129160449Y-97470334D01*
X159283504Y-114597265D02*
X159283504Y-114020122D01*
X167456613Y-116042880D02*
X167253069Y-116246424D01*
X141417289Y-81050000D02*
X130839295Y-81050000D01*
X121077236Y-103592278D02*
X123038505Y-103592278D01*
D25*
%TO.N,/EN*%
X129996729Y-85205826D02*
X129996729Y-83127337D01*
X157209097Y-92000000D02*
X136790903Y-92000000D01*
X129996729Y-83127337D02*
X129072609Y-82203217D01*
X165580981Y-83628116D02*
X157209097Y-92000000D01*
X126292852Y-79443991D02*
X129052078Y-82203217D01*
X115998731Y-80972256D02*
X117526996Y-79443991D01*
X165580981Y-73500000D02*
X165580981Y-83628116D01*
X136790903Y-92000000D02*
X129996729Y-85205826D01*
X129072609Y-82203217D02*
X129052078Y-82203217D01*
X117526996Y-79443991D02*
X126292852Y-79443991D01*
D24*
%TO.N,Net-(D13-K)*%
X120775287Y-74353672D02*
X137642911Y-74353672D01*
D25*
%TO.N,Net-(D1-A)*%
X155893773Y-56915055D02*
X147502514Y-65306314D01*
X147502514Y-65306314D02*
X147502514Y-80866736D01*
%TO.N,Net-(D2-A)*%
X159481412Y-53965614D02*
X159481412Y-56245836D01*
X159481412Y-56245836D02*
X153290882Y-62436366D01*
X153290882Y-62436366D02*
X153290882Y-68654414D01*
%TO.N,Net-(D3-A)*%
X156468581Y-62055239D02*
X156468581Y-89088326D01*
X161313660Y-57210160D02*
X156468581Y-62055239D01*
X161313660Y-53948671D02*
X161313660Y-57210160D01*
%TO.N,Net-(D4-A)*%
X162269508Y-51979453D02*
X161323448Y-52925513D01*
X161323448Y-52925513D02*
X159232469Y-52925513D01*
X158561171Y-53596811D02*
X158561171Y-55587307D01*
X159232469Y-52925513D02*
X158561171Y-53596811D01*
%TO.N,Net-(D5-A)*%
X163622490Y-52277109D02*
X163622490Y-55300659D01*
X167978805Y-59656974D02*
X167978805Y-70433148D01*
X163622490Y-55300659D02*
X167978805Y-59656974D01*
%TO.N,Net-(D6-A)*%
X164898547Y-52622508D02*
X166391951Y-52622508D01*
X171384892Y-59251286D02*
X171384892Y-86615976D01*
X166391951Y-52622508D02*
X166818733Y-53049290D01*
X166818733Y-53049290D02*
X166818733Y-54685127D01*
X166818733Y-54685127D02*
X171384892Y-59251286D01*
%TO.N,Net-(D7-A)*%
X167849948Y-53870900D02*
X167720413Y-53741365D01*
X168912204Y-53852470D02*
X168893774Y-53870900D01*
X168893774Y-53870900D02*
X167849948Y-53870900D01*
%TO.N,Net-(D8-A)*%
X172954639Y-56332938D02*
X179489030Y-62867329D01*
X172954639Y-54570111D02*
X172954639Y-56332938D01*
%TO.N,Net-(D9-A)*%
X174517170Y-55802836D02*
X181587519Y-62873185D01*
X181587519Y-81234776D02*
X183051872Y-82699129D01*
X174517170Y-54549013D02*
X174517170Y-55802836D01*
X181587519Y-62873185D02*
X181587519Y-81234776D01*
%TO.N,Net-(D10-A)*%
X186052891Y-69511169D02*
X185927470Y-69636590D01*
X186052891Y-64511225D02*
X186052891Y-69511169D01*
X177622898Y-56081232D02*
X186052891Y-64511225D01*
%TO.N,/Debug connectors/EXT_1*%
X137666893Y-94189795D02*
X138759978Y-95282880D01*
X119500000Y-80762389D02*
X124159863Y-80762389D01*
X137770996Y-94293898D02*
X138759978Y-95282880D01*
X179567668Y-95282880D02*
X180383818Y-96099030D01*
X124159863Y-80762389D02*
X137587269Y-94189795D01*
X180383818Y-100213599D02*
X181726687Y-101556468D01*
X181726687Y-101556468D02*
X181726687Y-102763477D01*
X180383818Y-96099030D02*
X180383818Y-100213599D01*
X137587269Y-94189795D02*
X137666893Y-94189795D01*
X138759978Y-95282880D02*
X179567668Y-95282880D01*
%TO.N,/Debug connectors/EXT_0*%
X138895840Y-94954880D02*
X180432277Y-94954880D01*
X181590629Y-97227419D02*
X181726687Y-97363477D01*
X181590629Y-96113232D02*
X181590629Y-97227419D01*
X117784570Y-80161389D02*
X124102349Y-80161389D01*
X117780375Y-80165584D02*
X117784570Y-80161389D01*
X180432277Y-94954880D02*
X181590629Y-96113232D01*
X124102349Y-80161389D02*
X138895840Y-94954880D01*
%TO.N,/Debug connectors/UART_TX*%
X129501428Y-102424965D02*
X144431008Y-102424965D01*
X144431008Y-102424965D02*
X145429698Y-103423655D01*
%TO.N,/Debug connectors/UART_RX*%
X128817094Y-104406656D02*
X126235403Y-101824965D01*
X145542686Y-104406656D02*
X128817094Y-104406656D01*
%TO.N,/BTN_L*%
X172900000Y-79800000D02*
X172900000Y-88000000D01*
X173225945Y-79474055D02*
X172900000Y-79800000D01*
X166700000Y-96500000D02*
X163444828Y-99755172D01*
X173225945Y-79325945D02*
X173225945Y-79474055D01*
X163444828Y-99755172D02*
X163444828Y-108431446D01*
X163444828Y-108431446D02*
X157444828Y-108431446D01*
%TO.N,/BTN_R*%
X167783981Y-96761471D02*
X167783981Y-97926641D01*
X172299000Y-74729019D02*
X172352831Y-74675188D01*
X167518168Y-112231325D02*
X173518168Y-112231325D01*
X167783981Y-97926641D02*
X165099852Y-100610770D01*
X167535520Y-96513010D02*
X167783981Y-96761471D01*
X165099852Y-100610770D02*
X165099852Y-109813009D01*
X172299000Y-91749530D02*
X170224265Y-93824265D01*
X172299000Y-91749530D02*
X172299000Y-74729019D01*
X165099852Y-109813009D02*
X167518168Y-112231325D01*
%TO.N,/BTN_U*%
X172204532Y-101102072D02*
X172204532Y-99383108D01*
X174674863Y-91070727D02*
X171929085Y-93816505D01*
X166204532Y-101102072D02*
X172204532Y-101102072D01*
X172204532Y-99383108D02*
X169389410Y-96567986D01*
X176435509Y-74064491D02*
X174674863Y-75825137D01*
X174674863Y-75825137D02*
X174674863Y-91070727D01*
%TO.N,/BTN_D*%
X174150429Y-75349571D02*
X174150429Y-90746631D01*
X174150429Y-90746631D02*
X171058334Y-93838726D01*
X175511245Y-73988755D02*
X174150429Y-75349571D01*
X167182981Y-97627121D02*
X164771852Y-100038250D01*
X164771852Y-117620186D02*
X165804722Y-118653056D01*
X164771852Y-100038250D02*
X164771852Y-117620186D01*
X165804722Y-118653056D02*
X159804722Y-118653056D01*
%TO.N,/Microcontroller unit/IO_SCL*%
X179487554Y-102462610D02*
X179186687Y-102763477D01*
X179487554Y-100983484D02*
X179487554Y-102462610D01*
%TO.N,/Microcontroller unit/IO_SDA*%
X179186687Y-97363477D02*
X179186687Y-99221632D01*
X179186687Y-99221632D02*
X179161783Y-99246536D01*
%TO.N,/Microcontroller unit/IO_~{INT}*%
X132350137Y-95713779D02*
X163494677Y-95713779D01*
X163494677Y-95713779D02*
X163719202Y-95938304D01*
X128173797Y-99890119D02*
X132350137Y-95713779D01*
%TO.N,Net-(U3-LB)*%
X107989266Y-118159687D02*
X107989266Y-115756877D01*
X120817918Y-116334280D02*
X120817918Y-117127412D01*
X119177275Y-118768055D02*
X108597634Y-118768055D01*
X120817918Y-117127412D02*
X119177275Y-118768055D01*
X108597634Y-118768055D02*
X107989266Y-118159687D01*
%TD*%
%TA.AperFunction,Conductor*%
%TO.N,GND*%
G36*
X168602033Y-52545728D02*
G01*
X168913193Y-52619878D01*
X168914307Y-52620149D01*
X169081759Y-52661921D01*
X169083374Y-52662335D01*
X169546291Y-52784676D01*
X169555629Y-52787763D01*
X169558003Y-52788367D01*
X169558006Y-52788369D01*
X169619261Y-52803964D01*
X169620104Y-52804183D01*
X169681175Y-52820324D01*
X169681175Y-52820323D01*
X169683552Y-52820952D01*
X169693204Y-52822791D01*
X171022653Y-53161283D01*
X171023744Y-53161888D01*
X171086500Y-53177539D01*
X171149155Y-53193492D01*
X171149159Y-53193491D01*
X171153936Y-53194708D01*
X171159239Y-53195680D01*
X171301404Y-53231136D01*
X171301441Y-53231157D01*
X171363737Y-53246682D01*
X171429228Y-53263016D01*
X171429230Y-53263015D01*
X171437157Y-53264993D01*
X171437342Y-53265026D01*
X171746910Y-53342177D01*
X171904116Y-53381356D01*
X171904115Y-53381359D01*
X171904190Y-53381374D01*
X172378139Y-53499851D01*
X172484013Y-53526404D01*
X172484017Y-53526405D01*
X172484019Y-53526406D01*
X172484033Y-53526409D01*
X172679725Y-53575562D01*
X172739947Y-53610984D01*
X172771460Y-53673343D01*
X172764256Y-53742841D01*
X172720623Y-53797411D01*
X172696968Y-53810386D01*
X172575463Y-53860715D01*
X172575453Y-53860720D01*
X172444350Y-53948321D01*
X172444346Y-53948324D01*
X172332852Y-54059818D01*
X172332849Y-54059822D01*
X172245248Y-54190925D01*
X172245241Y-54190938D01*
X172184903Y-54336609D01*
X172184900Y-54336621D01*
X172154139Y-54491264D01*
X172154139Y-54648957D01*
X172184900Y-54803600D01*
X172184903Y-54803612D01*
X172245241Y-54949283D01*
X172245248Y-54949296D01*
X172333241Y-55080985D01*
X172354119Y-55147662D01*
X172354139Y-55149876D01*
X172354139Y-56246268D01*
X172354138Y-56246286D01*
X172354138Y-56411992D01*
X172354137Y-56411992D01*
X172378427Y-56502643D01*
X172395062Y-56564723D01*
X172410534Y-56591521D01*
X172416963Y-56602655D01*
X172416964Y-56602659D01*
X172474114Y-56701647D01*
X172474120Y-56701655D01*
X172592988Y-56820523D01*
X172592994Y-56820528D01*
X177250469Y-61478003D01*
X177283954Y-61539326D01*
X177278970Y-61609018D01*
X177237098Y-61664951D01*
X177201792Y-61683390D01*
X177053820Y-61732423D01*
X177053815Y-61732425D01*
X176905838Y-61823699D01*
X176782900Y-61946637D01*
X176691626Y-62094614D01*
X176691624Y-62094619D01*
X176636937Y-62259655D01*
X176626530Y-62361513D01*
X176626530Y-62617329D01*
X177490030Y-62617329D01*
X177557069Y-62637014D01*
X177602824Y-62689818D01*
X177614030Y-62741329D01*
X177614030Y-62867329D01*
X177740030Y-62867329D01*
X177807069Y-62887014D01*
X177852824Y-62939818D01*
X177864030Y-62991329D01*
X177864030Y-64067329D01*
X177907333Y-64067329D01*
X177907345Y-64067328D01*
X178009203Y-64056921D01*
X178174239Y-64002234D01*
X178174244Y-64002232D01*
X178322221Y-63910958D01*
X178445158Y-63788021D01*
X178445689Y-63787161D01*
X178446210Y-63786692D01*
X178449642Y-63782352D01*
X178450383Y-63782937D01*
X178497631Y-63740431D01*
X178566593Y-63729201D01*
X178630678Y-63757037D01*
X178652943Y-63782727D01*
X178653023Y-63782665D01*
X178654420Y-63784432D01*
X178656768Y-63787141D01*
X178657498Y-63788324D01*
X178657504Y-63788332D01*
X178780526Y-63911354D01*
X178780530Y-63911357D01*
X178928596Y-64002686D01*
X178928599Y-64002687D01*
X178928605Y-64002691D01*
X179093755Y-64057416D01*
X179195682Y-64067829D01*
X179195687Y-64067829D01*
X179782373Y-64067829D01*
X179782378Y-64067829D01*
X179884305Y-64057416D01*
X180049455Y-64002691D01*
X180197533Y-63911355D01*
X180320556Y-63788332D01*
X180411892Y-63640254D01*
X180466617Y-63475104D01*
X180477030Y-63373177D01*
X180477030Y-62911293D01*
X180496715Y-62844254D01*
X180549519Y-62798499D01*
X180618677Y-62788555D01*
X180682233Y-62817580D01*
X180688711Y-62823612D01*
X180950700Y-63085601D01*
X180984185Y-63146924D01*
X180987019Y-63173282D01*
X180987019Y-81148106D01*
X180987018Y-81148124D01*
X180987018Y-81313830D01*
X180987017Y-81313830D01*
X181010835Y-81402717D01*
X181027942Y-81466561D01*
X181042467Y-81491718D01*
X181075929Y-81549677D01*
X181106998Y-81603491D01*
X181225868Y-81722361D01*
X181225874Y-81722366D01*
X181815217Y-82311709D01*
X181848702Y-82373032D01*
X181851128Y-82402625D01*
X181851372Y-82402625D01*
X181851372Y-82405606D01*
X181851377Y-82405668D01*
X181851372Y-82405766D01*
X181851372Y-82992484D01*
X181861785Y-83094405D01*
X181916509Y-83259551D01*
X181916514Y-83259562D01*
X182007843Y-83407628D01*
X182007846Y-83407632D01*
X182130871Y-83530657D01*
X182132055Y-83531387D01*
X182132695Y-83532099D01*
X182136536Y-83535136D01*
X182136017Y-83535792D01*
X182178778Y-83583337D01*
X182189997Y-83652300D01*
X182162151Y-83716381D01*
X182136749Y-83738391D01*
X182136849Y-83738517D01*
X182134049Y-83740730D01*
X182132056Y-83742458D01*
X182131187Y-83742993D01*
X182131181Y-83742998D01*
X182008242Y-83865937D01*
X181916968Y-84013914D01*
X181916966Y-84013919D01*
X181862279Y-84178955D01*
X181851872Y-84280813D01*
X181851872Y-84324129D01*
X184251872Y-84324129D01*
X184251872Y-84280826D01*
X184251871Y-84280813D01*
X184241464Y-84178955D01*
X184186777Y-84013919D01*
X184186775Y-84013914D01*
X184095501Y-83865937D01*
X183972562Y-83742998D01*
X183972557Y-83742994D01*
X183971694Y-83742462D01*
X183971225Y-83741941D01*
X183966895Y-83738517D01*
X183967480Y-83737777D01*
X183924968Y-83690515D01*
X183913745Y-83621553D01*
X183941588Y-83557470D01*
X183967270Y-83535215D01*
X183967208Y-83535136D01*
X183968978Y-83533736D01*
X183971692Y-83531384D01*
X183972875Y-83530655D01*
X184095898Y-83407632D01*
X184187234Y-83259554D01*
X184241959Y-83094404D01*
X184252372Y-82992477D01*
X184252372Y-82405781D01*
X184241959Y-82303854D01*
X184187234Y-82138704D01*
X184187230Y-82138698D01*
X184187229Y-82138695D01*
X184095900Y-81990629D01*
X184095897Y-81990625D01*
X183972875Y-81867603D01*
X183972871Y-81867600D01*
X183824805Y-81776271D01*
X183824799Y-81776268D01*
X183824797Y-81776267D01*
X183764996Y-81756451D01*
X183659648Y-81721542D01*
X183557727Y-81711129D01*
X183557720Y-81711129D01*
X182964469Y-81711129D01*
X182897430Y-81691444D01*
X182876788Y-81674810D01*
X182224338Y-81022360D01*
X182190853Y-80961037D01*
X182188019Y-80934679D01*
X182188019Y-71804905D01*
X184727470Y-71804905D01*
X184737877Y-71906763D01*
X184792564Y-72071799D01*
X184792566Y-72071804D01*
X184883840Y-72219781D01*
X185006778Y-72342719D01*
X185154755Y-72433993D01*
X185154760Y-72433995D01*
X185319796Y-72488682D01*
X185421654Y-72499089D01*
X185421667Y-72499090D01*
X185677470Y-72499090D01*
X186177470Y-72499090D01*
X186433273Y-72499090D01*
X186433285Y-72499089D01*
X186535143Y-72488682D01*
X186700179Y-72433995D01*
X186700184Y-72433993D01*
X186848161Y-72342719D01*
X186971099Y-72219781D01*
X187062373Y-72071804D01*
X187062375Y-72071799D01*
X187117062Y-71906763D01*
X187127469Y-71804905D01*
X187127470Y-71804892D01*
X187127470Y-71761590D01*
X186177470Y-71761590D01*
X186177470Y-72499090D01*
X185677470Y-72499090D01*
X185677470Y-71761590D01*
X184727470Y-71761590D01*
X184727470Y-71804905D01*
X182188019Y-71804905D01*
X182188019Y-62794130D01*
X182188019Y-62794128D01*
X182147096Y-62641401D01*
X182130082Y-62611931D01*
X182068043Y-62504475D01*
X182068040Y-62504471D01*
X182068039Y-62504469D01*
X181956235Y-62392665D01*
X181956234Y-62392664D01*
X181951904Y-62388334D01*
X181951893Y-62388324D01*
X175565954Y-56002385D01*
X176822398Y-56002385D01*
X176822398Y-56160078D01*
X176853159Y-56314721D01*
X176853162Y-56314733D01*
X176913500Y-56460404D01*
X176913507Y-56460417D01*
X177001108Y-56591520D01*
X177001111Y-56591524D01*
X177112605Y-56703018D01*
X177112609Y-56703021D01*
X177243712Y-56790622D01*
X177243725Y-56790629D01*
X177389396Y-56850967D01*
X177389401Y-56850969D01*
X177452685Y-56863557D01*
X177544747Y-56881870D01*
X177606658Y-56914255D01*
X177608237Y-56915806D01*
X185416072Y-64723641D01*
X185449557Y-64784964D01*
X185452391Y-64811322D01*
X185452391Y-68533469D01*
X185432706Y-68600508D01*
X185379902Y-68646263D01*
X185340994Y-68656827D01*
X185319693Y-68659003D01*
X185154547Y-68713727D01*
X185154536Y-68713732D01*
X185006470Y-68805061D01*
X185006466Y-68805064D01*
X184883444Y-68928086D01*
X184883441Y-68928090D01*
X184792112Y-69076156D01*
X184792107Y-69076167D01*
X184737383Y-69241313D01*
X184726970Y-69343234D01*
X184726970Y-69929945D01*
X184737383Y-70031866D01*
X184792107Y-70197012D01*
X184792112Y-70197023D01*
X184883441Y-70345089D01*
X184883444Y-70345093D01*
X185006469Y-70468118D01*
X185007653Y-70468848D01*
X185008293Y-70469560D01*
X185012134Y-70472597D01*
X185011615Y-70473253D01*
X185054376Y-70520798D01*
X185065595Y-70589761D01*
X185037749Y-70653842D01*
X185012347Y-70675852D01*
X185012447Y-70675978D01*
X185009647Y-70678191D01*
X185007654Y-70679919D01*
X185006785Y-70680454D01*
X185006779Y-70680459D01*
X184883840Y-70803398D01*
X184792566Y-70951375D01*
X184792564Y-70951380D01*
X184737877Y-71116416D01*
X184727470Y-71218274D01*
X184727470Y-71261590D01*
X187127470Y-71261590D01*
X187127470Y-71218287D01*
X187127469Y-71218274D01*
X187117062Y-71116416D01*
X187062375Y-70951380D01*
X187062373Y-70951375D01*
X186971099Y-70803398D01*
X186848160Y-70680459D01*
X186848155Y-70680455D01*
X186847292Y-70679923D01*
X186846823Y-70679402D01*
X186842493Y-70675978D01*
X186843078Y-70675238D01*
X186800566Y-70627976D01*
X186789343Y-70559014D01*
X186817186Y-70494931D01*
X186842868Y-70472676D01*
X186842806Y-70472597D01*
X186844576Y-70471197D01*
X186847290Y-70468845D01*
X186848473Y-70468116D01*
X186971496Y-70345093D01*
X187062832Y-70197015D01*
X187117557Y-70031865D01*
X187127970Y-69929938D01*
X187127970Y-69343242D01*
X187117557Y-69241315D01*
X187062832Y-69076165D01*
X187062828Y-69076159D01*
X187062827Y-69076156D01*
X186971498Y-68928090D01*
X186971495Y-68928086D01*
X186848472Y-68805063D01*
X186712293Y-68721066D01*
X186665569Y-68669118D01*
X186653391Y-68615528D01*
X186653391Y-64432169D01*
X186653391Y-64432168D01*
X186645817Y-64403903D01*
X186635227Y-64364380D01*
X186612468Y-64279441D01*
X186570029Y-64205934D01*
X186533415Y-64142515D01*
X186533412Y-64142511D01*
X186533411Y-64142509D01*
X186421607Y-64030705D01*
X186421606Y-64030704D01*
X186417276Y-64026374D01*
X186417265Y-64026364D01*
X178457472Y-56066571D01*
X178423987Y-56005248D01*
X178423536Y-56003081D01*
X178398488Y-55877161D01*
X178392635Y-55847735D01*
X178383674Y-55826101D01*
X178332295Y-55702059D01*
X178332288Y-55702046D01*
X178244687Y-55570943D01*
X178244684Y-55570939D01*
X178133190Y-55459445D01*
X178133186Y-55459442D01*
X178002083Y-55371841D01*
X178002070Y-55371834D01*
X177856399Y-55311496D01*
X177856387Y-55311493D01*
X177701743Y-55280732D01*
X177701740Y-55280732D01*
X177544056Y-55280732D01*
X177544053Y-55280732D01*
X177389408Y-55311493D01*
X177389396Y-55311496D01*
X177243725Y-55371834D01*
X177243712Y-55371841D01*
X177112609Y-55459442D01*
X177112605Y-55459445D01*
X177001111Y-55570939D01*
X177001108Y-55570943D01*
X176913507Y-55702046D01*
X176913500Y-55702059D01*
X176853162Y-55847730D01*
X176853159Y-55847742D01*
X176822398Y-56002385D01*
X175565954Y-56002385D01*
X175153989Y-55590420D01*
X175120504Y-55529097D01*
X175117670Y-55502739D01*
X175117670Y-55128778D01*
X175137355Y-55061739D01*
X175138568Y-55059887D01*
X175142607Y-55053843D01*
X175226564Y-54928192D01*
X175286907Y-54782510D01*
X175317670Y-54627855D01*
X175317670Y-54470171D01*
X175317670Y-54470168D01*
X175302828Y-54395554D01*
X175309055Y-54325962D01*
X175351918Y-54270785D01*
X175417808Y-54247540D01*
X175453750Y-54250874D01*
X175732029Y-54318563D01*
X175733532Y-54318939D01*
X176664234Y-54558667D01*
X176666376Y-54559849D01*
X176727977Y-54575085D01*
X176789482Y-54590928D01*
X176789482Y-54590927D01*
X176791556Y-54591462D01*
X176801806Y-54593347D01*
X178171891Y-54932231D01*
X178856997Y-55101689D01*
X178929164Y-55119539D01*
X178929846Y-55119709D01*
X179949827Y-55378309D01*
X179949991Y-55378401D01*
X180013724Y-55394509D01*
X180077389Y-55410651D01*
X180077391Y-55410650D01*
X180084869Y-55412547D01*
X180085669Y-55412693D01*
X181793154Y-55844267D01*
X181794562Y-55845042D01*
X181856992Y-55860402D01*
X181919362Y-55876167D01*
X181919365Y-55876166D01*
X181923298Y-55877161D01*
X181930105Y-55878392D01*
X182633679Y-56051504D01*
X182634328Y-56051666D01*
X182728709Y-56075449D01*
X183242175Y-56205661D01*
X183304925Y-56221574D01*
X183305158Y-56221649D01*
X183378732Y-56240291D01*
X183378764Y-56240299D01*
X183440398Y-56255929D01*
X183440447Y-56255928D01*
X183602144Y-56296899D01*
X183602243Y-56296957D01*
X183602251Y-56296926D01*
X183871804Y-56365484D01*
X183872629Y-56365943D01*
X183935589Y-56381708D01*
X183998607Y-56397736D01*
X183998608Y-56397735D01*
X184000449Y-56398204D01*
X184015118Y-56402923D01*
X184488444Y-56588371D01*
X184543683Y-56631155D01*
X184565329Y-56682315D01*
X184567410Y-56694129D01*
X184568932Y-56707287D01*
X184580557Y-56768815D01*
X184580833Y-56770322D01*
X184591722Y-56832135D01*
X184594944Y-56844962D01*
X184606007Y-56903520D01*
X184606135Y-56904215D01*
X184666851Y-57239488D01*
X184677021Y-57295649D01*
X184677112Y-57296159D01*
X184694830Y-57396386D01*
X184694870Y-57396617D01*
X184746853Y-57693958D01*
X184746853Y-57693959D01*
X184748633Y-57704136D01*
X184748428Y-57706747D01*
X184759956Y-57768910D01*
X184760075Y-57769591D01*
X184771180Y-57833106D01*
X184773863Y-57843899D01*
X184936443Y-58720535D01*
X184936347Y-58721856D01*
X184948399Y-58785014D01*
X184948491Y-58785508D01*
X184948518Y-58785646D01*
X184961098Y-58853476D01*
X184962521Y-58859016D01*
X184972419Y-58910882D01*
X184974203Y-58924007D01*
X184974757Y-58930775D01*
X184987076Y-58987876D01*
X184987666Y-58990778D01*
X184998620Y-59048173D01*
X185000751Y-59054614D01*
X185004234Y-59067400D01*
X185189177Y-59924583D01*
X185189717Y-59927224D01*
X185353128Y-60773423D01*
X185353626Y-60776167D01*
X185484191Y-61544757D01*
X185498196Y-61627199D01*
X185542285Y-61890932D01*
X185556250Y-61976184D01*
X185613518Y-62325797D01*
X185615192Y-62336018D01*
X185615288Y-62336600D01*
X185614990Y-62358301D01*
X185625896Y-62401366D01*
X185626756Y-62406613D01*
X185626758Y-62406621D01*
X185633083Y-62445231D01*
X185633085Y-62445238D01*
X185637511Y-62455040D01*
X185644700Y-62475617D01*
X185647342Y-62486048D01*
X185647342Y-62486049D01*
X185657643Y-62504471D01*
X185669029Y-62524835D01*
X185687320Y-62565339D01*
X185701068Y-62582135D01*
X185758642Y-62685101D01*
X185876263Y-62895458D01*
X185882198Y-62907577D01*
X185884322Y-62912589D01*
X185914248Y-62963454D01*
X185915602Y-62965814D01*
X185944427Y-63017365D01*
X185947674Y-63021719D01*
X185947778Y-63021858D01*
X185947795Y-63021878D01*
X185951146Y-63026171D01*
X185951147Y-63026172D01*
X185951149Y-63026175D01*
X185977730Y-63052324D01*
X185993235Y-63067578D01*
X185995151Y-63069506D01*
X186036313Y-63111816D01*
X186036318Y-63111820D01*
X186036321Y-63111823D01*
X186036324Y-63111825D01*
X186040586Y-63115189D01*
X186040585Y-63115189D01*
X186040719Y-63115296D01*
X186040763Y-63115325D01*
X186045098Y-63118596D01*
X186067646Y-63131368D01*
X186096486Y-63147704D01*
X186098744Y-63149016D01*
X186149532Y-63179278D01*
X186149540Y-63179280D01*
X186154526Y-63181427D01*
X186154533Y-63181430D01*
X186154695Y-63181499D01*
X186154725Y-63181510D01*
X186159755Y-63183544D01*
X186159759Y-63183547D01*
X186216863Y-63198347D01*
X186219476Y-63199055D01*
X186245577Y-63206435D01*
X186276345Y-63215135D01*
X186276350Y-63215135D01*
X186281725Y-63215918D01*
X186294963Y-63218589D01*
X186460461Y-63261483D01*
X186469657Y-63266087D01*
X186476395Y-63266788D01*
X186506811Y-63284689D01*
X186617418Y-63373177D01*
X186631702Y-63384604D01*
X186636509Y-63388654D01*
X186651652Y-63402082D01*
X186673963Y-63421866D01*
X186673970Y-63421869D01*
X186674924Y-63422515D01*
X186694591Y-63435098D01*
X186695515Y-63435656D01*
X186695517Y-63435656D01*
X186695521Y-63435660D01*
X186741395Y-63455759D01*
X186747052Y-63458411D01*
X186872298Y-63521034D01*
X186885393Y-63533215D01*
X186901384Y-63541230D01*
X186921253Y-63566573D01*
X186923456Y-63568622D01*
X186923516Y-63568723D01*
X186924345Y-63570122D01*
X186938223Y-63594978D01*
X186940409Y-63597227D01*
X186942226Y-63600293D01*
X186942315Y-63600396D01*
X186942602Y-63600770D01*
X186985987Y-63644155D01*
X186987240Y-63645426D01*
X187030054Y-63689491D01*
X187030429Y-63689787D01*
X187030438Y-63689794D01*
X187033556Y-63692258D01*
X187033568Y-63692268D01*
X187034896Y-63693318D01*
X187035420Y-63693673D01*
X187035783Y-63693951D01*
X187035788Y-63693956D01*
X187089731Y-63725100D01*
X187143228Y-63757021D01*
X187146743Y-63758017D01*
X187149913Y-63759847D01*
X187149915Y-63759847D01*
X187149916Y-63759848D01*
X187209321Y-63775764D01*
X187210923Y-63776207D01*
X187254869Y-63788663D01*
X187285447Y-63801993D01*
X187575467Y-63978221D01*
X187590181Y-63988701D01*
X187670365Y-64055127D01*
X187671354Y-64055956D01*
X187673080Y-64057416D01*
X187748553Y-64121276D01*
X187753479Y-64127903D01*
X187798758Y-64163757D01*
X187800292Y-64165055D01*
X187842851Y-64201066D01*
X187849693Y-64205465D01*
X187849390Y-64205934D01*
X187861509Y-64213446D01*
X187909918Y-64251778D01*
X187924783Y-64265680D01*
X188254950Y-64629663D01*
X188261909Y-64638047D01*
X188297010Y-64684333D01*
X188301116Y-64690082D01*
X188699124Y-65282158D01*
X188699125Y-65282158D01*
X188706023Y-65292420D01*
X188707603Y-65296770D01*
X188742729Y-65347025D01*
X188743352Y-65347951D01*
X188743370Y-65347977D01*
X188776965Y-65397952D01*
X188778897Y-65400142D01*
X188787535Y-65411126D01*
X188868862Y-65527477D01*
X188875341Y-65537790D01*
X189114478Y-65963523D01*
X189117468Y-65969184D01*
X189155314Y-66045543D01*
X189157745Y-66050747D01*
X189535249Y-66910306D01*
X189537476Y-66915719D01*
X189550123Y-66948656D01*
X189555756Y-66967812D01*
X189727314Y-67791216D01*
X189729049Y-67801833D01*
X189742253Y-67912611D01*
X189742941Y-67920536D01*
X189808375Y-69120621D01*
X189807877Y-69140356D01*
X189806200Y-69156274D01*
X189806200Y-69156276D01*
X189811496Y-69189767D01*
X189811495Y-69189767D01*
X189812488Y-69196049D01*
X189814680Y-69236233D01*
X189822734Y-69260845D01*
X189824282Y-69270634D01*
X189824283Y-69270636D01*
X189883642Y-69646015D01*
X189884841Y-69656438D01*
X189887686Y-69695784D01*
X189891106Y-69705639D01*
X189894716Y-69716043D01*
X189898066Y-69737223D01*
X189916236Y-69778060D01*
X189917958Y-69783023D01*
X189917958Y-69783025D01*
X189930884Y-69820277D01*
X189930887Y-69820282D01*
X189930888Y-69820285D01*
X189934406Y-69825474D01*
X189936742Y-69828920D01*
X189947389Y-69848080D01*
X189951636Y-69857624D01*
X189951639Y-69857628D01*
X189976460Y-69888296D01*
X189982707Y-69896720D01*
X190005793Y-69930772D01*
X190215736Y-70240440D01*
X190219344Y-70246085D01*
X190228220Y-70260834D01*
X190243459Y-70299914D01*
X190246862Y-70316545D01*
X190248055Y-70318932D01*
X190256914Y-70342278D01*
X190257601Y-70344842D01*
X190257606Y-70344854D01*
X190281185Y-70385696D01*
X190281186Y-70385696D01*
X190283043Y-70388913D01*
X190305795Y-70434418D01*
X190315887Y-70445799D01*
X190322166Y-70456674D01*
X190322166Y-70456676D01*
X190323494Y-70458975D01*
X190323496Y-70458978D01*
X190323499Y-70458981D01*
X190356831Y-70492313D01*
X190361930Y-70497726D01*
X190393228Y-70533023D01*
X190394634Y-70533951D01*
X190405923Y-70541405D01*
X190416682Y-70552164D01*
X190460742Y-70577602D01*
X190463848Y-70579653D01*
X190463849Y-70579654D01*
X190465441Y-70580705D01*
X190503200Y-70605637D01*
X190505741Y-70606484D01*
X190512944Y-70609137D01*
X190520992Y-70612387D01*
X190530810Y-70618056D01*
X190543338Y-70621412D01*
X190550365Y-70624251D01*
X190572059Y-70641419D01*
X190595683Y-70655819D01*
X190599659Y-70660414D01*
X190601718Y-70662915D01*
X190605498Y-70667746D01*
X190666805Y-70750209D01*
X190667543Y-70751213D01*
X190698266Y-70793532D01*
X190701037Y-70797902D01*
X190704016Y-70801966D01*
X190704017Y-70801967D01*
X190742343Y-70854242D01*
X190780312Y-70906539D01*
X190781232Y-70907285D01*
X190786584Y-70914585D01*
X190821221Y-70961827D01*
X190821458Y-70962151D01*
X190931701Y-71113539D01*
X190939460Y-71125602D01*
X190939927Y-71126430D01*
X190939928Y-71126432D01*
X190943431Y-71131092D01*
X190976640Y-71175275D01*
X190977755Y-71176782D01*
X191011187Y-71222690D01*
X191013804Y-71226284D01*
X191013807Y-71226286D01*
X191014454Y-71226967D01*
X191023722Y-71237917D01*
X191119769Y-71365703D01*
X191129794Y-71381362D01*
X191363904Y-71815604D01*
X191661120Y-72366902D01*
X191681555Y-72404805D01*
X191684780Y-72411224D01*
X191772895Y-72600099D01*
X191776857Y-72609604D01*
X192507346Y-74589594D01*
X192510200Y-74598310D01*
X192537967Y-74695068D01*
X192540206Y-74704148D01*
X192737039Y-75655455D01*
X192739376Y-75672956D01*
X192782566Y-76374146D01*
X192799195Y-76644122D01*
X192799268Y-76645299D01*
X192799503Y-76652922D01*
X192799503Y-76939177D01*
X192798703Y-76953236D01*
X192579635Y-78872977D01*
X192577436Y-78886026D01*
X192553106Y-78994627D01*
X192553001Y-78995092D01*
X192474794Y-79338001D01*
X192474304Y-79339651D01*
X192458342Y-79410136D01*
X192458301Y-79410320D01*
X192442143Y-79481167D01*
X192441874Y-79482850D01*
X192406888Y-79637333D01*
X192405917Y-79641313D01*
X192164818Y-80563351D01*
X192163708Y-80567328D01*
X192077132Y-80858452D01*
X192074703Y-80866616D01*
X192074432Y-80867062D01*
X192055940Y-80929712D01*
X192055868Y-80929955D01*
X192055866Y-80929957D01*
X192035382Y-80998843D01*
X192034872Y-81001092D01*
X192004223Y-81104933D01*
X192001721Y-81113414D01*
X192001232Y-81114222D01*
X191983087Y-81176550D01*
X191983010Y-81176813D01*
X191983009Y-81176814D01*
X191963083Y-81244325D01*
X191962183Y-81248354D01*
X191952087Y-81283035D01*
X191949670Y-81290457D01*
X191770377Y-81787427D01*
X191765705Y-81800378D01*
X191765024Y-81801367D01*
X191743410Y-81862172D01*
X191743319Y-81862426D01*
X191743317Y-81862428D01*
X191719690Y-81927922D01*
X191718252Y-81932951D01*
X191550192Y-82405773D01*
X191502908Y-82538802D01*
X191501596Y-82540745D01*
X191480870Y-82600802D01*
X191480668Y-82601371D01*
X191458766Y-82662992D01*
X191456083Y-82672629D01*
X191437498Y-82726483D01*
X191429883Y-82744029D01*
X191421666Y-82759556D01*
X191421664Y-82759562D01*
X191414449Y-82791088D01*
X191410792Y-82803870D01*
X191400240Y-82834449D01*
X191400239Y-82834455D01*
X191399001Y-82851979D01*
X191396185Y-82870898D01*
X191212739Y-83672562D01*
X191212007Y-83675756D01*
X191197567Y-83726415D01*
X191197353Y-83739800D01*
X191194457Y-83752456D01*
X191194369Y-83752839D01*
X191194368Y-83752852D01*
X191196187Y-83802242D01*
X191196255Y-83808779D01*
X191183473Y-84611897D01*
X191183457Y-84612843D01*
X191181639Y-84675345D01*
X191182412Y-84678608D01*
X191182359Y-84681961D01*
X191197403Y-84741910D01*
X191197790Y-84743497D01*
X191575312Y-86336460D01*
X191575312Y-86336461D01*
X191578225Y-86348753D01*
X191578667Y-86363646D01*
X191593368Y-86412655D01*
X191594209Y-86416201D01*
X191594211Y-86416207D01*
X191605179Y-86462483D01*
X191606255Y-86464478D01*
X191615880Y-86487697D01*
X191741724Y-86907191D01*
X191742023Y-86908205D01*
X191764244Y-86984640D01*
X191765534Y-86989430D01*
X192167089Y-88609884D01*
X192168426Y-88615921D01*
X192180237Y-88676341D01*
X192182243Y-88691555D01*
X192318749Y-90660846D01*
X192319046Y-90669421D01*
X192319046Y-90748160D01*
X192318463Y-90760172D01*
X192160206Y-92386162D01*
X192158449Y-92398127D01*
X192143283Y-92475079D01*
X192140810Y-92485315D01*
X191595566Y-94384763D01*
X191588234Y-94404070D01*
X190743648Y-96169221D01*
X190732978Y-96187377D01*
X189605937Y-97778416D01*
X189591459Y-97795384D01*
X188175657Y-99180251D01*
X188170853Y-99184709D01*
X187805168Y-99506405D01*
X187799253Y-99511608D01*
X187771009Y-99530711D01*
X187750003Y-99554933D01*
X187743717Y-99560464D01*
X187743714Y-99560468D01*
X187725917Y-99576125D01*
X187711380Y-99597951D01*
X187711381Y-99597952D01*
X187707011Y-99604513D01*
X187684673Y-99630276D01*
X187670651Y-99659112D01*
X187666011Y-99666081D01*
X187666007Y-99666089D01*
X187652874Y-99685810D01*
X187644481Y-99710661D01*
X187638518Y-99725202D01*
X187439496Y-100134538D01*
X187435449Y-100142862D01*
X187414660Y-100176081D01*
X187406752Y-100201880D01*
X187402538Y-100210548D01*
X187394955Y-100226143D01*
X187394954Y-100226146D01*
X187388780Y-100258118D01*
X187385588Y-100270934D01*
X187376045Y-100302074D01*
X187376043Y-100302086D01*
X187375426Y-100319415D01*
X187375083Y-100329047D01*
X187369967Y-100355544D01*
X187372747Y-100394623D01*
X187372512Y-100401243D01*
X187350239Y-101026749D01*
X187349804Y-101033619D01*
X187246251Y-102166932D01*
X187242832Y-102186632D01*
X186960984Y-103278876D01*
X186958079Y-103288502D01*
X186928725Y-103373191D01*
X186928329Y-103374316D01*
X186817135Y-103685422D01*
X186817091Y-103685545D01*
X186800374Y-103732162D01*
X186792332Y-103750010D01*
X186553064Y-104185547D01*
X186553063Y-104185548D01*
X186547616Y-104195461D01*
X186545140Y-104198122D01*
X186515949Y-104253103D01*
X186515549Y-104253833D01*
X186515487Y-104253947D01*
X186485913Y-104307783D01*
X186485758Y-104308182D01*
X186479747Y-104321294D01*
X186398590Y-104474164D01*
X186392472Y-104484454D01*
X185860446Y-105288306D01*
X185776191Y-105415608D01*
X185764500Y-105430624D01*
X185555330Y-105660495D01*
X185001687Y-106268928D01*
X184997882Y-106272927D01*
X184689263Y-106583147D01*
X184683612Y-106588482D01*
X184411897Y-106829355D01*
X184401616Y-106835016D01*
X184396257Y-106841152D01*
X184374461Y-106849972D01*
X184364093Y-106855683D01*
X184359331Y-106857060D01*
X184328222Y-106863429D01*
X184315749Y-106869665D01*
X184304865Y-106872814D01*
X184304250Y-106872811D01*
X184302518Y-106873469D01*
X184299961Y-106874154D01*
X184299960Y-106874154D01*
X184259095Y-106897745D01*
X184259096Y-106897746D01*
X184255863Y-106899612D01*
X184210353Y-106922372D01*
X184198991Y-106932447D01*
X184188130Y-106938718D01*
X184188128Y-106938720D01*
X184185834Y-106940044D01*
X184185828Y-106940048D01*
X184152472Y-106973405D01*
X184147072Y-106978492D01*
X184111756Y-107009814D01*
X184111755Y-107009815D01*
X184110302Y-107012017D01*
X184094511Y-107031367D01*
X184092648Y-107033229D01*
X184069041Y-107074115D01*
X184069040Y-107074114D01*
X184067177Y-107077339D01*
X184039153Y-107119793D01*
X184034351Y-107134198D01*
X184028079Y-107145063D01*
X184028077Y-107145069D01*
X184026753Y-107147361D01*
X184023643Y-107154871D01*
X184020593Y-107153607D01*
X183992193Y-107200146D01*
X183983833Y-107207094D01*
X183912250Y-107261462D01*
X183908795Y-107263993D01*
X183774331Y-107358981D01*
X183773599Y-107359495D01*
X183688220Y-107418890D01*
X183681352Y-107423064D01*
X183626660Y-107461710D01*
X183625920Y-107462229D01*
X183570847Y-107500543D01*
X183564582Y-107505577D01*
X183500025Y-107551195D01*
X183496925Y-107553316D01*
X182336588Y-108321634D01*
X182335253Y-108322506D01*
X182248795Y-108378168D01*
X182239423Y-108383637D01*
X181260083Y-108899074D01*
X181238875Y-108907837D01*
X180172657Y-109236662D01*
X180167146Y-109238223D01*
X180117342Y-109251096D01*
X180110171Y-109253992D01*
X180102940Y-109257108D01*
X180095907Y-109260334D01*
X180052327Y-109287714D01*
X180047406Y-109290649D01*
X179806137Y-109427104D01*
X179796065Y-109432802D01*
X179792317Y-109433833D01*
X179738862Y-109465153D01*
X179737951Y-109465669D01*
X179737939Y-109465677D01*
X179684736Y-109495768D01*
X179683866Y-109496424D01*
X179683380Y-109496748D01*
X179682440Y-109497479D01*
X179680956Y-109498615D01*
X179679910Y-109499402D01*
X179679460Y-109499796D01*
X179678619Y-109500449D01*
X179635691Y-109543930D01*
X179634354Y-109545264D01*
X179590726Y-109588126D01*
X179590073Y-109588962D01*
X179590070Y-109588967D01*
X179587773Y-109591905D01*
X179587004Y-109592889D01*
X179586677Y-109593377D01*
X179586029Y-109594232D01*
X179555826Y-109647328D01*
X179554877Y-109648965D01*
X179523830Y-109701654D01*
X179523405Y-109702657D01*
X179523403Y-109702662D01*
X179521956Y-109706068D01*
X179521954Y-109706069D01*
X179521469Y-109707211D01*
X179521273Y-109707789D01*
X179520867Y-109708786D01*
X179505437Y-109767879D01*
X179504946Y-109769703D01*
X179488591Y-109828648D01*
X179488443Y-109829700D01*
X179485632Y-109843737D01*
X179461048Y-109937894D01*
X179451744Y-109962490D01*
X179318033Y-110227115D01*
X179299518Y-110254155D01*
X179112556Y-110461843D01*
X179111792Y-110462472D01*
X179111566Y-110462930D01*
X179084194Y-110485210D01*
X178986318Y-110543935D01*
X178985573Y-110544319D01*
X178950183Y-110565588D01*
X178922376Y-110582300D01*
X178866440Y-110615862D01*
X178866160Y-110616083D01*
X178820544Y-110663329D01*
X178820543Y-110663328D01*
X178819220Y-110664697D01*
X178774838Y-110710600D01*
X178774750Y-110710755D01*
X178769106Y-110716602D01*
X178769099Y-110716612D01*
X178754538Y-110731694D01*
X178746807Y-110739041D01*
X178553143Y-110907851D01*
X178518057Y-110929372D01*
X178304006Y-111015727D01*
X178297003Y-111018551D01*
X178262805Y-111027716D01*
X178236163Y-111043096D01*
X178228093Y-111046352D01*
X178228091Y-111046352D01*
X178207636Y-111054605D01*
X178207633Y-111054607D01*
X178185371Y-111071362D01*
X178185372Y-111071363D01*
X178179341Y-111075903D01*
X178148677Y-111093608D01*
X178126923Y-111115360D01*
X178119971Y-111120594D01*
X178119968Y-111120594D01*
X178102347Y-111133860D01*
X178102344Y-111133863D01*
X178085178Y-111155811D01*
X178084786Y-111156309D01*
X178080301Y-111161982D01*
X178055491Y-111186794D01*
X178041401Y-111211196D01*
X178035804Y-111218278D01*
X178015555Y-111232621D01*
X177996447Y-111251025D01*
X177686278Y-111414888D01*
X177668336Y-111422626D01*
X177652695Y-111427953D01*
X177624959Y-111446525D01*
X177613897Y-111453126D01*
X177584371Y-111468726D01*
X177584369Y-111468727D01*
X177572248Y-111479969D01*
X177572247Y-111479968D01*
X177565060Y-111486634D01*
X177543195Y-111501277D01*
X177516963Y-111531247D01*
X177512225Y-111535643D01*
X177512226Y-111535643D01*
X177487748Y-111558348D01*
X177478953Y-111572339D01*
X177467290Y-111588002D01*
X177456407Y-111600437D01*
X177456400Y-111600448D01*
X177441664Y-111630401D01*
X177441665Y-111630402D01*
X177438812Y-111636200D01*
X177417618Y-111669921D01*
X177409856Y-111695065D01*
X177405533Y-111703855D01*
X177405531Y-111703861D01*
X177398233Y-111718698D01*
X177391751Y-111751452D01*
X177391752Y-111751453D01*
X177390500Y-111757783D01*
X177378753Y-111795844D01*
X177377763Y-111822148D01*
X177375862Y-111831761D01*
X177375861Y-111831762D01*
X177372653Y-111847975D01*
X177372653Y-111847976D01*
X177374869Y-111881277D01*
X177375056Y-111894162D01*
X177373802Y-111927534D01*
X177373802Y-111927535D01*
X177377476Y-111943645D01*
X177379656Y-111953202D01*
X177381405Y-111979468D01*
X177394247Y-112017178D01*
X177395684Y-112023475D01*
X177403105Y-112056015D01*
X177403106Y-112056018D01*
X177403107Y-112056020D01*
X177410826Y-112070632D01*
X177418560Y-112088567D01*
X177428845Y-112118763D01*
X177428961Y-112119106D01*
X177441962Y-112157644D01*
X177442315Y-112158965D01*
X177465715Y-112228047D01*
X177465714Y-112228047D01*
X177465961Y-112228778D01*
X177486638Y-112290065D01*
X177486809Y-112290322D01*
X177499970Y-112329179D01*
X177500480Y-112330719D01*
X177522353Y-112398591D01*
X177524474Y-112406888D01*
X177545398Y-112470113D01*
X177545489Y-112470388D01*
X177545630Y-112470819D01*
X177565156Y-112531402D01*
X177565901Y-112532555D01*
X177568776Y-112541311D01*
X177568872Y-112544369D01*
X177572391Y-112554870D01*
X177676271Y-113056946D01*
X177745304Y-113390603D01*
X177746936Y-113400490D01*
X177761239Y-113516011D01*
X177761467Y-113517980D01*
X177913576Y-114931509D01*
X177913670Y-114932408D01*
X177982680Y-115620852D01*
X177983084Y-115624886D01*
X177983500Y-115629028D01*
X177983467Y-115629234D01*
X177990095Y-115694826D01*
X177990105Y-115694924D01*
X177990104Y-115694926D01*
X177997378Y-115767481D01*
X177997528Y-115768377D01*
X177998583Y-115778814D01*
X177998846Y-115785643D01*
X178006106Y-115853272D01*
X178006185Y-115854036D01*
X178013032Y-115921781D01*
X178014181Y-115928505D01*
X178178974Y-117463666D01*
X178180807Y-117480742D01*
X178180683Y-117481554D01*
X178187830Y-117546164D01*
X178187830Y-117546166D01*
X178195454Y-117617196D01*
X178195934Y-117619922D01*
X178203592Y-117688677D01*
X178203602Y-117688769D01*
X178211640Y-117761439D01*
X178211789Y-117762276D01*
X178247628Y-118084033D01*
X178247636Y-118084107D01*
X178252372Y-118126858D01*
X178252482Y-118129235D01*
X178260581Y-118200935D01*
X178260609Y-118201193D01*
X178268502Y-118272417D01*
X178268920Y-118274756D01*
X178273437Y-118314743D01*
X178273437Y-118314759D01*
X178273439Y-118314759D01*
X178277344Y-118349366D01*
X178277657Y-118374050D01*
X178277361Y-118377441D01*
X178277361Y-118377443D01*
X178285432Y-118423177D01*
X178285640Y-118424389D01*
X178286174Y-118427601D01*
X178291743Y-118476945D01*
X178296314Y-118488586D01*
X178298452Y-118501444D01*
X178295746Y-118523718D01*
X178297729Y-118546072D01*
X178291616Y-118557734D01*
X178290029Y-118570804D01*
X178275710Y-118588080D01*
X178265293Y-118607957D01*
X178263812Y-118609463D01*
X178248832Y-118624443D01*
X178248129Y-118625141D01*
X178112178Y-118758936D01*
X178106360Y-118763993D01*
X178058767Y-118811496D01*
X178058150Y-118812108D01*
X178010141Y-118859357D01*
X178005040Y-118865121D01*
X178003174Y-118866983D01*
X178001796Y-118868358D01*
X177982408Y-118884153D01*
X177980228Y-118885588D01*
X177980225Y-118885591D01*
X177948862Y-118920879D01*
X177943781Y-118926263D01*
X177910350Y-118959632D01*
X177910348Y-118959635D01*
X177909045Y-118961888D01*
X177894408Y-118982151D01*
X177621836Y-119288850D01*
X177618673Y-119292277D01*
X177524308Y-119390736D01*
X177466884Y-119424709D01*
X177441779Y-119431436D01*
X177427960Y-119439415D01*
X177410113Y-119447899D01*
X177395217Y-119453574D01*
X177395203Y-119453582D01*
X177367683Y-119473468D01*
X177367684Y-119473469D01*
X177362544Y-119477182D01*
X177327650Y-119497330D01*
X177309368Y-119515610D01*
X177301328Y-119521421D01*
X177301326Y-119521424D01*
X177288399Y-119530766D01*
X177288397Y-119530769D01*
X177266958Y-119557106D01*
X177258481Y-119566497D01*
X177234466Y-119590513D01*
X177234464Y-119590516D01*
X177221530Y-119612916D01*
X177205204Y-119632975D01*
X177188725Y-119669734D01*
X177185557Y-119675222D01*
X177185552Y-119675232D01*
X177168572Y-119704644D01*
X177168571Y-119704645D01*
X177164510Y-119711681D01*
X177162992Y-119710804D01*
X177125367Y-119757480D01*
X177110294Y-119765710D01*
X177091039Y-119776827D01*
X177072694Y-119785500D01*
X177059032Y-119790638D01*
X177059024Y-119790642D01*
X177030324Y-119811195D01*
X177030323Y-119811194D01*
X177025371Y-119814740D01*
X176989568Y-119835412D01*
X176972050Y-119852928D01*
X176963777Y-119858854D01*
X176963767Y-119858864D01*
X176951887Y-119867373D01*
X176929495Y-119894643D01*
X176921350Y-119903628D01*
X176896383Y-119928596D01*
X176896376Y-119928605D01*
X176889072Y-119941256D01*
X176883983Y-119950068D01*
X176868258Y-119969222D01*
X176851179Y-120006887D01*
X176848137Y-120012157D01*
X176830489Y-120042725D01*
X176827378Y-120050237D01*
X176826546Y-120049892D01*
X176809477Y-120084447D01*
X176688728Y-120241406D01*
X176677872Y-120253732D01*
X176623472Y-120307817D01*
X176622777Y-120308503D01*
X176584971Y-120345503D01*
X176579382Y-120350333D01*
X176531424Y-120397905D01*
X176530832Y-120398488D01*
X176482528Y-120445763D01*
X176477605Y-120451293D01*
X176435210Y-120493349D01*
X176434982Y-120493574D01*
X176185886Y-120739408D01*
X176185178Y-120740023D01*
X176179878Y-120745261D01*
X176179878Y-120745262D01*
X176132612Y-120791986D01*
X176086419Y-120837576D01*
X176086314Y-120837753D01*
X176080446Y-120843555D01*
X176080447Y-120843555D01*
X175832645Y-121088525D01*
X175832540Y-121088628D01*
X175693278Y-121225971D01*
X175676422Y-121239379D01*
X175673400Y-121241905D01*
X175639094Y-121279202D01*
X175634905Y-121283540D01*
X175598805Y-121319143D01*
X175596395Y-121322240D01*
X175583574Y-121339563D01*
X175295024Y-121653271D01*
X175284417Y-121663509D01*
X175279410Y-121667796D01*
X175277857Y-121668864D01*
X175277019Y-121669843D01*
X175270671Y-121675281D01*
X175262404Y-121678998D01*
X175227471Y-121697964D01*
X175227611Y-121698302D01*
X175224398Y-121699632D01*
X175222121Y-121700869D01*
X175220114Y-121701406D01*
X175220099Y-121701413D01*
X175217797Y-121702742D01*
X175195038Y-121712978D01*
X175192517Y-121713818D01*
X175192514Y-121713820D01*
X175153145Y-121739811D01*
X175153144Y-121739810D01*
X175150013Y-121741877D01*
X175105978Y-121767302D01*
X175095235Y-121778043D01*
X175084760Y-121784960D01*
X175084761Y-121784960D01*
X175082546Y-121786422D01*
X175082542Y-121786425D01*
X175051235Y-121821727D01*
X175051236Y-121821728D01*
X175048769Y-121824509D01*
X175012792Y-121860488D01*
X175005191Y-121873652D01*
X174996859Y-121883049D01*
X174996857Y-121883049D01*
X174995104Y-121885026D01*
X174974004Y-121927223D01*
X174970485Y-121933762D01*
X174957560Y-121956149D01*
X174906994Y-122004365D01*
X174895856Y-122009428D01*
X174877886Y-122016549D01*
X174853962Y-122034324D01*
X174842018Y-122042172D01*
X174816195Y-122057083D01*
X174801970Y-122071307D01*
X174801969Y-122071306D01*
X174795537Y-122077737D01*
X174772106Y-122095149D01*
X174749159Y-122124114D01*
X174744088Y-122129186D01*
X174744089Y-122129186D01*
X174723010Y-122150266D01*
X174723007Y-122150271D01*
X174712949Y-122167688D01*
X174712950Y-122167689D01*
X174708406Y-122175560D01*
X174690275Y-122198449D01*
X174675605Y-122232368D01*
X174672021Y-122238578D01*
X174672020Y-122238582D01*
X174657116Y-122264397D01*
X174654007Y-122271904D01*
X174652311Y-122271201D01*
X174635413Y-122304446D01*
X174470233Y-122509444D01*
X174458341Y-122518354D01*
X174451575Y-122528121D01*
X174421239Y-122546159D01*
X174358828Y-122572080D01*
X174356095Y-122573177D01*
X174301571Y-122594318D01*
X174296334Y-122597184D01*
X174291116Y-122600203D01*
X174244768Y-122635838D01*
X174242412Y-122637605D01*
X174195214Y-122672139D01*
X174190869Y-122676289D01*
X174186644Y-122680523D01*
X174151087Y-122726953D01*
X174150174Y-122728144D01*
X174112629Y-122774830D01*
X174110188Y-122780358D01*
X174106514Y-122785157D01*
X174084191Y-122839195D01*
X174083035Y-122841901D01*
X174080980Y-122846559D01*
X174064501Y-122873790D01*
X173908794Y-123069166D01*
X173899094Y-123079974D01*
X173825309Y-123153073D01*
X173824687Y-123153685D01*
X173773020Y-123204156D01*
X173768592Y-123207970D01*
X173719599Y-123256338D01*
X173719135Y-123256794D01*
X173669805Y-123304985D01*
X173665918Y-123309336D01*
X173614322Y-123360276D01*
X173614219Y-123360378D01*
X173502803Y-123469992D01*
X173370948Y-123599713D01*
X173352631Y-123614263D01*
X173350865Y-123615739D01*
X173316785Y-123652780D01*
X173316786Y-123652781D01*
X173314681Y-123655068D01*
X173276611Y-123692524D01*
X173270207Y-123703406D01*
X173261277Y-123713114D01*
X173261273Y-123713121D01*
X172844588Y-124166043D01*
X172792242Y-124197523D01*
X172792917Y-124199474D01*
X172785238Y-124202127D01*
X172782853Y-124203320D01*
X172759517Y-124212176D01*
X172756944Y-124212865D01*
X172756943Y-124212865D01*
X172716092Y-124236449D01*
X172716093Y-124236450D01*
X172712867Y-124238312D01*
X172667364Y-124261065D01*
X172655991Y-124271149D01*
X172645123Y-124277424D01*
X172645124Y-124277424D01*
X172642818Y-124278755D01*
X172642814Y-124278758D01*
X172609463Y-124312109D01*
X172604055Y-124317203D01*
X172568760Y-124348501D01*
X172567290Y-124350728D01*
X172562687Y-124357233D01*
X172557535Y-124364037D01*
X172549630Y-124371944D01*
X172543457Y-124382633D01*
X172538796Y-124388792D01*
X172522173Y-124401096D01*
X172501939Y-124421330D01*
X172497933Y-124423643D01*
X172497923Y-124423650D01*
X172486636Y-124434936D01*
X172471599Y-124447745D01*
X172458668Y-124457090D01*
X172458668Y-124457091D01*
X172437230Y-124483427D01*
X172428748Y-124492823D01*
X172404742Y-124516830D01*
X172404741Y-124516831D01*
X172396757Y-124530658D01*
X172394939Y-124533704D01*
X172390671Y-124540628D01*
X172375476Y-124559298D01*
X172365629Y-124581264D01*
X172361366Y-124588182D01*
X172350780Y-124597710D01*
X172334775Y-124618726D01*
X172300618Y-124646942D01*
X172141134Y-124778688D01*
X172110980Y-124803597D01*
X172076214Y-124823849D01*
X172049580Y-124834011D01*
X172046543Y-124835124D01*
X171319085Y-125090833D01*
X171318329Y-125091096D01*
X170986689Y-125205273D01*
X170891070Y-125238135D01*
X170877495Y-125241953D01*
X170875417Y-125242411D01*
X170818425Y-125263083D01*
X170816477Y-125263771D01*
X170759154Y-125283474D01*
X170759153Y-125283474D01*
X170759146Y-125283477D01*
X170757252Y-125284420D01*
X170744290Y-125289975D01*
X169339721Y-125799469D01*
X169337573Y-125800226D01*
X168744404Y-126003146D01*
X168732195Y-126007322D01*
X168727117Y-126007770D01*
X168669955Y-126028613D01*
X168668763Y-126029022D01*
X168668761Y-126029023D01*
X168612333Y-126048328D01*
X168608602Y-126050179D01*
X168595990Y-126055587D01*
X167911705Y-126305126D01*
X167911704Y-126305125D01*
X167900075Y-126309365D01*
X167895471Y-126309857D01*
X167838247Y-126331914D01*
X167837145Y-126332316D01*
X167837144Y-126332316D01*
X167780625Y-126352928D01*
X167778010Y-126354292D01*
X167765297Y-126360033D01*
X167758767Y-126362550D01*
X167734322Y-126369199D01*
X167732615Y-126369480D01*
X167732605Y-126369483D01*
X167688822Y-126389295D01*
X167682298Y-126392026D01*
X167679483Y-126393111D01*
X167624131Y-126400941D01*
X167228505Y-126366494D01*
X167198971Y-126360233D01*
X166721297Y-126196121D01*
X166708889Y-126191094D01*
X166703443Y-126188537D01*
X166647428Y-126170709D01*
X166647428Y-126170708D01*
X166646047Y-126170268D01*
X166589174Y-126150730D01*
X166583388Y-126150329D01*
X166570305Y-126146165D01*
X166570304Y-126146165D01*
X166446950Y-126106907D01*
X166446843Y-126106835D01*
X166446832Y-126106870D01*
X166007256Y-125966480D01*
X166007256Y-125966479D01*
X165999435Y-125963981D01*
X165999349Y-125963926D01*
X165937154Y-125944091D01*
X165936280Y-125943812D01*
X165935498Y-125943563D01*
X165935498Y-125943562D01*
X165935449Y-125943547D01*
X165935448Y-125943547D01*
X165866798Y-125921622D01*
X165866334Y-125921505D01*
X165429908Y-125782328D01*
X165429864Y-125782298D01*
X165429860Y-125782313D01*
X164455136Y-125471035D01*
X164455136Y-125471032D01*
X164455124Y-125471031D01*
X163965616Y-125314652D01*
X163965616Y-125314653D01*
X163950795Y-125309919D01*
X163950795Y-125309918D01*
X163950794Y-125309917D01*
X163950789Y-125309917D01*
X163868024Y-125283477D01*
X163849236Y-125277475D01*
X163849235Y-125277474D01*
X163844340Y-125275911D01*
X163844285Y-125275894D01*
X163659780Y-125216956D01*
X163652062Y-125214490D01*
X163651983Y-125214440D01*
X163588462Y-125194174D01*
X163544214Y-125180040D01*
X163519289Y-125172078D01*
X163518880Y-125171975D01*
X163446021Y-125148731D01*
X163445184Y-125148460D01*
X162794225Y-124935684D01*
X162794225Y-124935685D01*
X162786460Y-124933147D01*
X162786299Y-124933043D01*
X162723887Y-124912695D01*
X162661381Y-124892264D01*
X162661378Y-124892263D01*
X162654229Y-124889927D01*
X162653408Y-124889716D01*
X161979617Y-124670042D01*
X161979616Y-124670041D01*
X161971427Y-124667371D01*
X161970916Y-124667040D01*
X161908958Y-124647004D01*
X161908766Y-124646941D01*
X161908766Y-124646942D01*
X161877194Y-124636648D01*
X161866742Y-124632552D01*
X161805906Y-124613671D01*
X161804511Y-124613229D01*
X161744498Y-124593823D01*
X161732174Y-124590788D01*
X160477110Y-124201275D01*
X160475948Y-124200908D01*
X159664559Y-123940326D01*
X159664558Y-123940326D01*
X159651127Y-123936012D01*
X159643429Y-123931426D01*
X159588524Y-123915906D01*
X159586430Y-123915234D01*
X159586428Y-123915232D01*
X159534192Y-123898457D01*
X159526198Y-123897004D01*
X159526276Y-123896574D01*
X159511668Y-123894182D01*
X159298833Y-123834023D01*
X159284633Y-123829061D01*
X159205718Y-123795989D01*
X159151497Y-123751923D01*
X159135999Y-123720807D01*
X159101511Y-123617248D01*
X159097821Y-123603621D01*
X159097391Y-123601578D01*
X159096735Y-123599713D01*
X159077253Y-123544360D01*
X159076608Y-123542476D01*
X159057438Y-123484913D01*
X159056526Y-123483037D01*
X159051081Y-123469992D01*
X159036812Y-123429446D01*
X159033125Y-123359673D01*
X159067746Y-123298984D01*
X159129682Y-123266646D01*
X159189423Y-123271478D01*
X159189687Y-123270363D01*
X159197004Y-123272092D01*
X159197115Y-123272100D01*
X159197239Y-123272147D01*
X159256849Y-123278556D01*
X160352594Y-123278555D01*
X160412205Y-123272147D01*
X160506930Y-123236817D01*
X160550290Y-123220645D01*
X160593623Y-123212827D01*
X165015821Y-123212827D01*
X165059154Y-123220645D01*
X165197239Y-123272147D01*
X165197238Y-123272147D01*
X165204166Y-123272891D01*
X165256849Y-123278556D01*
X166352594Y-123278555D01*
X166412205Y-123272147D01*
X166506930Y-123236817D01*
X166550290Y-123220645D01*
X166593623Y-123212827D01*
X167326989Y-123212827D01*
X167424531Y-123193423D01*
X167471982Y-123183985D01*
X167608564Y-123127411D01*
X167731485Y-123045278D01*
X167836020Y-122940743D01*
X167918153Y-122817822D01*
X167974727Y-122681240D01*
X167996441Y-122572080D01*
X168003569Y-122536247D01*
X168003569Y-116974924D01*
X168023254Y-116907885D01*
X168076058Y-116862130D01*
X168088508Y-116857237D01*
X168101111Y-116853053D01*
X168125651Y-116850416D01*
X168259719Y-116800411D01*
X168261885Y-116799693D01*
X168266929Y-116799517D01*
X168300946Y-116793380D01*
X172735390Y-116793380D01*
X172778723Y-116801198D01*
X172910685Y-116850416D01*
X172910684Y-116850416D01*
X172917612Y-116851160D01*
X172970295Y-116856825D01*
X174066040Y-116856824D01*
X174125651Y-116850416D01*
X174260499Y-116800121D01*
X174375714Y-116713871D01*
X174461964Y-116598656D01*
X174512259Y-116463808D01*
X174518668Y-116404198D01*
X174518667Y-116247087D01*
X174538351Y-116180048D01*
X174554981Y-116159411D01*
X175182952Y-115531442D01*
X175246455Y-115436401D01*
X175265084Y-115408521D01*
X175321658Y-115271939D01*
X175350500Y-115126944D01*
X175350500Y-104725783D01*
X175350500Y-104011321D01*
X175636687Y-104011321D01*
X175643088Y-104070849D01*
X175643090Y-104070856D01*
X175693332Y-104205563D01*
X175693336Y-104205570D01*
X175779496Y-104320664D01*
X175779499Y-104320667D01*
X175894593Y-104406827D01*
X175894600Y-104406831D01*
X176029307Y-104457073D01*
X176029314Y-104457075D01*
X176088842Y-104463476D01*
X176088859Y-104463477D01*
X176396687Y-104463477D01*
X176896687Y-104463477D01*
X177204515Y-104463477D01*
X177204531Y-104463476D01*
X177264059Y-104457075D01*
X177264066Y-104457073D01*
X177398773Y-104406831D01*
X177398780Y-104406827D01*
X177513874Y-104320667D01*
X177513877Y-104320664D01*
X177600037Y-104205570D01*
X177600041Y-104205563D01*
X177650283Y-104070856D01*
X177650285Y-104070849D01*
X177656686Y-104011321D01*
X177656687Y-104011304D01*
X177656687Y-103013477D01*
X176896687Y-103013477D01*
X176896687Y-104463477D01*
X176396687Y-104463477D01*
X176396687Y-103013477D01*
X175636687Y-103013477D01*
X175636687Y-104011321D01*
X175350500Y-104011321D01*
X175350500Y-101515632D01*
X175636687Y-101515632D01*
X175636687Y-102513477D01*
X176396687Y-102513477D01*
X176896687Y-102513477D01*
X177656687Y-102513477D01*
X177656687Y-101515649D01*
X177656686Y-101515632D01*
X177650285Y-101456104D01*
X177650283Y-101456097D01*
X177600041Y-101321390D01*
X177600037Y-101321383D01*
X177513877Y-101206289D01*
X177513874Y-101206286D01*
X177398780Y-101120126D01*
X177398773Y-101120122D01*
X177264066Y-101069880D01*
X177264059Y-101069878D01*
X177204531Y-101063477D01*
X176896687Y-101063477D01*
X176896687Y-102513477D01*
X176396687Y-102513477D01*
X176396687Y-101063477D01*
X176088842Y-101063477D01*
X176029314Y-101069878D01*
X176029307Y-101069880D01*
X175894600Y-101120122D01*
X175894593Y-101120126D01*
X175779499Y-101206286D01*
X175779496Y-101206289D01*
X175693336Y-101321383D01*
X175693332Y-101321390D01*
X175643090Y-101456097D01*
X175643088Y-101456104D01*
X175636687Y-101515632D01*
X175350500Y-101515632D01*
X175350500Y-101153268D01*
X175370185Y-101086229D01*
X175386815Y-101065591D01*
X175777494Y-100674911D01*
X175817721Y-100648033D01*
X175841376Y-100638236D01*
X175972486Y-100550631D01*
X176083986Y-100439131D01*
X176171591Y-100308021D01*
X176181388Y-100284366D01*
X176208266Y-100244139D01*
X177229639Y-99222768D01*
X177298050Y-99120382D01*
X177311771Y-99099847D01*
X177322918Y-99072934D01*
X177325874Y-99067438D01*
X177346205Y-99046842D01*
X177364364Y-99024309D01*
X177372815Y-99019888D01*
X177374960Y-99017716D01*
X177378475Y-99016927D01*
X177391753Y-99009982D01*
X177399018Y-99007273D01*
X177514233Y-98921023D01*
X177600483Y-98805808D01*
X177650778Y-98670960D01*
X177657187Y-98611350D01*
X177657186Y-96115605D01*
X177650778Y-96055994D01*
X177650777Y-96055990D01*
X177648808Y-96050709D01*
X177643826Y-95981017D01*
X177677313Y-95919695D01*
X177738637Y-95886213D01*
X177764991Y-95883380D01*
X178068383Y-95883380D01*
X178135422Y-95903065D01*
X178181177Y-95955869D01*
X178191121Y-96025027D01*
X178184566Y-96050709D01*
X178182596Y-96055989D01*
X178182595Y-96055993D01*
X178176188Y-96115593D01*
X178176188Y-96115600D01*
X178176187Y-96115612D01*
X178176187Y-98611347D01*
X178176188Y-98611353D01*
X178182595Y-98670960D01*
X178232889Y-98805805D01*
X178232893Y-98805812D01*
X178319138Y-98921019D01*
X178319141Y-98921023D01*
X178335979Y-98933628D01*
X178377848Y-98989559D01*
X178383284Y-99057084D01*
X178361283Y-99167689D01*
X178361283Y-99325382D01*
X178392044Y-99480025D01*
X178392047Y-99480037D01*
X178452385Y-99625708D01*
X178452392Y-99625721D01*
X178539993Y-99756824D01*
X178539996Y-99756828D01*
X178651490Y-99868322D01*
X178651494Y-99868325D01*
X178782597Y-99955926D01*
X178782610Y-99955933D01*
X178928281Y-100016271D01*
X178928286Y-100016273D01*
X178984706Y-100027495D01*
X179071159Y-100044693D01*
X179133070Y-100077078D01*
X179167644Y-100137794D01*
X179163905Y-100207563D01*
X179123038Y-100264235D01*
X179113327Y-100270537D01*
X179113440Y-100270705D01*
X178977265Y-100361694D01*
X178977261Y-100361697D01*
X178865767Y-100473191D01*
X178865764Y-100473195D01*
X178778163Y-100604298D01*
X178778156Y-100604311D01*
X178717818Y-100749982D01*
X178717815Y-100749994D01*
X178687054Y-100904637D01*
X178687054Y-100945332D01*
X178667369Y-101012371D01*
X178614565Y-101058126D01*
X178576310Y-101068621D01*
X178569206Y-101069384D01*
X178434358Y-101119679D01*
X178434351Y-101119683D01*
X178319142Y-101205929D01*
X178319139Y-101205932D01*
X178232893Y-101321141D01*
X178232889Y-101321148D01*
X178182595Y-101455994D01*
X178176188Y-101515593D01*
X178176188Y-101515600D01*
X178176187Y-101515612D01*
X178176187Y-104011347D01*
X178176188Y-104011353D01*
X178182595Y-104070960D01*
X178232889Y-104205805D01*
X178232893Y-104205812D01*
X178319139Y-104321021D01*
X178319142Y-104321024D01*
X178434351Y-104407270D01*
X178434358Y-104407274D01*
X178569204Y-104457568D01*
X178569203Y-104457568D01*
X178576131Y-104458312D01*
X178628814Y-104463977D01*
X179744559Y-104463976D01*
X179804170Y-104457568D01*
X179939018Y-104407273D01*
X180054233Y-104321023D01*
X180140483Y-104205808D01*
X180190778Y-104070960D01*
X180197187Y-104011350D01*
X180197186Y-101515605D01*
X180190778Y-101455994D01*
X180190777Y-101455992D01*
X180190777Y-101455989D01*
X180188995Y-101448446D01*
X180191484Y-101447857D01*
X180190408Y-101432861D01*
X180185038Y-101405908D01*
X180187809Y-101396632D01*
X180187376Y-101390587D01*
X180193144Y-101371557D01*
X180196200Y-101363782D01*
X180196948Y-101362663D01*
X180257291Y-101216981D01*
X180260760Y-101199539D01*
X180264812Y-101189232D01*
X180279714Y-101170035D01*
X180290979Y-101148498D01*
X180300757Y-101142928D01*
X180307657Y-101134041D01*
X180330571Y-101125948D01*
X180351692Y-101113920D01*
X180362929Y-101114521D01*
X180373539Y-101110775D01*
X180397192Y-101116356D01*
X180421462Y-101117656D01*
X180432694Y-101124733D01*
X180441541Y-101126821D01*
X180450136Y-101135723D01*
X180467897Y-101146914D01*
X180685925Y-101364942D01*
X180719410Y-101426265D01*
X180721533Y-101465873D01*
X180716187Y-101515604D01*
X180716187Y-101515611D01*
X180716187Y-101515612D01*
X180716187Y-104011347D01*
X180716188Y-104011353D01*
X180722595Y-104070960D01*
X180772889Y-104205805D01*
X180772893Y-104205812D01*
X180859139Y-104321021D01*
X180859142Y-104321024D01*
X180974351Y-104407270D01*
X180974358Y-104407274D01*
X181109204Y-104457568D01*
X181109203Y-104457568D01*
X181116131Y-104458312D01*
X181168814Y-104463977D01*
X182284559Y-104463976D01*
X182344170Y-104457568D01*
X182479018Y-104407273D01*
X182594233Y-104321023D01*
X182680483Y-104205808D01*
X182730778Y-104070960D01*
X182737187Y-104011350D01*
X182737186Y-101515605D01*
X182731986Y-101467234D01*
X182730778Y-101455993D01*
X182680484Y-101321148D01*
X182680480Y-101321141D01*
X182594234Y-101205932D01*
X182594231Y-101205929D01*
X182479022Y-101119683D01*
X182479015Y-101119679D01*
X182344169Y-101069385D01*
X182344170Y-101069385D01*
X182284570Y-101062978D01*
X182284568Y-101062977D01*
X182284560Y-101062977D01*
X182284552Y-101062977D01*
X182133794Y-101062977D01*
X182066755Y-101043292D01*
X182046113Y-101026658D01*
X181020637Y-100001182D01*
X180987152Y-99939859D01*
X180984318Y-99913501D01*
X180984318Y-99182187D01*
X181004003Y-99115148D01*
X181056807Y-99069393D01*
X181121573Y-99058898D01*
X181128503Y-99059643D01*
X181168814Y-99063977D01*
X182284559Y-99063976D01*
X182344170Y-99057568D01*
X182479018Y-99007273D01*
X182594233Y-98921023D01*
X182680483Y-98805808D01*
X182730778Y-98670960D01*
X182737187Y-98611350D01*
X182737186Y-96115605D01*
X182730778Y-96055994D01*
X182730776Y-96055989D01*
X182680484Y-95921148D01*
X182680480Y-95921141D01*
X182594234Y-95805932D01*
X182594231Y-95805929D01*
X182479022Y-95719683D01*
X182479015Y-95719679D01*
X182344169Y-95669385D01*
X182344170Y-95669385D01*
X182284570Y-95662978D01*
X182284568Y-95662977D01*
X182284560Y-95662977D01*
X182284552Y-95662977D01*
X182040971Y-95662977D01*
X181973932Y-95643292D01*
X181953290Y-95626658D01*
X180919867Y-94593235D01*
X180919865Y-94593232D01*
X180800994Y-94474361D01*
X180800993Y-94474360D01*
X180701652Y-94417006D01*
X180701651Y-94417005D01*
X180664060Y-94395302D01*
X180608158Y-94380323D01*
X180511334Y-94354379D01*
X180353220Y-94354379D01*
X180345624Y-94354379D01*
X180345608Y-94354380D01*
X172758324Y-94354380D01*
X172691285Y-94334695D01*
X172645530Y-94281891D01*
X172635586Y-94212733D01*
X172643763Y-94182928D01*
X172670840Y-94117556D01*
X172698822Y-94050002D01*
X172728041Y-93903111D01*
X172729723Y-93894655D01*
X172762108Y-93832744D01*
X172763604Y-93831220D01*
X175033369Y-91561454D01*
X175033374Y-91561451D01*
X175043577Y-91551247D01*
X175043579Y-91551247D01*
X175155383Y-91439443D01*
X175234440Y-91302511D01*
X175267103Y-91180610D01*
X175275363Y-91149785D01*
X175275363Y-90991670D01*
X175275363Y-84867444D01*
X181851872Y-84867444D01*
X181862279Y-84969302D01*
X181916966Y-85134338D01*
X181916968Y-85134343D01*
X182008242Y-85282320D01*
X182131180Y-85405258D01*
X182279157Y-85496532D01*
X182279162Y-85496534D01*
X182444198Y-85551221D01*
X182546056Y-85561628D01*
X182546069Y-85561629D01*
X182801872Y-85561629D01*
X183301872Y-85561629D01*
X183557675Y-85561629D01*
X183557687Y-85561628D01*
X183659545Y-85551221D01*
X183824581Y-85496534D01*
X183824586Y-85496532D01*
X183972563Y-85405258D01*
X184095501Y-85282320D01*
X184186775Y-85134343D01*
X184186777Y-85134338D01*
X184241464Y-84969302D01*
X184251871Y-84867444D01*
X184251872Y-84867431D01*
X184251872Y-84824129D01*
X183301872Y-84824129D01*
X183301872Y-85561629D01*
X182801872Y-85561629D01*
X182801872Y-84824129D01*
X181851872Y-84824129D01*
X181851872Y-84867444D01*
X175275363Y-84867444D01*
X175275363Y-76125234D01*
X175295048Y-76058195D01*
X175311682Y-76037553D01*
X175864563Y-75484672D01*
X176450171Y-74899063D01*
X176511492Y-74865580D01*
X176513659Y-74865129D01*
X176571594Y-74853604D01*
X176669006Y-74834228D01*
X176814688Y-74773885D01*
X176945798Y-74686280D01*
X177057298Y-74574780D01*
X177144903Y-74443670D01*
X177205246Y-74297988D01*
X177236009Y-74143333D01*
X177236009Y-73985649D01*
X177236009Y-73985646D01*
X177236008Y-73985644D01*
X177233790Y-73974493D01*
X177205246Y-73830994D01*
X177184538Y-73780999D01*
X177144906Y-73685318D01*
X177144899Y-73685305D01*
X177057298Y-73554202D01*
X177057295Y-73554198D01*
X176945801Y-73442704D01*
X176945797Y-73442701D01*
X176814694Y-73355100D01*
X176814681Y-73355093D01*
X176669010Y-73294755D01*
X176668998Y-73294752D01*
X176514354Y-73263991D01*
X176514351Y-73263991D01*
X176356667Y-73263991D01*
X176356664Y-73263991D01*
X176202019Y-73294752D01*
X176202007Y-73294755D01*
X176085118Y-73343172D01*
X176015649Y-73350641D01*
X175968775Y-73331713D01*
X175890430Y-73279364D01*
X175890417Y-73279357D01*
X175744746Y-73219019D01*
X175744734Y-73219016D01*
X175590090Y-73188255D01*
X175590087Y-73188255D01*
X175432403Y-73188255D01*
X175432400Y-73188255D01*
X175277755Y-73219016D01*
X175277743Y-73219019D01*
X175132072Y-73279357D01*
X175132059Y-73279364D01*
X175000956Y-73366965D01*
X175000952Y-73366968D01*
X174889458Y-73478462D01*
X174889455Y-73478466D01*
X174801854Y-73609569D01*
X174801847Y-73609582D01*
X174741509Y-73755253D01*
X174741506Y-73755263D01*
X174710606Y-73910605D01*
X174678221Y-73972516D01*
X174676670Y-73974094D01*
X173669910Y-74980853D01*
X173669908Y-74980855D01*
X173647996Y-75018808D01*
X173638735Y-75034851D01*
X173606340Y-75090960D01*
X173593409Y-75113358D01*
X173590852Y-75117786D01*
X173549928Y-75270514D01*
X173549928Y-75270516D01*
X173549928Y-75438617D01*
X173549929Y-75438630D01*
X173549929Y-78423112D01*
X173530244Y-78490151D01*
X173477440Y-78535906D01*
X173408282Y-78545850D01*
X173401738Y-78544729D01*
X173304791Y-78525445D01*
X173304787Y-78525445D01*
X173147103Y-78525445D01*
X173114620Y-78531906D01*
X173047691Y-78545219D01*
X172978099Y-78538991D01*
X172922922Y-78496127D01*
X172899678Y-78430237D01*
X172899500Y-78423601D01*
X172899500Y-75311959D01*
X172919185Y-75244920D01*
X172935820Y-75224277D01*
X172974617Y-75185480D01*
X172974620Y-75185477D01*
X173062225Y-75054367D01*
X173122568Y-74908685D01*
X173153331Y-74754030D01*
X173153331Y-74596346D01*
X173153331Y-74596343D01*
X173153330Y-74596341D01*
X173135148Y-74504934D01*
X173122568Y-74441691D01*
X173122566Y-74441686D01*
X173062228Y-74296015D01*
X173062221Y-74296002D01*
X172974620Y-74164899D01*
X172974617Y-74164895D01*
X172863123Y-74053401D01*
X172863119Y-74053398D01*
X172732016Y-73965797D01*
X172732003Y-73965790D01*
X172586332Y-73905452D01*
X172586320Y-73905449D01*
X172431676Y-73874688D01*
X172431673Y-73874688D01*
X172273989Y-73874688D01*
X172273986Y-73874688D01*
X172133583Y-73902616D01*
X172063992Y-73896389D01*
X172008814Y-73853526D01*
X171985570Y-73787636D01*
X171985392Y-73780999D01*
X171985392Y-63373144D01*
X176626530Y-63373144D01*
X176636937Y-63475002D01*
X176691624Y-63640038D01*
X176691626Y-63640043D01*
X176782900Y-63788020D01*
X176905838Y-63910958D01*
X177053815Y-64002232D01*
X177053820Y-64002234D01*
X177218856Y-64056921D01*
X177320714Y-64067328D01*
X177320727Y-64067329D01*
X177364030Y-64067329D01*
X177364030Y-63117329D01*
X176626530Y-63117329D01*
X176626530Y-63373144D01*
X171985392Y-63373144D01*
X171985392Y-59340345D01*
X171985393Y-59340332D01*
X171985393Y-59172231D01*
X171985393Y-59172229D01*
X171944469Y-59019501D01*
X171944467Y-59019498D01*
X171944467Y-59019496D01*
X171944466Y-59019495D01*
X171914593Y-58967754D01*
X171914591Y-58967752D01*
X171913903Y-58966561D01*
X171865412Y-58882570D01*
X171753608Y-58770766D01*
X171753607Y-58770765D01*
X171749277Y-58766435D01*
X171749266Y-58766425D01*
X168106571Y-55123730D01*
X168073086Y-55062407D01*
X168078070Y-54992715D01*
X168119942Y-54936782D01*
X168155247Y-54918343D01*
X168280838Y-54876727D01*
X168428916Y-54785391D01*
X168551939Y-54662368D01*
X168551939Y-54662367D01*
X168557046Y-54657261D01*
X168558662Y-54658877D01*
X168606657Y-54624872D01*
X168672558Y-54621889D01*
X168672732Y-54621019D01*
X168676264Y-54621721D01*
X168676456Y-54621713D01*
X168677076Y-54621883D01*
X168833357Y-54652969D01*
X168833360Y-54652970D01*
X168833362Y-54652970D01*
X168991048Y-54652970D01*
X168991049Y-54652969D01*
X169145701Y-54622207D01*
X169291383Y-54561864D01*
X169422493Y-54474259D01*
X169533993Y-54362759D01*
X169621598Y-54231649D01*
X169630608Y-54209898D01*
X169642092Y-54182172D01*
X169681941Y-54085967D01*
X169712704Y-53931312D01*
X169712704Y-53773628D01*
X169712704Y-53773625D01*
X169712703Y-53773623D01*
X169709654Y-53758296D01*
X169681941Y-53618973D01*
X169672328Y-53595765D01*
X169621601Y-53473297D01*
X169621594Y-53473284D01*
X169533993Y-53342181D01*
X169533990Y-53342177D01*
X169422496Y-53230683D01*
X169422492Y-53230680D01*
X169291389Y-53143079D01*
X169291376Y-53143072D01*
X169145705Y-53082734D01*
X169145693Y-53082731D01*
X168991049Y-53051970D01*
X168991046Y-53051970D01*
X168833362Y-53051970D01*
X168823041Y-53054023D01*
X168788436Y-53060906D01*
X168718844Y-53054677D01*
X168663667Y-53011814D01*
X168646540Y-52978291D01*
X168643276Y-52968442D01*
X168643275Y-52968439D01*
X168551941Y-52820365D01*
X168551938Y-52820361D01*
X168485609Y-52754032D01*
X168452124Y-52692709D01*
X168457108Y-52623017D01*
X168498980Y-52567084D01*
X168564444Y-52542667D01*
X168602033Y-52545728D01*
G37*
%TD.AperFunction*%
%TA.AperFunction,Conductor*%
G36*
X114511533Y-77288442D02*
G01*
X114565766Y-77332494D01*
X114581342Y-77363813D01*
X114618363Y-77475534D01*
X114618364Y-77475537D01*
X114710405Y-77624758D01*
X114834376Y-77748729D01*
X114834380Y-77748732D01*
X114837377Y-77750581D01*
X114839000Y-77752385D01*
X114840044Y-77753211D01*
X114839902Y-77753389D01*
X114884102Y-77802529D01*
X114895323Y-77871492D01*
X114867480Y-77935574D01*
X114837382Y-77961654D01*
X114834070Y-77963696D01*
X114834064Y-77963701D01*
X114710010Y-78087755D01*
X114617908Y-78237076D01*
X114617907Y-78237079D01*
X114562722Y-78403616D01*
X114562722Y-78403617D01*
X114562721Y-78403617D01*
X114552221Y-78506396D01*
X114552221Y-79029695D01*
X114549647Y-79038457D01*
X114550936Y-79047497D01*
X114542783Y-79077145D01*
X114526073Y-79117488D01*
X114526072Y-79117491D01*
X114497231Y-79262482D01*
X114497231Y-79262485D01*
X114497231Y-81783110D01*
X114497231Y-81783112D01*
X114497230Y-81783112D01*
X114526071Y-81928099D01*
X114526074Y-81928109D01*
X114582645Y-82064684D01*
X114605241Y-82098501D01*
X114605242Y-82098504D01*
X114664777Y-82187606D01*
X114664783Y-82187613D01*
X128373630Y-95896458D01*
X128407115Y-95957781D01*
X128409949Y-95984139D01*
X128409949Y-97108104D01*
X128390264Y-97175143D01*
X128373630Y-97195785D01*
X122763956Y-102805459D01*
X122702633Y-102838944D01*
X122676275Y-102841778D01*
X121381840Y-102841778D01*
X121334391Y-102832340D01*
X121310733Y-102822541D01*
X121310729Y-102822540D01*
X121310724Y-102822538D01*
X121156081Y-102791778D01*
X121156078Y-102791778D01*
X120998394Y-102791778D01*
X120998391Y-102791778D01*
X120843746Y-102822539D01*
X120843734Y-102822542D01*
X120698063Y-102882880D01*
X120698050Y-102882887D01*
X120566947Y-102970488D01*
X120566943Y-102970491D01*
X120455449Y-103081985D01*
X120455446Y-103081989D01*
X120367845Y-103213092D01*
X120367838Y-103213105D01*
X120307500Y-103358776D01*
X120307497Y-103358788D01*
X120276736Y-103513431D01*
X120276736Y-103671124D01*
X120307497Y-103825767D01*
X120307500Y-103825779D01*
X120367838Y-103971450D01*
X120367845Y-103971463D01*
X120455446Y-104102566D01*
X120455449Y-104102570D01*
X120566943Y-104214064D01*
X120566947Y-104214067D01*
X120698050Y-104301668D01*
X120698063Y-104301675D01*
X120775498Y-104333749D01*
X120843739Y-104362015D01*
X120998389Y-104392777D01*
X120998392Y-104392778D01*
X120998394Y-104392778D01*
X121156080Y-104392778D01*
X121156081Y-104392777D01*
X121257338Y-104372636D01*
X121310724Y-104362017D01*
X121310725Y-104362016D01*
X121310733Y-104362015D01*
X121334391Y-104352215D01*
X121381840Y-104342778D01*
X123112425Y-104342778D01*
X123223595Y-104320664D01*
X123257418Y-104313936D01*
X123375903Y-104264858D01*
X123393998Y-104257363D01*
X123393998Y-104257362D01*
X123394000Y-104257362D01*
X123454538Y-104216912D01*
X123454538Y-104216911D01*
X123454540Y-104216911D01*
X123487915Y-104194611D01*
X123516921Y-104175230D01*
X125403949Y-102288200D01*
X125465270Y-102254717D01*
X125534961Y-102259701D01*
X125590895Y-102301572D01*
X125594723Y-102306982D01*
X125600034Y-102314930D01*
X125613615Y-102335256D01*
X125725110Y-102446751D01*
X125725114Y-102446754D01*
X125856217Y-102534355D01*
X125856230Y-102534362D01*
X126001901Y-102594700D01*
X126001906Y-102594702D01*
X126066550Y-102607560D01*
X126157252Y-102625603D01*
X126219163Y-102657988D01*
X126220742Y-102659539D01*
X128332233Y-104771030D01*
X128332243Y-104771041D01*
X128336573Y-104775371D01*
X128336574Y-104775372D01*
X128448378Y-104887176D01*
X128448380Y-104887177D01*
X128448384Y-104887180D01*
X128568970Y-104956799D01*
X128585310Y-104966233D01*
X128684445Y-104992796D01*
X128738036Y-105007156D01*
X128738037Y-105007156D01*
X144962920Y-105007156D01*
X145029959Y-105026841D01*
X145031811Y-105028054D01*
X145163500Y-105116046D01*
X145163513Y-105116053D01*
X145301449Y-105173187D01*
X145309189Y-105176393D01*
X145438798Y-105202174D01*
X145463839Y-105207155D01*
X145463842Y-105207156D01*
X145463844Y-105207156D01*
X145621530Y-105207156D01*
X145621531Y-105207155D01*
X145776183Y-105176393D01*
X145921865Y-105116050D01*
X146052975Y-105028445D01*
X146164475Y-104916945D01*
X146252080Y-104785835D01*
X146312423Y-104640153D01*
X146343186Y-104485498D01*
X146343186Y-104327814D01*
X146343186Y-104327811D01*
X146343185Y-104327809D01*
X146328020Y-104251572D01*
X146312423Y-104173159D01*
X146294913Y-104130886D01*
X146252083Y-104027483D01*
X146252076Y-104027470D01*
X146161712Y-103892232D01*
X146140834Y-103825555D01*
X146150253Y-103775888D01*
X146199435Y-103657152D01*
X146230198Y-103502497D01*
X146230198Y-103344813D01*
X146230198Y-103344810D01*
X146230197Y-103344808D01*
X146229821Y-103342919D01*
X146199435Y-103190158D01*
X146184722Y-103154637D01*
X146139095Y-103044482D01*
X146139088Y-103044469D01*
X146051487Y-102913366D01*
X146051484Y-102913362D01*
X145939990Y-102801868D01*
X145939986Y-102801865D01*
X145808883Y-102714264D01*
X145808870Y-102714257D01*
X145663199Y-102653919D01*
X145663189Y-102653916D01*
X145507847Y-102623016D01*
X145445936Y-102590631D01*
X145444358Y-102589080D01*
X144918598Y-102063320D01*
X144918596Y-102063317D01*
X144799725Y-101944446D01*
X144799724Y-101944445D01*
X144712912Y-101894325D01*
X144712912Y-101894324D01*
X144712908Y-101894323D01*
X144662793Y-101865388D01*
X144510065Y-101824464D01*
X144351951Y-101824464D01*
X144344355Y-101824464D01*
X144344339Y-101824465D01*
X130081194Y-101824465D01*
X130014155Y-101804780D01*
X130012303Y-101803567D01*
X129880613Y-101715574D01*
X129880600Y-101715567D01*
X129734929Y-101655229D01*
X129734917Y-101655226D01*
X129580273Y-101624465D01*
X129580270Y-101624465D01*
X129422586Y-101624465D01*
X129422583Y-101624465D01*
X129267938Y-101655226D01*
X129267926Y-101655229D01*
X129122255Y-101715567D01*
X129122242Y-101715574D01*
X128991139Y-101803175D01*
X128991135Y-101803178D01*
X128879641Y-101914672D01*
X128879638Y-101914676D01*
X128792037Y-102045779D01*
X128792030Y-102045792D01*
X128731692Y-102191463D01*
X128731689Y-102191475D01*
X128700928Y-102346118D01*
X128700928Y-102503811D01*
X128731689Y-102658454D01*
X128731692Y-102658466D01*
X128792030Y-102804137D01*
X128792037Y-102804150D01*
X128879638Y-102935253D01*
X128879641Y-102935257D01*
X128991135Y-103046751D01*
X128991139Y-103046754D01*
X129122242Y-103134355D01*
X129122255Y-103134362D01*
X129267926Y-103194700D01*
X129267931Y-103194702D01*
X129360449Y-103213105D01*
X129422581Y-103225464D01*
X129422584Y-103225465D01*
X129422586Y-103225465D01*
X129580272Y-103225465D01*
X129580273Y-103225464D01*
X129734925Y-103194702D01*
X129880607Y-103134359D01*
X129909318Y-103115175D01*
X130012303Y-103046363D01*
X130078981Y-103025485D01*
X130081194Y-103025465D01*
X144130911Y-103025465D01*
X144197950Y-103045150D01*
X144218592Y-103061784D01*
X144595123Y-103438315D01*
X144604186Y-103454913D01*
X144617317Y-103468521D01*
X144627723Y-103498017D01*
X144628608Y-103499638D01*
X144629059Y-103501804D01*
X144660122Y-103657964D01*
X144653895Y-103727556D01*
X144611032Y-103782733D01*
X144545143Y-103805978D01*
X144538505Y-103806156D01*
X129117191Y-103806156D01*
X129050152Y-103786471D01*
X129029510Y-103769837D01*
X127069977Y-101810304D01*
X127036492Y-101748981D01*
X127036041Y-101746814D01*
X127017822Y-101655226D01*
X127005140Y-101591468D01*
X126977590Y-101524955D01*
X126944800Y-101445792D01*
X126944793Y-101445779D01*
X126857192Y-101314676D01*
X126857189Y-101314672D01*
X126745694Y-101203177D01*
X126724823Y-101189232D01*
X126717430Y-101184292D01*
X126672626Y-101130681D01*
X126663918Y-101061356D01*
X126694072Y-100998328D01*
X126698621Y-100993528D01*
X127340921Y-100351228D01*
X127402242Y-100317745D01*
X127471934Y-100322729D01*
X127527867Y-100364601D01*
X127531701Y-100370018D01*
X127552008Y-100400409D01*
X127663504Y-100511905D01*
X127663508Y-100511908D01*
X127794611Y-100599509D01*
X127794624Y-100599516D01*
X127888104Y-100638236D01*
X127940300Y-100659856D01*
X128094950Y-100690618D01*
X128094953Y-100690619D01*
X128094955Y-100690619D01*
X128252641Y-100690619D01*
X128252642Y-100690618D01*
X128407294Y-100659856D01*
X128552976Y-100599513D01*
X128684086Y-100511908D01*
X128795586Y-100400408D01*
X128883191Y-100269298D01*
X128943534Y-100123616D01*
X128974297Y-99968961D01*
X128974435Y-99968269D01*
X129006820Y-99906358D01*
X129008315Y-99904835D01*
X132562554Y-96350598D01*
X132623877Y-96317113D01*
X132650235Y-96314279D01*
X162941388Y-96314279D01*
X163008427Y-96333964D01*
X163044490Y-96369389D01*
X163097409Y-96448588D01*
X163097415Y-96448596D01*
X163208909Y-96560090D01*
X163208913Y-96560093D01*
X163340016Y-96647694D01*
X163340029Y-96647701D01*
X163485700Y-96708039D01*
X163485705Y-96708041D01*
X163617873Y-96734331D01*
X163640355Y-96738803D01*
X163640358Y-96738804D01*
X163640360Y-96738804D01*
X163798046Y-96738804D01*
X163798047Y-96738803D01*
X163952699Y-96708041D01*
X164098381Y-96647698D01*
X164229491Y-96560093D01*
X164340991Y-96448593D01*
X164428596Y-96317483D01*
X164488939Y-96171801D01*
X164519702Y-96017146D01*
X164519702Y-96007380D01*
X164539387Y-95940341D01*
X164592191Y-95894586D01*
X164643702Y-95883380D01*
X165917271Y-95883380D01*
X165984310Y-95903065D01*
X166030065Y-95955869D01*
X166040009Y-96025027D01*
X166020373Y-96076271D01*
X165990609Y-96120814D01*
X165990602Y-96120827D01*
X165930264Y-96266498D01*
X165930261Y-96266508D01*
X165899361Y-96421850D01*
X165866976Y-96483761D01*
X165865425Y-96485339D01*
X162964309Y-99386454D01*
X162964308Y-99386456D01*
X162925649Y-99453416D01*
X162885251Y-99523387D01*
X162844327Y-99676115D01*
X162844327Y-99676117D01*
X162844327Y-99844218D01*
X162844328Y-99844231D01*
X162844328Y-107473655D01*
X162824643Y-107540694D01*
X162771839Y-107586449D01*
X162763661Y-107589837D01*
X162702499Y-107612648D01*
X162702492Y-107612652D01*
X162587284Y-107698898D01*
X162587283Y-107698899D01*
X162587282Y-107698900D01*
X162525630Y-107781257D01*
X162469696Y-107823128D01*
X162426363Y-107830946D01*
X158463293Y-107830946D01*
X158396254Y-107811261D01*
X158364026Y-107781257D01*
X158302374Y-107698900D01*
X158279537Y-107681804D01*
X158187163Y-107612652D01*
X158187156Y-107612648D01*
X158052310Y-107562354D01*
X158052311Y-107562354D01*
X157992711Y-107555947D01*
X157992709Y-107555946D01*
X157992701Y-107555946D01*
X157992692Y-107555946D01*
X156896957Y-107555946D01*
X156896951Y-107555947D01*
X156837344Y-107562354D01*
X156702499Y-107612648D01*
X156702492Y-107612652D01*
X156587283Y-107698898D01*
X156587280Y-107698901D01*
X156501034Y-107814110D01*
X156501030Y-107814117D01*
X156450736Y-107948963D01*
X156444329Y-108008562D01*
X156444328Y-108008581D01*
X156444328Y-108854316D01*
X156444329Y-108854322D01*
X156450736Y-108913929D01*
X156501030Y-109048774D01*
X156501034Y-109048781D01*
X156587280Y-109163990D01*
X156587283Y-109163993D01*
X156702492Y-109250239D01*
X156702499Y-109250243D01*
X156837345Y-109300537D01*
X156837344Y-109300537D01*
X156844272Y-109301281D01*
X156896955Y-109306946D01*
X157992700Y-109306945D01*
X158052311Y-109300537D01*
X158187159Y-109250242D01*
X158302374Y-109163992D01*
X158364027Y-109081634D01*
X158419960Y-109039764D01*
X158463293Y-109031946D01*
X162426363Y-109031946D01*
X162493402Y-109051631D01*
X162525628Y-109081633D01*
X162587282Y-109163992D01*
X162628508Y-109194854D01*
X162702492Y-109250239D01*
X162702499Y-109250243D01*
X162837345Y-109300537D01*
X162837344Y-109300537D01*
X162844272Y-109301281D01*
X162896955Y-109306946D01*
X163992700Y-109306945D01*
X163992702Y-109306944D01*
X163992715Y-109306944D01*
X164030587Y-109302872D01*
X164034096Y-109302495D01*
X164102856Y-109314900D01*
X164153993Y-109362510D01*
X164171352Y-109425784D01*
X164171352Y-111187107D01*
X164151667Y-111254146D01*
X164098863Y-111299901D01*
X164034098Y-111310396D01*
X163992701Y-111305946D01*
X163992694Y-111305946D01*
X162896957Y-111305946D01*
X162896951Y-111305947D01*
X162837344Y-111312354D01*
X162702499Y-111362648D01*
X162702496Y-111362650D01*
X162644304Y-111406213D01*
X162578839Y-111430630D01*
X162569993Y-111430946D01*
X161048256Y-111430946D01*
X161019422Y-111436680D01*
X161019423Y-111436681D01*
X160903273Y-111459785D01*
X160903269Y-111459786D01*
X160838197Y-111486740D01*
X160838191Y-111486742D01*
X160831876Y-111489359D01*
X160766685Y-111516362D01*
X160688822Y-111568388D01*
X160684374Y-111571359D01*
X160684374Y-111571360D01*
X160643766Y-111598492D01*
X160643761Y-111598496D01*
X159371184Y-112871072D01*
X159309861Y-112904557D01*
X159240169Y-112899573D01*
X159195822Y-112871072D01*
X158481646Y-112156896D01*
X158448161Y-112095573D01*
X158445327Y-112069215D01*
X158445327Y-111758575D01*
X158445326Y-111758569D01*
X158445325Y-111758562D01*
X158438919Y-111698963D01*
X158437467Y-111695071D01*
X158388625Y-111564117D01*
X158388621Y-111564110D01*
X158302375Y-111448901D01*
X158302372Y-111448898D01*
X158187163Y-111362652D01*
X158187156Y-111362648D01*
X158052310Y-111312354D01*
X158052311Y-111312354D01*
X157992711Y-111305947D01*
X157992709Y-111305946D01*
X157992701Y-111305946D01*
X157992692Y-111305946D01*
X156896957Y-111305946D01*
X156896951Y-111305947D01*
X156837344Y-111312354D01*
X156702499Y-111362648D01*
X156702492Y-111362652D01*
X156587283Y-111448898D01*
X156587280Y-111448901D01*
X156501034Y-111564110D01*
X156501030Y-111564117D01*
X156450736Y-111698963D01*
X156444413Y-111757783D01*
X156444329Y-111758569D01*
X156444328Y-111758581D01*
X156444328Y-112604316D01*
X156444329Y-112604322D01*
X156450736Y-112663929D01*
X156501030Y-112798774D01*
X156501034Y-112798781D01*
X156587280Y-112913990D01*
X156587283Y-112913993D01*
X156702492Y-113000239D01*
X156702499Y-113000243D01*
X156718302Y-113006137D01*
X156837345Y-113050537D01*
X156896955Y-113056946D01*
X157207597Y-113056945D01*
X157274636Y-113076629D01*
X157295278Y-113093264D01*
X158423026Y-114221012D01*
X158426454Y-114227291D01*
X158432310Y-114231403D01*
X158442977Y-114257549D01*
X158456511Y-114282335D01*
X158456000Y-114289472D01*
X158458703Y-114296096D01*
X158453541Y-114323855D01*
X158451527Y-114352027D01*
X158446927Y-114359428D01*
X158445931Y-114364788D01*
X158429612Y-114387291D01*
X158425648Y-114393672D01*
X158424363Y-114395036D01*
X158320770Y-114498631D01*
X158311547Y-114512435D01*
X158305818Y-114521008D01*
X158305816Y-114521011D01*
X158238635Y-114621555D01*
X158182065Y-114758129D01*
X158182062Y-114758139D01*
X158153222Y-114903126D01*
X158153222Y-120671845D01*
X158150457Y-120681260D01*
X158151735Y-120690991D01*
X158140775Y-120714232D01*
X158133537Y-120738884D01*
X158126120Y-120745310D01*
X158121935Y-120754187D01*
X158100149Y-120767814D01*
X158080733Y-120784639D01*
X158071020Y-120786035D01*
X158062700Y-120791240D01*
X158037008Y-120790925D01*
X158011575Y-120794583D01*
X158002647Y-120790505D01*
X157992835Y-120790386D01*
X157971391Y-120776231D01*
X157948019Y-120765558D01*
X157941158Y-120756275D01*
X157934523Y-120751896D01*
X157915806Y-120721974D01*
X157890979Y-120665803D01*
X157889227Y-120661635D01*
X157684362Y-120148290D01*
X157557003Y-119829156D01*
X157552284Y-119812237D01*
X157550108Y-119805080D01*
X157528861Y-119758281D01*
X157527674Y-119755666D01*
X157507561Y-119705265D01*
X157500506Y-119695819D01*
X157327406Y-119314522D01*
X157325679Y-119310530D01*
X157311852Y-119276993D01*
X157074161Y-118700463D01*
X157069471Y-118686911D01*
X157069211Y-118685992D01*
X157069210Y-118685983D01*
X157049521Y-118640208D01*
X157045025Y-118629755D01*
X157045025Y-118629754D01*
X157044646Y-118628873D01*
X157021004Y-118571529D01*
X157018661Y-118568466D01*
X156731968Y-117901946D01*
X156727286Y-117889174D01*
X156725853Y-117884482D01*
X156711045Y-117851971D01*
X156701260Y-117830488D01*
X156700402Y-117828560D01*
X156700368Y-117828482D01*
X156676796Y-117773679D01*
X156676236Y-117772970D01*
X156672723Y-117764887D01*
X156672648Y-117764293D01*
X156670517Y-117759868D01*
X156670517Y-117759866D01*
X156644798Y-117706458D01*
X156643692Y-117704095D01*
X156636670Y-117688677D01*
X156626823Y-117667058D01*
X156617424Y-117636445D01*
X156536898Y-117162623D01*
X156535809Y-117154641D01*
X156525352Y-117053481D01*
X156502237Y-116821533D01*
X156502337Y-116795981D01*
X156502466Y-116794791D01*
X156494608Y-116744401D01*
X156494447Y-116743370D01*
X156489289Y-116691605D01*
X156484326Y-116678464D01*
X156482161Y-116664581D01*
X156461108Y-116616992D01*
X156442726Y-116568321D01*
X156434529Y-116556911D01*
X156428846Y-116544063D01*
X156398348Y-116506218D01*
X156398348Y-116506217D01*
X156396190Y-116503539D01*
X156365841Y-116461290D01*
X156354974Y-116452392D01*
X156346913Y-116442389D01*
X156346156Y-116441451D01*
X156346153Y-116441447D01*
X156306892Y-116412780D01*
X156304116Y-116410753D01*
X156263873Y-116377804D01*
X156251072Y-116372022D01*
X156240698Y-116364447D01*
X156240697Y-116364446D01*
X156239726Y-116363737D01*
X156239723Y-116363735D01*
X156194395Y-116346211D01*
X156188067Y-116343561D01*
X156143771Y-116323553D01*
X156142572Y-116323357D01*
X156142572Y-116323356D01*
X156129904Y-116321279D01*
X156116806Y-116316216D01*
X156065083Y-116310654D01*
X156061699Y-116310100D01*
X156061682Y-116310098D01*
X156050203Y-116308216D01*
X156013724Y-116302238D01*
X156013721Y-116302238D01*
X156013720Y-116302238D01*
X156013719Y-116302237D01*
X156012513Y-116302358D01*
X155986981Y-116302257D01*
X155932454Y-116296395D01*
X155926694Y-116295638D01*
X154930077Y-116140987D01*
X154926603Y-116140398D01*
X154196360Y-116005729D01*
X154174938Y-115999750D01*
X154165911Y-115996332D01*
X154125884Y-115992307D01*
X154125884Y-115992306D01*
X154120805Y-115991795D01*
X154076258Y-115983581D01*
X154055506Y-115985231D01*
X154044407Y-115984116D01*
X154044406Y-115984116D01*
X154034792Y-115983150D01*
X154034781Y-115983150D01*
X153995083Y-115989621D01*
X153990046Y-115990442D01*
X153944889Y-115994037D01*
X153925270Y-116001003D01*
X153914249Y-116002800D01*
X153914248Y-116002799D01*
X153914248Y-116002800D01*
X153198505Y-116119488D01*
X153198231Y-116119533D01*
X153133570Y-116129925D01*
X153132795Y-116130157D01*
X153132794Y-116130157D01*
X153132500Y-116130244D01*
X153072961Y-116157074D01*
X153072962Y-116157075D01*
X153072693Y-116157196D01*
X153072692Y-116157197D01*
X153072597Y-116157239D01*
X153072378Y-116157337D01*
X153013306Y-116183800D01*
X153012861Y-116184161D01*
X153012337Y-116184398D01*
X153012311Y-116184418D01*
X153012311Y-116184419D01*
X152961720Y-116225766D01*
X152961506Y-116225941D01*
X152785793Y-116368893D01*
X152785138Y-116369421D01*
X152584647Y-116530282D01*
X152574366Y-116538530D01*
X152569525Y-116540783D01*
X152523065Y-116579690D01*
X152522011Y-116580537D01*
X152471076Y-116621405D01*
X152437906Y-116640455D01*
X152371588Y-116665908D01*
X152359253Y-116669916D01*
X152327203Y-116678504D01*
X152327202Y-116678504D01*
X152312714Y-116686868D01*
X152304260Y-116691750D01*
X152279537Y-116701239D01*
X152247444Y-116724552D01*
X152241817Y-116727801D01*
X152241815Y-116727801D01*
X152213072Y-116744397D01*
X152213067Y-116744401D01*
X152201239Y-116756229D01*
X152194336Y-116763131D01*
X152172916Y-116778693D01*
X152147954Y-116809512D01*
X152143362Y-116814105D01*
X152143353Y-116814116D01*
X152119887Y-116837583D01*
X152119886Y-116837585D01*
X152111523Y-116852069D01*
X152105814Y-116861043D01*
X152103277Y-116864676D01*
X152089975Y-116881103D01*
X152086743Y-116888360D01*
X152079959Y-116898078D01*
X152061566Y-116912822D01*
X152046293Y-116930784D01*
X152038101Y-116935716D01*
X152010193Y-116951085D01*
X151986668Y-116961037D01*
X151985532Y-116961384D01*
X151985530Y-116961385D01*
X151944287Y-116987164D01*
X151941376Y-116988985D01*
X151895792Y-117014090D01*
X151885679Y-117023801D01*
X151874783Y-117030613D01*
X151874781Y-117030613D01*
X151781964Y-117088633D01*
X151736233Y-117105863D01*
X151209404Y-117191944D01*
X151169243Y-117191916D01*
X150571507Y-117093399D01*
X150570575Y-117093242D01*
X150561820Y-117091730D01*
X150535533Y-117083194D01*
X150502320Y-117081457D01*
X150495055Y-117080203D01*
X150470045Y-117067918D01*
X150443758Y-117058684D01*
X150435235Y-117050821D01*
X150432342Y-117049400D01*
X150430641Y-117046582D01*
X150421625Y-117038264D01*
X149969921Y-116506219D01*
X149315483Y-115735380D01*
X149287101Y-115671537D01*
X149288246Y-115631690D01*
X150656885Y-108523333D01*
X150656884Y-108523333D01*
X150656884Y-108523332D01*
X114306377Y-109141680D01*
X114239012Y-109123139D01*
X114211313Y-109099767D01*
X112534159Y-107200146D01*
X112252500Y-106881126D01*
X112244709Y-106864476D01*
X112232669Y-106850585D01*
X112230208Y-106833489D01*
X112222887Y-106817844D01*
X112225334Y-106799622D01*
X112222716Y-106781428D01*
X112229888Y-106765716D01*
X112232188Y-106748596D01*
X112244097Y-106734590D01*
X112251732Y-106717868D01*
X112273849Y-106699604D01*
X112277451Y-106695369D01*
X112278402Y-106694752D01*
X112280886Y-106693154D01*
X112305958Y-106678680D01*
X112310558Y-106674078D01*
X112317128Y-106669855D01*
X112317823Y-106669288D01*
X112317829Y-106669285D01*
X112357862Y-106626775D01*
X112399144Y-106585494D01*
X112402951Y-106578897D01*
X112408178Y-106573348D01*
X112408180Y-106573345D01*
X112425922Y-106540369D01*
X112435844Y-106521927D01*
X112465036Y-106471366D01*
X112467008Y-106464004D01*
X112470619Y-106457294D01*
X112484033Y-106400464D01*
X112499144Y-106344072D01*
X112499144Y-106336452D01*
X112500895Y-106329035D01*
X112499199Y-106272534D01*
X112499144Y-106268816D01*
X112499144Y-106212285D01*
X112498083Y-106204229D01*
X112498748Y-106204141D01*
X112496738Y-106190497D01*
X112494407Y-106112810D01*
X112494378Y-106111617D01*
X112493923Y-106088810D01*
X112484587Y-105620379D01*
X112484798Y-105615547D01*
X112483850Y-105576572D01*
X112483095Y-105545497D01*
X112481804Y-105480699D01*
X112481803Y-105480697D01*
X112481699Y-105475445D01*
X112481276Y-105470625D01*
X112477323Y-105307906D01*
X112477288Y-105304592D01*
X112479145Y-104757641D01*
X112482055Y-104745358D01*
X112481064Y-104736330D01*
X112492131Y-104702821D01*
X112519571Y-104647686D01*
X112553918Y-104605478D01*
X112899371Y-104333749D01*
X112957759Y-104308565D01*
X113244032Y-104265913D01*
X113269372Y-104264762D01*
X113271044Y-104264858D01*
X113318201Y-104255064D01*
X113325054Y-104253842D01*
X113372716Y-104246742D01*
X113374252Y-104246074D01*
X113398433Y-104238401D01*
X113995784Y-104114346D01*
X114040839Y-104108782D01*
X114060075Y-104100994D01*
X114080387Y-104096776D01*
X114116384Y-104078645D01*
X114125620Y-104074459D01*
X114162991Y-104059330D01*
X114162991Y-104059329D01*
X114162993Y-104059329D01*
X114170627Y-104053567D01*
X114170630Y-104053566D01*
X114179559Y-104046827D01*
X114198086Y-104037497D01*
X114231947Y-104007292D01*
X114235989Y-104004242D01*
X114236008Y-104004227D01*
X114268185Y-103979946D01*
X114280948Y-103963586D01*
X114296432Y-103949775D01*
X114321330Y-103911823D01*
X114349247Y-103876041D01*
X114352975Y-103867239D01*
X114363482Y-103847575D01*
X114368723Y-103839588D01*
X114381357Y-103801312D01*
X114384925Y-103791822D01*
X114660086Y-103142321D01*
X114666964Y-103132598D01*
X114685729Y-103081791D01*
X114706850Y-103031939D01*
X114706851Y-103031927D01*
X114708668Y-103025363D01*
X114711118Y-103015621D01*
X114712625Y-103008976D01*
X114717334Y-102957938D01*
X114717335Y-102957934D01*
X114717601Y-102955041D01*
X114725100Y-102901425D01*
X114723640Y-102889608D01*
X114724735Y-102877751D01*
X114715584Y-102824372D01*
X114708948Y-102770635D01*
X114704480Y-102759599D01*
X114702468Y-102747861D01*
X114679813Y-102698669D01*
X114659495Y-102648480D01*
X114652322Y-102638975D01*
X114647342Y-102628161D01*
X114647341Y-102628159D01*
X114614589Y-102588748D01*
X114612733Y-102586515D01*
X114580112Y-102543289D01*
X114570722Y-102535963D01*
X114563113Y-102526807D01*
X114521282Y-102497218D01*
X114516617Y-102493752D01*
X114476210Y-102462228D01*
X114470434Y-102458831D01*
X114454325Y-102449859D01*
X114439346Y-102439264D01*
X114439344Y-102439262D01*
X114399131Y-102410820D01*
X114399130Y-102410818D01*
X114330481Y-102362263D01*
X114327586Y-102360215D01*
X114287240Y-102328074D01*
X114273958Y-102322287D01*
X114268108Y-102318150D01*
X114263560Y-102314933D01*
X114263560Y-102314932D01*
X114263556Y-102314930D01*
X114262135Y-102313925D01*
X114217056Y-102297275D01*
X114210491Y-102294635D01*
X114184424Y-102283278D01*
X114076241Y-102236143D01*
X114038380Y-102210435D01*
X113872637Y-102045779D01*
X113703909Y-101878158D01*
X113688783Y-101859946D01*
X113664752Y-101824629D01*
X113658295Y-101814037D01*
X113463966Y-101456104D01*
X112952803Y-100514594D01*
X112942564Y-100489544D01*
X112901699Y-100346697D01*
X112902186Y-100276831D01*
X112940369Y-100218318D01*
X113004125Y-100189736D01*
X113020917Y-100188594D01*
X113383026Y-100188594D01*
X113383026Y-82188594D01*
X113104964Y-82188594D01*
X113037925Y-82168909D01*
X112992170Y-82116105D01*
X112982226Y-82046947D01*
X112988288Y-82022609D01*
X112995671Y-82002093D01*
X113090168Y-81739489D01*
X113093288Y-81731667D01*
X113123970Y-81661766D01*
X113127910Y-81653614D01*
X113135294Y-81639661D01*
X113986445Y-80031252D01*
X113986613Y-80030938D01*
X114016868Y-79974811D01*
X114016870Y-79974799D01*
X114017729Y-79972544D01*
X114017730Y-79972542D01*
X114017733Y-79972535D01*
X114018205Y-79971291D01*
X114018226Y-79971198D01*
X114018228Y-79971195D01*
X114032435Y-79909095D01*
X114032563Y-79908545D01*
X114134892Y-79476535D01*
X114149739Y-79425782D01*
X114150039Y-79412585D01*
X114153049Y-79399877D01*
X114153052Y-79399873D01*
X114153053Y-79399861D01*
X114153081Y-79399746D01*
X114151629Y-79350106D01*
X114151609Y-79343673D01*
X114151701Y-79339651D01*
X114153386Y-79265693D01*
X114153413Y-79265406D01*
X114155092Y-79190838D01*
X114155095Y-79190838D01*
X114155092Y-79190809D01*
X114156577Y-79125709D01*
X114156575Y-79125704D01*
X114156761Y-79117577D01*
X114156749Y-79117290D01*
X114157308Y-79092469D01*
X114158790Y-79026683D01*
X114159098Y-79020345D01*
X114253003Y-77758480D01*
X114253846Y-77750581D01*
X114262769Y-77686620D01*
X114265552Y-77672627D01*
X114343609Y-77371683D01*
X114379493Y-77311736D01*
X114442093Y-77280704D01*
X114511533Y-77288442D01*
G37*
%TD.AperFunction*%
%TA.AperFunction,Conductor*%
G36*
X162637032Y-112951631D02*
G01*
X162644304Y-112956679D01*
X162702496Y-113000241D01*
X162702499Y-113000243D01*
X162837345Y-113050537D01*
X162837344Y-113050537D01*
X162844272Y-113051281D01*
X162896955Y-113056946D01*
X163992700Y-113056945D01*
X163992702Y-113056944D01*
X163992715Y-113056944D01*
X164030587Y-113052872D01*
X164034096Y-113052495D01*
X164102856Y-113064900D01*
X164153993Y-113112510D01*
X164171352Y-113175784D01*
X164171352Y-117533516D01*
X164171351Y-117533534D01*
X164171351Y-117699240D01*
X164171350Y-117699240D01*
X164177088Y-117720655D01*
X164212275Y-117851971D01*
X164212554Y-117852454D01*
X164220696Y-117866556D01*
X164237169Y-117934456D01*
X164214316Y-118000483D01*
X164159395Y-118043674D01*
X164113309Y-118052556D01*
X160823187Y-118052556D01*
X160756148Y-118032871D01*
X160723920Y-118002867D01*
X160662268Y-117920510D01*
X160614141Y-117884482D01*
X160547057Y-117834262D01*
X160547050Y-117834258D01*
X160412204Y-117783964D01*
X160412205Y-117783964D01*
X160352605Y-117777557D01*
X160352603Y-117777556D01*
X160352595Y-117777556D01*
X160352587Y-117777556D01*
X159778222Y-117777556D01*
X159711183Y-117757871D01*
X159665428Y-117705067D01*
X159654222Y-117653556D01*
X159654222Y-115339277D01*
X159673907Y-115272238D01*
X159690541Y-115251596D01*
X159866451Y-115075686D01*
X159866456Y-115075681D01*
X159885297Y-115047483D01*
X159946169Y-114956382D01*
X159946170Y-114956380D01*
X159948584Y-114952767D01*
X159948585Y-114952764D01*
X159948588Y-114952760D01*
X160005162Y-114816178D01*
X160034004Y-114671183D01*
X160034004Y-114382351D01*
X160053689Y-114315312D01*
X160070323Y-114294670D01*
X161396728Y-112968265D01*
X161458051Y-112934780D01*
X161484409Y-112931946D01*
X162569993Y-112931946D01*
X162637032Y-112951631D01*
G37*
%TD.AperFunction*%
%TA.AperFunction,Conductor*%
G36*
X175595422Y-95903065D02*
G01*
X175641177Y-95955869D01*
X175651121Y-96025027D01*
X175644566Y-96050709D01*
X175642596Y-96055989D01*
X175642595Y-96055993D01*
X175636188Y-96115593D01*
X175636188Y-96115600D01*
X175636187Y-96115612D01*
X175636187Y-98611347D01*
X175636188Y-98611355D01*
X175637819Y-98626526D01*
X175625411Y-98695285D01*
X175602210Y-98727459D01*
X175146900Y-99182769D01*
X175106677Y-99209647D01*
X175083016Y-99219448D01*
X175083015Y-99219449D01*
X174951912Y-99307049D01*
X174951904Y-99307055D01*
X174840410Y-99418549D01*
X174840404Y-99418557D01*
X174752804Y-99549660D01*
X174752803Y-99549661D01*
X174743002Y-99573322D01*
X174716124Y-99613545D01*
X174017049Y-100312620D01*
X173975082Y-100375428D01*
X173975083Y-100375429D01*
X173934914Y-100435547D01*
X173878343Y-100572121D01*
X173878340Y-100572131D01*
X173849500Y-100717118D01*
X173849500Y-104127572D01*
X173829815Y-104194611D01*
X173777011Y-104240366D01*
X173725500Y-104251572D01*
X173222997Y-104251572D01*
X173155958Y-104231887D01*
X173123730Y-104201883D01*
X173062078Y-104119526D01*
X173037322Y-104100994D01*
X172946867Y-104033278D01*
X172946860Y-104033274D01*
X172812014Y-103982980D01*
X172812015Y-103982980D01*
X172752415Y-103976573D01*
X172752413Y-103976572D01*
X172752405Y-103976572D01*
X172752396Y-103976572D01*
X171656661Y-103976572D01*
X171656655Y-103976573D01*
X171597048Y-103982980D01*
X171462203Y-104033274D01*
X171462196Y-104033278D01*
X171346988Y-104119524D01*
X171346987Y-104119525D01*
X171346986Y-104119526D01*
X171290143Y-104195459D01*
X171285334Y-104201883D01*
X171229400Y-104243754D01*
X171186067Y-104251572D01*
X167222997Y-104251572D01*
X167155958Y-104231887D01*
X167123730Y-104201883D01*
X167062078Y-104119526D01*
X167037322Y-104100994D01*
X166946867Y-104033278D01*
X166946860Y-104033274D01*
X166812014Y-103982980D01*
X166812015Y-103982980D01*
X166752415Y-103976573D01*
X166752413Y-103976572D01*
X166752405Y-103976572D01*
X166752397Y-103976572D01*
X165824352Y-103976572D01*
X165757313Y-103956887D01*
X165711558Y-103904083D01*
X165700352Y-103852572D01*
X165700352Y-102101571D01*
X165720037Y-102034532D01*
X165772841Y-101988777D01*
X165824352Y-101977571D01*
X166752403Y-101977571D01*
X166752404Y-101977571D01*
X166812015Y-101971163D01*
X166946863Y-101920868D01*
X167062078Y-101834618D01*
X167123731Y-101752260D01*
X167179664Y-101710390D01*
X167222997Y-101702572D01*
X171186067Y-101702572D01*
X171253106Y-101722257D01*
X171285332Y-101752259D01*
X171346986Y-101834618D01*
X171380820Y-101859946D01*
X171462196Y-101920865D01*
X171462203Y-101920869D01*
X171597049Y-101971163D01*
X171597048Y-101971163D01*
X171603976Y-101971907D01*
X171656659Y-101977572D01*
X172752404Y-101977571D01*
X172812015Y-101971163D01*
X172946863Y-101920868D01*
X173062078Y-101834618D01*
X173148328Y-101719403D01*
X173198623Y-101584555D01*
X173205032Y-101524945D01*
X173205031Y-100679200D01*
X173198623Y-100619589D01*
X173192922Y-100604305D01*
X173148329Y-100484743D01*
X173148325Y-100484736D01*
X173062079Y-100369527D01*
X173062076Y-100369524D01*
X172946867Y-100283278D01*
X172946860Y-100283274D01*
X172885699Y-100260463D01*
X172829765Y-100218592D01*
X172805348Y-100153128D01*
X172805032Y-100144281D01*
X172805032Y-99472168D01*
X172805033Y-99472155D01*
X172805033Y-99304052D01*
X172783254Y-99222773D01*
X172764109Y-99151324D01*
X172764105Y-99151317D01*
X172685056Y-99014398D01*
X172685050Y-99014390D01*
X170223983Y-96553323D01*
X170190498Y-96492000D01*
X170190047Y-96489833D01*
X170181843Y-96448588D01*
X170159147Y-96334489D01*
X170158930Y-96333964D01*
X170098807Y-96188813D01*
X170098800Y-96188800D01*
X170023610Y-96076271D01*
X170002732Y-96009594D01*
X170021216Y-95942213D01*
X170073195Y-95895523D01*
X170126712Y-95883380D01*
X175528383Y-95883380D01*
X175595422Y-95903065D01*
G37*
%TD.AperFunction*%
%TA.AperFunction,Conductor*%
G36*
X117194799Y-80727934D02*
G01*
X117239147Y-80756435D01*
X117270082Y-80787370D01*
X117270086Y-80787373D01*
X117401189Y-80874974D01*
X117401202Y-80874981D01*
X117533923Y-80929955D01*
X117546878Y-80935321D01*
X117701528Y-80966083D01*
X117701531Y-80966084D01*
X117701533Y-80966084D01*
X117859219Y-80966084D01*
X117859220Y-80966083D01*
X118013872Y-80935321D01*
X118159554Y-80874978D01*
X118210060Y-80841231D01*
X118295729Y-80783989D01*
X118297037Y-80785947D01*
X118310273Y-80780328D01*
X118331150Y-80766912D01*
X118347365Y-80764580D01*
X118351745Y-80762721D01*
X118366085Y-80761889D01*
X118581954Y-80761889D01*
X118648993Y-80781574D01*
X118694748Y-80834378D01*
X118703571Y-80861698D01*
X118730261Y-80995878D01*
X118730264Y-80995890D01*
X118790602Y-81141561D01*
X118790609Y-81141574D01*
X118878210Y-81272677D01*
X118878213Y-81272681D01*
X118989707Y-81384175D01*
X118989711Y-81384178D01*
X119120814Y-81471779D01*
X119120827Y-81471786D01*
X119266498Y-81532124D01*
X119266503Y-81532126D01*
X119421153Y-81562888D01*
X119421156Y-81562889D01*
X119421158Y-81562889D01*
X119578844Y-81562889D01*
X119578845Y-81562888D01*
X119733497Y-81532126D01*
X119853197Y-81482545D01*
X119879172Y-81471786D01*
X119879172Y-81471785D01*
X119879179Y-81471783D01*
X119936502Y-81433481D01*
X120010875Y-81383787D01*
X120077553Y-81362909D01*
X120079766Y-81362889D01*
X123859766Y-81362889D01*
X123926805Y-81382574D01*
X123947446Y-81399207D01*
X137218553Y-94670315D01*
X137218555Y-94670316D01*
X137218559Y-94670319D01*
X137249586Y-94688232D01*
X137355485Y-94749372D01*
X137355492Y-94749374D01*
X137362992Y-94752481D01*
X137362336Y-94754064D01*
X137366988Y-94756750D01*
X137380436Y-94759676D01*
X137408690Y-94780827D01*
X137529461Y-94901598D01*
X137562946Y-94962921D01*
X137557962Y-95032613D01*
X137516090Y-95088546D01*
X137450626Y-95112963D01*
X137441780Y-95113279D01*
X132436807Y-95113279D01*
X132436791Y-95113278D01*
X132429195Y-95113278D01*
X132271080Y-95113278D01*
X132194716Y-95133740D01*
X132118351Y-95154202D01*
X132118346Y-95154205D01*
X131981427Y-95233254D01*
X131981419Y-95233260D01*
X130122630Y-97092050D01*
X130061307Y-97125535D01*
X129991615Y-97120551D01*
X129935682Y-97078679D01*
X129911265Y-97013215D01*
X129910949Y-97004369D01*
X129910949Y-95926514D01*
X129920388Y-95879061D01*
X129930186Y-95855407D01*
X129960949Y-95700752D01*
X129960949Y-95543068D01*
X129960949Y-95543065D01*
X129960948Y-95543063D01*
X129930187Y-95388420D01*
X129930186Y-95388413D01*
X129930184Y-95388408D01*
X129869846Y-95242737D01*
X129869839Y-95242724D01*
X129782238Y-95111621D01*
X129782235Y-95111617D01*
X129670741Y-95000123D01*
X129670737Y-95000120D01*
X129539634Y-94912519D01*
X129539629Y-94912517D01*
X129539628Y-94912516D01*
X129515968Y-94902715D01*
X129475742Y-94875836D01*
X116426989Y-81827083D01*
X116393504Y-81765760D01*
X116398488Y-81696068D01*
X116440360Y-81640135D01*
X116445755Y-81636316D01*
X116509020Y-81594045D01*
X116620520Y-81482545D01*
X116708125Y-81351435D01*
X116768468Y-81205753D01*
X116788522Y-81104934D01*
X116799369Y-81050406D01*
X116831754Y-80988495D01*
X116833254Y-80986966D01*
X117063787Y-80756433D01*
X117125108Y-80722950D01*
X117194799Y-80727934D01*
G37*
%TD.AperFunction*%
%TA.AperFunction,Conductor*%
G36*
X160034633Y-50422163D02*
G01*
X160081317Y-50431933D01*
X160083296Y-50432365D01*
X160466438Y-50519509D01*
X160537765Y-50535732D01*
X160537998Y-50535785D01*
X160684657Y-50569440D01*
X160687085Y-50570023D01*
X161554784Y-50787619D01*
X161555481Y-50787843D01*
X161563025Y-50789729D01*
X161563026Y-50789730D01*
X161626943Y-50805715D01*
X161690553Y-50821667D01*
X161690715Y-50821664D01*
X162122181Y-50929571D01*
X162171766Y-50941972D01*
X162232027Y-50977334D01*
X162263603Y-51039661D01*
X162256470Y-51109166D01*
X162212892Y-51163780D01*
X162165873Y-51183884D01*
X162036016Y-51209714D01*
X162036006Y-51209717D01*
X161890335Y-51270055D01*
X161890322Y-51270062D01*
X161759219Y-51357663D01*
X161759215Y-51357666D01*
X161647721Y-51469160D01*
X161647718Y-51469164D01*
X161560117Y-51600267D01*
X161560110Y-51600280D01*
X161499772Y-51745951D01*
X161499769Y-51745961D01*
X161468869Y-51901303D01*
X161436484Y-51963214D01*
X161434933Y-51964792D01*
X161111032Y-52288694D01*
X161049709Y-52322179D01*
X161023351Y-52325013D01*
X159319139Y-52325013D01*
X159319123Y-52325012D01*
X159311527Y-52325012D01*
X159153412Y-52325012D01*
X159077048Y-52345474D01*
X159000683Y-52365936D01*
X159000678Y-52365939D01*
X158863759Y-52444988D01*
X158863751Y-52444994D01*
X158080652Y-53228093D01*
X158080650Y-53228096D01*
X158069917Y-53246687D01*
X158040193Y-53298171D01*
X158001594Y-53365026D01*
X157960670Y-53517754D01*
X157960670Y-53517756D01*
X157960670Y-53685857D01*
X157960671Y-53685870D01*
X157960671Y-54407456D01*
X157940986Y-54474495D01*
X157901770Y-54512993D01*
X157852669Y-54543279D01*
X157729641Y-54666308D01*
X157729638Y-54666312D01*
X157728905Y-54667501D01*
X157728190Y-54668143D01*
X157725164Y-54671971D01*
X157724509Y-54671453D01*
X157676951Y-54714218D01*
X157607987Y-54725430D01*
X157543909Y-54697578D01*
X157521909Y-54672184D01*
X157521783Y-54672284D01*
X157519556Y-54669468D01*
X157517834Y-54667480D01*
X157517301Y-54666616D01*
X157394362Y-54543677D01*
X157246385Y-54452403D01*
X157246380Y-54452401D01*
X157081344Y-54397714D01*
X156979486Y-54387307D01*
X156936171Y-54387307D01*
X156936171Y-55463307D01*
X156916486Y-55530346D01*
X156863682Y-55576101D01*
X156812171Y-55587307D01*
X156686171Y-55587307D01*
X156686171Y-55713307D01*
X156666486Y-55780346D01*
X156613682Y-55826101D01*
X156562171Y-55837307D01*
X155698671Y-55837307D01*
X155698671Y-56046560D01*
X155678986Y-56113599D01*
X155626182Y-56159354D01*
X155622123Y-56161121D01*
X155514600Y-56205657D01*
X155514587Y-56205664D01*
X155383484Y-56293265D01*
X155383480Y-56293268D01*
X155271986Y-56404762D01*
X155271983Y-56404766D01*
X155184382Y-56535869D01*
X155184375Y-56535882D01*
X155124037Y-56681553D01*
X155124034Y-56681563D01*
X155093134Y-56836905D01*
X155060749Y-56898816D01*
X155059198Y-56900394D01*
X147021996Y-64937595D01*
X147021994Y-64937597D01*
X147017402Y-64945552D01*
X147006652Y-64964172D01*
X146942937Y-65074529D01*
X146902013Y-65227257D01*
X146902013Y-65227259D01*
X146902013Y-65395360D01*
X146902014Y-65395373D01*
X146902014Y-79686885D01*
X146882329Y-79753924D01*
X146843113Y-79792422D01*
X146794012Y-79822708D01*
X146670985Y-79945736D01*
X146579656Y-80093802D01*
X146579651Y-80093813D01*
X146524927Y-80258959D01*
X146514514Y-80360880D01*
X146514514Y-81372591D01*
X146524927Y-81474512D01*
X146579651Y-81639658D01*
X146579656Y-81639669D01*
X146670985Y-81787735D01*
X146670988Y-81787739D01*
X146794010Y-81910761D01*
X146794014Y-81910764D01*
X146942080Y-82002093D01*
X146942083Y-82002094D01*
X146942089Y-82002098D01*
X147107239Y-82056823D01*
X147209166Y-82067236D01*
X147209171Y-82067236D01*
X147795857Y-82067236D01*
X147795862Y-82067236D01*
X147897789Y-82056823D01*
X148062939Y-82002098D01*
X148211017Y-81910762D01*
X148334040Y-81787739D01*
X148334769Y-81786557D01*
X148335480Y-81785917D01*
X148338521Y-81782072D01*
X148339177Y-81782591D01*
X148386715Y-81739833D01*
X148455678Y-81728609D01*
X148519760Y-81756451D01*
X148541775Y-81781859D01*
X148541902Y-81781759D01*
X148544127Y-81784574D01*
X148545847Y-81786558D01*
X148546379Y-81787421D01*
X148546383Y-81787426D01*
X148669322Y-81910365D01*
X148817299Y-82001639D01*
X148817304Y-82001641D01*
X148982340Y-82056328D01*
X149084198Y-82066735D01*
X149084211Y-82066736D01*
X149127514Y-82066736D01*
X149627514Y-82066736D01*
X149670817Y-82066736D01*
X149670829Y-82066735D01*
X149772687Y-82056328D01*
X149937723Y-82001641D01*
X149937728Y-82001639D01*
X150085705Y-81910365D01*
X150208643Y-81787427D01*
X150299917Y-81639450D01*
X150299919Y-81639445D01*
X150354606Y-81474409D01*
X150365013Y-81372551D01*
X150365014Y-81372538D01*
X150365014Y-81116736D01*
X149627514Y-81116736D01*
X149627514Y-82066736D01*
X149127514Y-82066736D01*
X149127514Y-80616736D01*
X149627514Y-80616736D01*
X150365014Y-80616736D01*
X150365014Y-80360933D01*
X150365013Y-80360920D01*
X150354606Y-80259062D01*
X150299919Y-80094026D01*
X150299917Y-80094021D01*
X150208643Y-79946044D01*
X150085705Y-79823106D01*
X149937728Y-79731832D01*
X149937723Y-79731830D01*
X149772687Y-79677143D01*
X149670829Y-79666736D01*
X149627514Y-79666736D01*
X149627514Y-80616736D01*
X149127514Y-80616736D01*
X149127514Y-79666736D01*
X149084198Y-79666736D01*
X148982340Y-79677143D01*
X148817304Y-79731830D01*
X148817299Y-79731832D01*
X148669322Y-79823106D01*
X148546383Y-79946045D01*
X148546378Y-79946051D01*
X148545843Y-79946920D01*
X148545320Y-79947390D01*
X148541902Y-79951713D01*
X148541163Y-79951128D01*
X148493893Y-79993642D01*
X148424930Y-80004861D01*
X148360849Y-79977014D01*
X148338600Y-79951337D01*
X148338521Y-79951400D01*
X148337125Y-79949634D01*
X148334772Y-79946919D01*
X148334042Y-79945736D01*
X148334041Y-79945735D01*
X148334040Y-79945733D01*
X148211017Y-79822710D01*
X148211016Y-79822709D01*
X148211015Y-79822708D01*
X148161915Y-79792422D01*
X148115192Y-79740474D01*
X148103014Y-79686885D01*
X148103014Y-69160229D01*
X150428382Y-69160229D01*
X150438789Y-69262087D01*
X150493476Y-69427123D01*
X150493478Y-69427128D01*
X150584752Y-69575105D01*
X150707690Y-69698043D01*
X150855667Y-69789317D01*
X150855672Y-69789319D01*
X151020708Y-69844006D01*
X151122566Y-69854413D01*
X151122579Y-69854414D01*
X151165882Y-69854414D01*
X151165882Y-68904414D01*
X150428382Y-68904414D01*
X150428382Y-69160229D01*
X148103014Y-69160229D01*
X148103014Y-68148598D01*
X150428382Y-68148598D01*
X150428382Y-68404414D01*
X151165882Y-68404414D01*
X151165882Y-67454414D01*
X151122566Y-67454414D01*
X151020708Y-67464821D01*
X150855672Y-67519508D01*
X150855667Y-67519510D01*
X150707690Y-67610784D01*
X150584752Y-67733722D01*
X150493478Y-67881699D01*
X150493476Y-67881704D01*
X150438789Y-68046740D01*
X150428382Y-68148598D01*
X148103014Y-68148598D01*
X148103014Y-65606411D01*
X148122699Y-65539372D01*
X148139333Y-65518730D01*
X152015967Y-61642096D01*
X155908435Y-57749627D01*
X155969756Y-57716144D01*
X155971923Y-57715693D01*
X156046330Y-57700892D01*
X156127270Y-57684792D01*
X156272952Y-57624449D01*
X156404062Y-57536844D01*
X156515562Y-57425344D01*
X156603167Y-57294234D01*
X156663510Y-57148552D01*
X156694273Y-56993897D01*
X156694273Y-56911307D01*
X156713958Y-56844268D01*
X156766762Y-56798513D01*
X156818273Y-56787307D01*
X156979474Y-56787307D01*
X156979486Y-56787306D01*
X157081344Y-56776899D01*
X157246380Y-56722212D01*
X157246385Y-56722210D01*
X157394362Y-56630936D01*
X157517299Y-56507999D01*
X157517830Y-56507139D01*
X157518351Y-56506670D01*
X157521783Y-56502330D01*
X157522524Y-56502915D01*
X157569772Y-56460409D01*
X157638734Y-56449179D01*
X157702819Y-56477015D01*
X157725084Y-56502705D01*
X157725164Y-56502643D01*
X157726561Y-56504410D01*
X157728909Y-56507119D01*
X157729639Y-56508302D01*
X157729645Y-56508310D01*
X157852667Y-56631332D01*
X157852671Y-56631335D01*
X157962889Y-56699319D01*
X158009614Y-56751267D01*
X158020835Y-56820229D01*
X157992992Y-56884311D01*
X157985473Y-56892538D01*
X152922168Y-61955844D01*
X152810363Y-62067648D01*
X152810357Y-62067656D01*
X152760791Y-62153509D01*
X152760791Y-62153510D01*
X152731305Y-62204581D01*
X152690381Y-62357309D01*
X152690381Y-62357311D01*
X152690381Y-62525412D01*
X152690382Y-62525425D01*
X152690382Y-67474563D01*
X152670697Y-67541602D01*
X152631481Y-67580100D01*
X152582380Y-67610386D01*
X152459352Y-67733415D01*
X152459349Y-67733419D01*
X152458616Y-67734608D01*
X152457901Y-67735250D01*
X152454875Y-67739078D01*
X152454220Y-67738560D01*
X152406662Y-67781325D01*
X152337698Y-67792537D01*
X152273620Y-67764685D01*
X152251620Y-67739291D01*
X152251494Y-67739391D01*
X152249267Y-67736575D01*
X152247545Y-67734587D01*
X152247012Y-67733723D01*
X152124073Y-67610784D01*
X151976096Y-67519510D01*
X151976091Y-67519508D01*
X151811055Y-67464821D01*
X151709197Y-67454414D01*
X151665882Y-67454414D01*
X151665882Y-69854414D01*
X151709185Y-69854414D01*
X151709197Y-69854413D01*
X151811055Y-69844006D01*
X151976091Y-69789319D01*
X151976096Y-69789317D01*
X152124073Y-69698043D01*
X152247010Y-69575106D01*
X152247541Y-69574246D01*
X152248062Y-69573777D01*
X152251494Y-69569437D01*
X152252235Y-69570022D01*
X152299483Y-69527516D01*
X152368445Y-69516286D01*
X152432530Y-69544122D01*
X152454795Y-69569812D01*
X152454875Y-69569750D01*
X152456272Y-69571517D01*
X152458620Y-69574226D01*
X152459350Y-69575409D01*
X152459356Y-69575417D01*
X152582378Y-69698439D01*
X152582382Y-69698442D01*
X152730448Y-69789771D01*
X152730451Y-69789772D01*
X152730457Y-69789776D01*
X152895607Y-69844501D01*
X152997534Y-69854914D01*
X152997539Y-69854914D01*
X153584225Y-69854914D01*
X153584230Y-69854914D01*
X153686157Y-69844501D01*
X153851307Y-69789776D01*
X153999385Y-69698440D01*
X154122408Y-69575417D01*
X154213744Y-69427339D01*
X154268469Y-69262189D01*
X154278882Y-69160262D01*
X154278882Y-68148566D01*
X154268469Y-68046639D01*
X154213744Y-67881489D01*
X154213740Y-67881483D01*
X154213739Y-67881480D01*
X154122410Y-67733414D01*
X154122409Y-67733413D01*
X154122408Y-67733411D01*
X153999385Y-67610388D01*
X153999384Y-67610387D01*
X153999383Y-67610386D01*
X153950283Y-67580100D01*
X153903560Y-67528152D01*
X153891382Y-67474563D01*
X153891382Y-62736462D01*
X153911067Y-62669423D01*
X153927696Y-62648786D01*
X159839918Y-56736563D01*
X159839923Y-56736560D01*
X159850126Y-56726356D01*
X159850128Y-56726356D01*
X159961932Y-56614552D01*
X160040989Y-56477620D01*
X160076505Y-56345074D01*
X160081912Y-56324894D01*
X160081912Y-56166779D01*
X160081912Y-54545379D01*
X160101597Y-54478340D01*
X160102810Y-54476488D01*
X160118905Y-54452401D01*
X160190806Y-54344793D01*
X160192108Y-54341651D01*
X160231238Y-54247180D01*
X160251149Y-54199111D01*
X160270364Y-54102511D01*
X160277604Y-54066116D01*
X160309989Y-54004205D01*
X160370705Y-53969631D01*
X160440474Y-53973370D01*
X160497146Y-54014237D01*
X160520838Y-54066115D01*
X160543921Y-54182162D01*
X160543924Y-54182172D01*
X160604262Y-54327843D01*
X160604269Y-54327856D01*
X160692262Y-54459545D01*
X160713140Y-54526222D01*
X160713160Y-54528436D01*
X160713160Y-56910062D01*
X160693475Y-56977101D01*
X160676841Y-56997743D01*
X155988062Y-61686521D01*
X155988060Y-61686524D01*
X155950938Y-61750823D01*
X155950937Y-61750825D01*
X155909004Y-61823453D01*
X155909004Y-61823454D01*
X155868080Y-61976182D01*
X155868080Y-61976184D01*
X155868080Y-62144285D01*
X155868081Y-62144298D01*
X155868081Y-87908475D01*
X155848396Y-87975514D01*
X155809180Y-88014012D01*
X155760079Y-88044298D01*
X155637051Y-88167327D01*
X155637048Y-88167331D01*
X155636315Y-88168520D01*
X155635600Y-88169162D01*
X155632574Y-88172990D01*
X155631919Y-88172472D01*
X155584361Y-88215237D01*
X155515397Y-88226449D01*
X155451319Y-88198597D01*
X155429319Y-88173203D01*
X155429193Y-88173303D01*
X155426966Y-88170487D01*
X155425244Y-88168499D01*
X155424711Y-88167635D01*
X155301772Y-88044696D01*
X155153795Y-87953422D01*
X155153790Y-87953420D01*
X154988754Y-87898733D01*
X154886896Y-87888326D01*
X154843581Y-87888326D01*
X154843581Y-90288326D01*
X154886884Y-90288326D01*
X154886896Y-90288325D01*
X154988754Y-90277918D01*
X155153790Y-90223231D01*
X155153795Y-90223229D01*
X155301772Y-90131955D01*
X155424709Y-90009018D01*
X155425240Y-90008158D01*
X155425761Y-90007689D01*
X155429193Y-90003349D01*
X155429934Y-90003934D01*
X155477182Y-89961428D01*
X155546144Y-89950198D01*
X155610229Y-89978034D01*
X155632494Y-90003724D01*
X155632574Y-90003662D01*
X155633971Y-90005429D01*
X155636319Y-90008138D01*
X155637049Y-90009321D01*
X155637055Y-90009329D01*
X155760077Y-90132351D01*
X155760081Y-90132354D01*
X155908147Y-90223683D01*
X155908150Y-90223684D01*
X155908156Y-90223688D01*
X156073306Y-90278413D01*
X156175233Y-90288826D01*
X156175238Y-90288826D01*
X156761924Y-90288826D01*
X156761929Y-90288826D01*
X156863856Y-90278413D01*
X157029006Y-90223688D01*
X157177084Y-90132352D01*
X157300107Y-90009329D01*
X157391443Y-89861251D01*
X157446168Y-89696101D01*
X157456581Y-89594174D01*
X157456581Y-88582478D01*
X157446168Y-88480551D01*
X157391443Y-88315401D01*
X157391439Y-88315395D01*
X157391438Y-88315392D01*
X157300109Y-88167326D01*
X157300108Y-88167325D01*
X157300107Y-88167323D01*
X157177084Y-88044300D01*
X157177083Y-88044299D01*
X157177082Y-88044298D01*
X157127982Y-88014012D01*
X157081259Y-87962064D01*
X157069081Y-87908475D01*
X157069081Y-70938963D01*
X165116305Y-70938963D01*
X165126712Y-71040821D01*
X165181399Y-71205857D01*
X165181401Y-71205862D01*
X165272675Y-71353839D01*
X165395613Y-71476777D01*
X165543590Y-71568051D01*
X165543595Y-71568053D01*
X165708631Y-71622740D01*
X165810489Y-71633147D01*
X165810502Y-71633148D01*
X165853805Y-71633148D01*
X165853805Y-70683148D01*
X165116305Y-70683148D01*
X165116305Y-70938963D01*
X157069081Y-70938963D01*
X157069081Y-69927332D01*
X165116305Y-69927332D01*
X165116305Y-70183148D01*
X165853805Y-70183148D01*
X165853805Y-69233148D01*
X165810489Y-69233148D01*
X165708631Y-69243555D01*
X165543595Y-69298242D01*
X165543590Y-69298244D01*
X165395613Y-69389518D01*
X165272675Y-69512456D01*
X165181401Y-69660433D01*
X165181399Y-69660438D01*
X165126712Y-69825474D01*
X165116305Y-69927332D01*
X157069081Y-69927332D01*
X157069081Y-62355335D01*
X157088766Y-62288296D01*
X157105395Y-62267659D01*
X161672166Y-57700887D01*
X161672171Y-57700884D01*
X161682374Y-57690680D01*
X161682376Y-57690680D01*
X161794180Y-57578876D01*
X161873237Y-57441944D01*
X161914160Y-57289217D01*
X161914160Y-54528436D01*
X161933845Y-54461397D01*
X161935058Y-54459545D01*
X161939832Y-54452401D01*
X162023054Y-54327850D01*
X162083397Y-54182168D01*
X162114160Y-54027513D01*
X162114160Y-53869829D01*
X162114160Y-53869826D01*
X162114159Y-53869824D01*
X162110505Y-53851454D01*
X162083397Y-53715174D01*
X162067116Y-53675868D01*
X162023057Y-53569498D01*
X162023050Y-53569485D01*
X161935449Y-53438382D01*
X161935446Y-53438378D01*
X161885312Y-53388244D01*
X161851827Y-53326921D01*
X161856811Y-53257229D01*
X161885309Y-53212885D01*
X162284170Y-52814025D01*
X162345491Y-52780542D01*
X162347658Y-52780091D01*
X162405593Y-52768566D01*
X162503005Y-52749190D01*
X162648687Y-52688847D01*
X162743423Y-52625545D01*
X162752060Y-52622841D01*
X162758795Y-52616792D01*
X162784878Y-52612565D01*
X162810097Y-52604669D01*
X162818828Y-52607064D01*
X162827765Y-52605616D01*
X162851994Y-52616162D01*
X162877478Y-52623153D01*
X162885221Y-52630625D01*
X162891829Y-52633501D01*
X162915414Y-52659758D01*
X162978851Y-52754697D01*
X162999270Y-52785257D01*
X163001092Y-52787983D01*
X163021970Y-52854660D01*
X163021990Y-52856874D01*
X163021990Y-55213989D01*
X163021989Y-55214007D01*
X163021989Y-55379713D01*
X163021988Y-55379713D01*
X163062350Y-55530346D01*
X163062913Y-55532444D01*
X163080125Y-55562256D01*
X163080126Y-55562258D01*
X163080127Y-55562258D01*
X163141969Y-55669373D01*
X163141971Y-55669376D01*
X163260839Y-55788244D01*
X163260845Y-55788249D01*
X167341986Y-59869390D01*
X167375471Y-59930713D01*
X167378305Y-59957071D01*
X167378305Y-69253297D01*
X167358620Y-69320336D01*
X167319404Y-69358834D01*
X167270303Y-69389120D01*
X167147275Y-69512149D01*
X167147272Y-69512153D01*
X167146539Y-69513342D01*
X167145824Y-69513984D01*
X167142798Y-69517812D01*
X167142143Y-69517294D01*
X167094585Y-69560059D01*
X167025621Y-69571271D01*
X166961543Y-69543419D01*
X166939543Y-69518025D01*
X166939417Y-69518125D01*
X166937190Y-69515309D01*
X166935468Y-69513321D01*
X166934935Y-69512457D01*
X166811996Y-69389518D01*
X166664019Y-69298244D01*
X166664014Y-69298242D01*
X166498978Y-69243555D01*
X166397120Y-69233148D01*
X166353805Y-69233148D01*
X166353805Y-71633148D01*
X166397108Y-71633148D01*
X166397120Y-71633147D01*
X166498978Y-71622740D01*
X166664014Y-71568053D01*
X166664019Y-71568051D01*
X166811996Y-71476777D01*
X166934933Y-71353840D01*
X166935464Y-71352980D01*
X166935985Y-71352511D01*
X166939417Y-71348171D01*
X166940158Y-71348756D01*
X166987406Y-71306250D01*
X167056368Y-71295020D01*
X167120453Y-71322856D01*
X167142718Y-71348546D01*
X167142798Y-71348484D01*
X167144195Y-71350251D01*
X167146543Y-71352960D01*
X167147273Y-71354143D01*
X167147279Y-71354151D01*
X167270301Y-71477173D01*
X167270305Y-71477176D01*
X167418371Y-71568505D01*
X167418374Y-71568506D01*
X167418380Y-71568510D01*
X167583530Y-71623235D01*
X167685457Y-71633648D01*
X167685462Y-71633648D01*
X168272148Y-71633648D01*
X168272153Y-71633648D01*
X168374080Y-71623235D01*
X168539230Y-71568510D01*
X168687308Y-71477174D01*
X168810331Y-71354151D01*
X168901667Y-71206073D01*
X168956392Y-71040923D01*
X168966805Y-70938996D01*
X168966805Y-69927300D01*
X168956392Y-69825373D01*
X168901667Y-69660223D01*
X168901663Y-69660217D01*
X168901662Y-69660214D01*
X168810333Y-69512148D01*
X168810332Y-69512147D01*
X168810331Y-69512145D01*
X168687308Y-69389122D01*
X168687307Y-69389121D01*
X168687306Y-69389120D01*
X168638206Y-69358834D01*
X168591483Y-69306886D01*
X168579305Y-69253297D01*
X168579305Y-59746034D01*
X168579306Y-59746021D01*
X168579306Y-59577918D01*
X168563836Y-59520184D01*
X168538382Y-59425190D01*
X168492093Y-59345014D01*
X168459329Y-59288264D01*
X168459323Y-59288256D01*
X164259309Y-55088242D01*
X164225824Y-55026919D01*
X164222990Y-55000561D01*
X164222990Y-54247180D01*
X164857913Y-54247180D01*
X164868320Y-54349038D01*
X164923007Y-54514074D01*
X164923009Y-54514079D01*
X165014283Y-54662056D01*
X165137221Y-54784994D01*
X165285198Y-54876268D01*
X165285203Y-54876270D01*
X165450239Y-54930957D01*
X165552097Y-54941364D01*
X165552110Y-54941365D01*
X165595413Y-54941365D01*
X165595413Y-53991365D01*
X164857913Y-53991365D01*
X164857913Y-54247180D01*
X164222990Y-54247180D01*
X164222990Y-53365856D01*
X164242675Y-53298817D01*
X164295479Y-53253062D01*
X164364637Y-53243118D01*
X164415880Y-53262753D01*
X164519368Y-53331902D01*
X164519370Y-53331903D01*
X164519374Y-53331905D01*
X164655465Y-53388275D01*
X164665050Y-53392245D01*
X164719074Y-53402991D01*
X164758104Y-53410755D01*
X164820015Y-53443140D01*
X164833673Y-53467125D01*
X164857913Y-53491365D01*
X165721413Y-53491365D01*
X165788452Y-53511050D01*
X165834207Y-53563854D01*
X165845413Y-53615365D01*
X165845413Y-53741365D01*
X165971413Y-53741365D01*
X166038452Y-53761050D01*
X166084207Y-53813854D01*
X166095413Y-53865365D01*
X166095413Y-54941365D01*
X166138716Y-54941365D01*
X166138725Y-54941364D01*
X166185923Y-54936542D01*
X166254616Y-54949310D01*
X166305501Y-54997190D01*
X166305914Y-54997900D01*
X166338210Y-55053839D01*
X166338214Y-55053844D01*
X166457082Y-55172712D01*
X166457088Y-55172717D01*
X170748073Y-59463702D01*
X170781558Y-59525025D01*
X170784392Y-59551383D01*
X170784392Y-85436125D01*
X170764707Y-85503164D01*
X170725491Y-85541662D01*
X170676390Y-85571948D01*
X170553362Y-85694977D01*
X170553359Y-85694981D01*
X170552626Y-85696170D01*
X170551911Y-85696812D01*
X170548885Y-85700640D01*
X170548230Y-85700122D01*
X170500672Y-85742887D01*
X170431708Y-85754099D01*
X170367630Y-85726247D01*
X170345630Y-85700853D01*
X170345504Y-85700953D01*
X170343277Y-85698137D01*
X170341555Y-85696149D01*
X170341022Y-85695285D01*
X170218083Y-85572346D01*
X170070106Y-85481072D01*
X170070101Y-85481070D01*
X169905065Y-85426383D01*
X169803207Y-85415976D01*
X169759892Y-85415976D01*
X169759892Y-87815976D01*
X169803195Y-87815976D01*
X169803207Y-87815975D01*
X169905065Y-87805568D01*
X170070101Y-87750881D01*
X170070106Y-87750879D01*
X170218083Y-87659605D01*
X170341020Y-87536668D01*
X170341551Y-87535808D01*
X170342072Y-87535339D01*
X170345504Y-87530999D01*
X170346245Y-87531584D01*
X170393493Y-87489078D01*
X170462455Y-87477848D01*
X170526540Y-87505684D01*
X170548805Y-87531374D01*
X170548885Y-87531312D01*
X170550282Y-87533079D01*
X170552630Y-87535788D01*
X170553360Y-87536971D01*
X170553366Y-87536979D01*
X170676388Y-87660001D01*
X170676392Y-87660004D01*
X170824458Y-87751333D01*
X170824461Y-87751334D01*
X170824467Y-87751338D01*
X170989617Y-87806063D01*
X171091544Y-87816476D01*
X171091549Y-87816476D01*
X171574500Y-87816476D01*
X171641539Y-87836161D01*
X171687294Y-87888965D01*
X171698500Y-87940476D01*
X171698500Y-91449433D01*
X171678815Y-91516472D01*
X171662181Y-91537114D01*
X170209604Y-92989690D01*
X170148281Y-93023175D01*
X170146115Y-93023626D01*
X169990773Y-93054526D01*
X169990763Y-93054529D01*
X169845092Y-93114867D01*
X169845079Y-93114874D01*
X169713976Y-93202475D01*
X169713972Y-93202478D01*
X169602478Y-93313972D01*
X169602475Y-93313976D01*
X169514874Y-93445079D01*
X169514867Y-93445092D01*
X169454529Y-93590763D01*
X169454526Y-93590775D01*
X169423765Y-93745418D01*
X169423765Y-93903111D01*
X169454526Y-94057754D01*
X169454528Y-94057762D01*
X169506373Y-94182927D01*
X169513842Y-94252397D01*
X169482567Y-94314876D01*
X169422478Y-94350528D01*
X169391812Y-94354380D01*
X139195938Y-94354380D01*
X139128899Y-94334695D01*
X139108257Y-94318061D01*
X137602377Y-92812181D01*
X137568892Y-92750858D01*
X137573876Y-92681166D01*
X137615748Y-92625233D01*
X137681212Y-92600816D01*
X137690058Y-92600500D01*
X157122428Y-92600500D01*
X157122444Y-92600501D01*
X157130040Y-92600501D01*
X157288151Y-92600501D01*
X157288154Y-92600501D01*
X157440882Y-92559577D01*
X157508109Y-92520763D01*
X157577813Y-92480520D01*
X157689617Y-92368716D01*
X157689617Y-92368714D01*
X157699821Y-92358511D01*
X157699824Y-92358506D01*
X163838272Y-86220059D01*
X163899593Y-86186576D01*
X163969285Y-86191560D01*
X164025218Y-86233432D01*
X164047568Y-86283549D01*
X164057306Y-86332506D01*
X164057308Y-86332511D01*
X164067106Y-86356165D01*
X164068732Y-86364342D01*
X164071522Y-86368683D01*
X164076545Y-86403618D01*
X164076545Y-86481117D01*
X164056860Y-86548156D01*
X164040226Y-86568798D01*
X160689939Y-89919084D01*
X160628616Y-89952569D01*
X160626450Y-89953020D01*
X160586768Y-89960913D01*
X160586758Y-89960916D01*
X160441087Y-90021254D01*
X160441074Y-90021261D01*
X160309971Y-90108862D01*
X160309967Y-90108865D01*
X160198473Y-90220359D01*
X160198470Y-90220363D01*
X160110869Y-90351466D01*
X160110862Y-90351479D01*
X160050524Y-90497150D01*
X160050521Y-90497162D01*
X160019760Y-90651805D01*
X160019760Y-90809498D01*
X160050521Y-90964141D01*
X160050524Y-90964153D01*
X160110862Y-91109824D01*
X160110869Y-91109837D01*
X160198470Y-91240940D01*
X160198473Y-91240944D01*
X160309967Y-91352438D01*
X160309971Y-91352441D01*
X160441074Y-91440042D01*
X160441087Y-91440049D01*
X160586758Y-91500387D01*
X160586763Y-91500389D01*
X160741413Y-91531151D01*
X160741416Y-91531152D01*
X160741418Y-91531152D01*
X160899104Y-91531152D01*
X160899105Y-91531151D01*
X161053757Y-91500389D01*
X161199439Y-91440046D01*
X161207512Y-91434650D01*
X161216629Y-91429110D01*
X161222618Y-91425814D01*
X161295236Y-91395736D01*
X161374519Y-91342761D01*
X161418157Y-91313604D01*
X165409997Y-87321764D01*
X165433342Y-87286824D01*
X165480343Y-87216483D01*
X165480347Y-87216476D01*
X165492129Y-87198843D01*
X165524045Y-87121791D01*
X168522392Y-87121791D01*
X168532799Y-87223649D01*
X168587486Y-87388685D01*
X168587488Y-87388690D01*
X168678762Y-87536667D01*
X168801700Y-87659605D01*
X168949677Y-87750879D01*
X168949682Y-87750881D01*
X169114718Y-87805568D01*
X169216576Y-87815975D01*
X169216589Y-87815976D01*
X169259892Y-87815976D01*
X169259892Y-86865976D01*
X168522392Y-86865976D01*
X168522392Y-87121791D01*
X165524045Y-87121791D01*
X165548703Y-87062261D01*
X165577545Y-86917266D01*
X165577545Y-86403618D01*
X165586984Y-86356165D01*
X165590056Y-86348749D01*
X165596782Y-86332511D01*
X165627545Y-86177856D01*
X165627545Y-86110160D01*
X168522392Y-86110160D01*
X168522392Y-86365976D01*
X169259892Y-86365976D01*
X169259892Y-85415976D01*
X169216576Y-85415976D01*
X169114718Y-85426383D01*
X168949682Y-85481070D01*
X168949677Y-85481072D01*
X168801700Y-85572346D01*
X168678762Y-85695284D01*
X168587488Y-85843261D01*
X168587486Y-85843266D01*
X168532799Y-86008302D01*
X168522392Y-86110160D01*
X165627545Y-86110160D01*
X165627545Y-86020172D01*
X165627545Y-86020169D01*
X165627544Y-86020167D01*
X165596783Y-85865524D01*
X165596782Y-85865517D01*
X165596780Y-85865512D01*
X165536442Y-85719841D01*
X165536435Y-85719828D01*
X165448834Y-85588725D01*
X165448831Y-85588721D01*
X165337337Y-85477227D01*
X165337333Y-85477224D01*
X165206230Y-85389623D01*
X165206217Y-85389616D01*
X165060546Y-85329278D01*
X165060537Y-85329275D01*
X165011580Y-85319537D01*
X164949670Y-85287151D01*
X164915096Y-85226435D01*
X164918837Y-85156666D01*
X164948090Y-85110241D01*
X165939487Y-84118843D01*
X165939492Y-84118840D01*
X165949695Y-84108636D01*
X165949697Y-84108636D01*
X166061501Y-83996832D01*
X166122527Y-83891131D01*
X166140558Y-83859901D01*
X166181482Y-83707173D01*
X166181482Y-83549059D01*
X166181482Y-83541464D01*
X166181481Y-83541446D01*
X166181481Y-74034449D01*
X166201166Y-73967410D01*
X166202379Y-73965558D01*
X166219443Y-73940020D01*
X166272224Y-73861028D01*
X166284662Y-73831001D01*
X166325717Y-73731883D01*
X166332567Y-73715346D01*
X166363330Y-73560691D01*
X166363330Y-73403007D01*
X166363330Y-73403004D01*
X166363329Y-73403002D01*
X166351428Y-73343172D01*
X166332567Y-73248352D01*
X166320416Y-73219016D01*
X166272227Y-73102676D01*
X166272220Y-73102663D01*
X166184619Y-72971560D01*
X166184616Y-72971556D01*
X166073122Y-72860062D01*
X166073118Y-72860059D01*
X165942015Y-72772458D01*
X165942002Y-72772451D01*
X165796331Y-72712113D01*
X165796319Y-72712110D01*
X165641675Y-72681349D01*
X165641672Y-72681349D01*
X165483988Y-72681349D01*
X165483985Y-72681349D01*
X165329340Y-72712110D01*
X165329328Y-72712113D01*
X165183657Y-72772451D01*
X165183644Y-72772458D01*
X165052541Y-72860059D01*
X165052537Y-72860062D01*
X164941043Y-72971556D01*
X164941040Y-72971560D01*
X164853439Y-73102663D01*
X164853432Y-73102676D01*
X164793094Y-73248347D01*
X164793091Y-73248359D01*
X164762330Y-73403002D01*
X164762330Y-73560695D01*
X164793091Y-73715338D01*
X164793094Y-73715350D01*
X164853432Y-73861021D01*
X164853439Y-73861034D01*
X164941040Y-73992137D01*
X164944156Y-73995253D01*
X164977645Y-74056574D01*
X164980481Y-74082940D01*
X164980481Y-75526524D01*
X164960796Y-75593563D01*
X164907992Y-75639318D01*
X164838834Y-75649262D01*
X164775278Y-75620237D01*
X164768800Y-75614205D01*
X164435504Y-75280909D01*
X164405104Y-75260597D01*
X164339624Y-75216845D01*
X164339624Y-75216844D01*
X164312579Y-75198774D01*
X164312574Y-75198771D01*
X164176001Y-75142201D01*
X164175991Y-75142198D01*
X164031004Y-75113358D01*
X164031002Y-75113358D01*
X161942183Y-75113358D01*
X161894734Y-75103920D01*
X161871076Y-75094121D01*
X161871072Y-75094120D01*
X161871067Y-75094118D01*
X161716424Y-75063358D01*
X161716421Y-75063358D01*
X161558737Y-75063358D01*
X161558734Y-75063358D01*
X161404089Y-75094119D01*
X161404077Y-75094122D01*
X161258406Y-75154460D01*
X161258393Y-75154467D01*
X161127290Y-75242068D01*
X161127286Y-75242071D01*
X161015792Y-75353565D01*
X161015789Y-75353569D01*
X160928188Y-75484672D01*
X160928181Y-75484685D01*
X160867843Y-75630356D01*
X160867840Y-75630368D01*
X160837079Y-75785011D01*
X160837079Y-75942704D01*
X160867840Y-76097347D01*
X160867843Y-76097359D01*
X160928181Y-76243030D01*
X160928188Y-76243043D01*
X161015789Y-76374146D01*
X161015792Y-76374150D01*
X161127286Y-76485644D01*
X161127290Y-76485647D01*
X161258393Y-76573248D01*
X161258406Y-76573255D01*
X161380425Y-76623796D01*
X161404082Y-76633595D01*
X161558732Y-76664357D01*
X161558735Y-76664358D01*
X161558737Y-76664358D01*
X161716423Y-76664358D01*
X161716424Y-76664357D01*
X161793052Y-76649115D01*
X161871067Y-76633597D01*
X161871068Y-76633596D01*
X161871076Y-76633595D01*
X161894734Y-76623795D01*
X161942183Y-76614358D01*
X163594854Y-76614358D01*
X163661893Y-76634043D01*
X163682535Y-76650677D01*
X163977865Y-76946007D01*
X164004744Y-76986233D01*
X164014544Y-77009891D01*
X164014545Y-77009893D01*
X164102145Y-77140996D01*
X164102151Y-77141004D01*
X164213645Y-77252498D01*
X164213649Y-77252501D01*
X164344752Y-77340102D01*
X164344765Y-77340109D01*
X164485914Y-77398574D01*
X164490441Y-77400449D01*
X164591626Y-77420576D01*
X164645091Y-77431211D01*
X164645094Y-77431212D01*
X164645096Y-77431212D01*
X164802780Y-77431212D01*
X164832289Y-77425342D01*
X164901879Y-77431568D01*
X164957057Y-77474430D01*
X164980303Y-77540319D01*
X164980481Y-77546959D01*
X164980481Y-83328019D01*
X164960796Y-83395058D01*
X164944162Y-83415700D01*
X156996681Y-91363181D01*
X156935358Y-91396666D01*
X156909000Y-91399500D01*
X137091000Y-91399500D01*
X137023961Y-91379815D01*
X137003319Y-91363181D01*
X135234279Y-89594141D01*
X153606081Y-89594141D01*
X153616488Y-89695999D01*
X153671175Y-89861035D01*
X153671177Y-89861040D01*
X153762451Y-90009017D01*
X153885389Y-90131955D01*
X154033366Y-90223229D01*
X154033371Y-90223231D01*
X154198407Y-90277918D01*
X154300265Y-90288325D01*
X154300278Y-90288326D01*
X154343581Y-90288326D01*
X154343581Y-89338326D01*
X153606081Y-89338326D01*
X153606081Y-89594141D01*
X135234279Y-89594141D01*
X134222648Y-88582510D01*
X153606081Y-88582510D01*
X153606081Y-88838326D01*
X154343581Y-88838326D01*
X154343581Y-87888326D01*
X154300265Y-87888326D01*
X154198407Y-87898733D01*
X154033371Y-87953420D01*
X154033366Y-87953422D01*
X153885389Y-88044696D01*
X153762451Y-88167634D01*
X153671177Y-88315611D01*
X153671175Y-88315616D01*
X153616488Y-88480652D01*
X153606081Y-88582510D01*
X134222648Y-88582510D01*
X130831303Y-85191165D01*
X130797818Y-85129842D01*
X130797367Y-85127675D01*
X130766467Y-84972336D01*
X130766466Y-84972329D01*
X130723022Y-84867444D01*
X130706126Y-84826653D01*
X130706119Y-84826640D01*
X130618127Y-84694951D01*
X130597249Y-84628273D01*
X130597229Y-84626060D01*
X130597229Y-83733442D01*
X150905274Y-83733442D01*
X150905274Y-83891132D01*
X150936035Y-84045778D01*
X150936038Y-84045790D01*
X150996376Y-84191461D01*
X150996383Y-84191474D01*
X151083984Y-84322577D01*
X151083987Y-84322581D01*
X151195481Y-84434075D01*
X151195485Y-84434078D01*
X151326588Y-84521679D01*
X151326601Y-84521686D01*
X151472272Y-84582024D01*
X151472277Y-84582026D01*
X151592968Y-84606033D01*
X151626927Y-84612788D01*
X151626930Y-84612789D01*
X151626932Y-84612789D01*
X151784618Y-84612789D01*
X151784619Y-84612788D01*
X151939271Y-84582026D01*
X152084953Y-84521683D01*
X152216063Y-84434078D01*
X152327563Y-84322578D01*
X152415168Y-84191468D01*
X152424965Y-84167813D01*
X152451843Y-84127586D01*
X153928595Y-82650836D01*
X154005757Y-82535353D01*
X154010727Y-82527915D01*
X154067301Y-82391333D01*
X154084702Y-82303854D01*
X154096143Y-82246340D01*
X154096143Y-78604604D01*
X154105582Y-78557151D01*
X154110263Y-78545850D01*
X154115380Y-78533497D01*
X154146143Y-78378842D01*
X154146143Y-78221158D01*
X154146143Y-78221155D01*
X154146142Y-78221153D01*
X154132432Y-78152227D01*
X154115380Y-78066503D01*
X154084382Y-77991666D01*
X154055040Y-77920827D01*
X154055033Y-77920814D01*
X153967432Y-77789711D01*
X153967429Y-77789707D01*
X153855935Y-77678213D01*
X153855931Y-77678210D01*
X153724828Y-77590609D01*
X153724815Y-77590602D01*
X153579144Y-77530264D01*
X153579132Y-77530261D01*
X153424488Y-77499500D01*
X153424485Y-77499500D01*
X153266801Y-77499500D01*
X153266798Y-77499500D01*
X153112153Y-77530261D01*
X153112141Y-77530264D01*
X152966470Y-77590602D01*
X152966457Y-77590609D01*
X152835354Y-77678210D01*
X152835350Y-77678213D01*
X152723856Y-77789707D01*
X152723853Y-77789711D01*
X152636252Y-77920814D01*
X152636245Y-77920827D01*
X152575907Y-78066498D01*
X152575904Y-78066510D01*
X152545143Y-78221153D01*
X152545143Y-78378846D01*
X152574304Y-78525445D01*
X152575906Y-78533497D01*
X152580761Y-78545219D01*
X152585704Y-78557151D01*
X152595143Y-78604604D01*
X152595143Y-81810189D01*
X152575458Y-81877228D01*
X152558824Y-81897870D01*
X151390477Y-83066216D01*
X151350254Y-83093094D01*
X151326593Y-83102895D01*
X151326592Y-83102896D01*
X151195489Y-83190496D01*
X151195481Y-83190502D01*
X151083987Y-83301996D01*
X151083984Y-83302000D01*
X150996383Y-83433103D01*
X150996376Y-83433116D01*
X150936038Y-83578787D01*
X150936035Y-83578799D01*
X150905274Y-83733442D01*
X130597229Y-83733442D01*
X130597229Y-83216396D01*
X130597230Y-83216383D01*
X130597230Y-83048282D01*
X130597230Y-83048280D01*
X130556306Y-82895552D01*
X130512272Y-82819284D01*
X130477249Y-82758621D01*
X130365445Y-82646817D01*
X130365444Y-82646816D01*
X130361114Y-82642486D01*
X130361103Y-82642476D01*
X129881554Y-82162927D01*
X129848069Y-82101604D01*
X129847618Y-82099437D01*
X129828254Y-82002093D01*
X129821815Y-81969720D01*
X129783637Y-81877549D01*
X129761475Y-81824044D01*
X129761468Y-81824031D01*
X129673867Y-81692928D01*
X129673864Y-81692924D01*
X129562370Y-81581430D01*
X129562366Y-81581427D01*
X129431263Y-81493826D01*
X129431250Y-81493819D01*
X129285579Y-81433481D01*
X129285569Y-81433478D01*
X129130227Y-81402578D01*
X129068316Y-81370193D01*
X129066738Y-81368642D01*
X126780442Y-79082346D01*
X126780440Y-79082343D01*
X126661569Y-78963472D01*
X126661561Y-78963466D01*
X126542145Y-78894522D01*
X126542142Y-78894521D01*
X126536045Y-78891001D01*
X126524637Y-78884414D01*
X126371909Y-78843490D01*
X126213795Y-78843490D01*
X126206199Y-78843490D01*
X126206183Y-78843491D01*
X117844901Y-78843491D01*
X117777862Y-78823806D01*
X117732107Y-78771002D01*
X117722163Y-78701844D01*
X117751188Y-78638288D01*
X117757220Y-78631810D01*
X118591475Y-77797555D01*
X118652798Y-77764070D01*
X118679156Y-77761236D01*
X126437801Y-77761236D01*
X126504840Y-77780921D01*
X126525482Y-77797555D01*
X130360881Y-81632954D01*
X130371629Y-81640135D01*
X130401362Y-81660001D01*
X130483800Y-81715084D01*
X130483801Y-81715084D01*
X130483802Y-81715085D01*
X130543549Y-81739833D01*
X130620382Y-81771658D01*
X130620386Y-81771658D01*
X130620387Y-81771659D01*
X130765374Y-81800500D01*
X130765377Y-81800500D01*
X130765378Y-81800500D01*
X130913212Y-81800500D01*
X141074432Y-81800500D01*
X141121882Y-81809938D01*
X141210841Y-81846786D01*
X141363882Y-81877228D01*
X141365491Y-81877548D01*
X141365494Y-81877549D01*
X141365496Y-81877549D01*
X141523182Y-81877549D01*
X141523183Y-81877548D01*
X141677835Y-81846786D01*
X141810483Y-81791842D01*
X141823510Y-81786446D01*
X141823510Y-81786445D01*
X141823517Y-81786443D01*
X141954627Y-81698838D01*
X142066127Y-81587338D01*
X142153732Y-81456228D01*
X142214075Y-81310546D01*
X142244838Y-81155891D01*
X142244838Y-80998207D01*
X142244838Y-80998204D01*
X142244837Y-80998202D01*
X142223396Y-80890413D01*
X142214075Y-80843552D01*
X142190804Y-80787370D01*
X142153735Y-80697876D01*
X142153728Y-80697863D01*
X142066127Y-80566760D01*
X142066124Y-80566756D01*
X141954630Y-80455262D01*
X141954626Y-80455259D01*
X141823523Y-80367658D01*
X141823510Y-80367651D01*
X141677839Y-80307313D01*
X141677827Y-80307310D01*
X141523183Y-80276549D01*
X141523180Y-80276549D01*
X141365496Y-80276549D01*
X141365494Y-80276549D01*
X141294151Y-80290740D01*
X141262093Y-80297117D01*
X141237903Y-80299500D01*
X131201525Y-80299500D01*
X131134486Y-80279815D01*
X131113844Y-80263181D01*
X128276666Y-77426003D01*
X128243181Y-77364680D01*
X128248165Y-77294988D01*
X128290037Y-77239055D01*
X128355501Y-77214638D01*
X128364347Y-77214322D01*
X128673825Y-77214322D01*
X128673839Y-77214321D01*
X128776550Y-77203828D01*
X128942972Y-77148681D01*
X128942977Y-77148679D01*
X129092198Y-77056638D01*
X129216168Y-76932668D01*
X129235820Y-76900808D01*
X130388556Y-76900808D01*
X130388556Y-78696543D01*
X130388557Y-78696549D01*
X130394964Y-78756156D01*
X130445258Y-78891001D01*
X130445262Y-78891008D01*
X130531508Y-79006217D01*
X130531511Y-79006220D01*
X130646720Y-79092466D01*
X130646727Y-79092470D01*
X130781573Y-79142764D01*
X130781572Y-79142764D01*
X130788500Y-79143508D01*
X130841183Y-79149173D01*
X132636928Y-79149172D01*
X132696539Y-79142764D01*
X132831387Y-79092469D01*
X132946602Y-79006219D01*
X133032852Y-78891004D01*
X133083147Y-78756156D01*
X133089556Y-78696546D01*
X133089555Y-78672652D01*
X133092386Y-78659636D01*
X133102996Y-78640198D01*
X133109235Y-78618948D01*
X133125859Y-78598316D01*
X133125864Y-78598309D01*
X133125867Y-78598307D01*
X133125874Y-78598299D01*
X133796093Y-77928081D01*
X133813131Y-77991666D01*
X133878957Y-78105680D01*
X133972049Y-78198772D01*
X134086063Y-78264598D01*
X134149646Y-78281635D01*
X133517338Y-78913942D01*
X133517338Y-78913943D01*
X133571505Y-78953297D01*
X133760838Y-79049768D01*
X133962926Y-79115430D01*
X134172810Y-79148673D01*
X134385302Y-79148673D01*
X134595183Y-79115430D01*
X134595186Y-79115430D01*
X134797273Y-79049768D01*
X134986610Y-78953295D01*
X135040772Y-78913943D01*
X135040773Y-78913943D01*
X134408464Y-78281635D01*
X134472049Y-78264598D01*
X134586063Y-78198772D01*
X134679155Y-78105680D01*
X134744981Y-77991666D01*
X134762018Y-77928082D01*
X135394326Y-78560390D01*
X135394326Y-78560389D01*
X135433678Y-78506227D01*
X135530151Y-78316890D01*
X135595813Y-78114803D01*
X135595813Y-78114800D01*
X135629056Y-77904919D01*
X135629056Y-77692426D01*
X135595813Y-77482545D01*
X135595813Y-77482542D01*
X135530151Y-77280455D01*
X135433680Y-77091122D01*
X135394326Y-77036955D01*
X135394325Y-77036955D01*
X134762018Y-77669263D01*
X134744981Y-77605680D01*
X134679155Y-77491666D01*
X134586063Y-77398574D01*
X134472049Y-77332748D01*
X134408465Y-77315710D01*
X135040772Y-76683401D01*
X134986606Y-76644048D01*
X134797273Y-76547577D01*
X134595185Y-76481915D01*
X134385302Y-76448673D01*
X134172810Y-76448673D01*
X133962928Y-76481915D01*
X133962925Y-76481915D01*
X133760838Y-76547577D01*
X133571495Y-76644053D01*
X133517338Y-76683400D01*
X133517338Y-76683401D01*
X134149647Y-77315710D01*
X134086063Y-77332748D01*
X133972049Y-77398574D01*
X133878957Y-77491666D01*
X133813131Y-77605680D01*
X133796093Y-77669264D01*
X133125874Y-76999045D01*
X133092389Y-76937722D01*
X133092386Y-76937709D01*
X133089555Y-76924688D01*
X133089555Y-76900801D01*
X133083147Y-76841190D01*
X133054982Y-76765675D01*
X133032854Y-76706346D01*
X133032849Y-76706337D01*
X132946603Y-76591128D01*
X132946600Y-76591125D01*
X132831391Y-76504879D01*
X132831384Y-76504875D01*
X132696538Y-76454581D01*
X132696539Y-76454581D01*
X132636939Y-76448174D01*
X132636937Y-76448173D01*
X132636929Y-76448173D01*
X132636920Y-76448173D01*
X130841185Y-76448173D01*
X130841179Y-76448174D01*
X130781572Y-76454581D01*
X130646727Y-76504875D01*
X130646720Y-76504879D01*
X130531511Y-76591125D01*
X130531508Y-76591128D01*
X130445262Y-76706337D01*
X130445258Y-76706344D01*
X130394964Y-76841190D01*
X130388557Y-76900789D01*
X130388556Y-76900808D01*
X129235820Y-76900808D01*
X129278026Y-76832382D01*
X129308209Y-76783447D01*
X129308211Y-76783442D01*
X129363358Y-76617020D01*
X129363359Y-76617013D01*
X129373852Y-76514309D01*
X129373853Y-76514296D01*
X129373853Y-76464323D01*
X127366348Y-76464323D01*
X127299309Y-76444638D01*
X127283169Y-76431632D01*
X127283156Y-76431649D01*
X127281293Y-76430120D01*
X127278667Y-76428004D01*
X127278448Y-76427785D01*
X127204252Y-76378210D01*
X127190669Y-76369134D01*
X127155526Y-76345652D01*
X127155524Y-76345651D01*
X127155521Y-76345649D01*
X127018948Y-76289079D01*
X127018938Y-76289076D01*
X126873951Y-76260236D01*
X126873949Y-76260236D01*
X118680523Y-76260236D01*
X118633071Y-76250797D01*
X118583498Y-76230263D01*
X118583488Y-76230260D01*
X118428845Y-76199500D01*
X118428842Y-76199500D01*
X118271158Y-76199500D01*
X118271155Y-76199500D01*
X118116510Y-76230261D01*
X118116498Y-76230264D01*
X117970827Y-76290602D01*
X117970814Y-76290609D01*
X117839711Y-76378210D01*
X117839707Y-76378213D01*
X117728213Y-76489707D01*
X117728210Y-76489711D01*
X117637591Y-76625332D01*
X117622170Y-76644122D01*
X117143981Y-77122311D01*
X117082658Y-77155796D01*
X117054083Y-77153752D01*
X117054083Y-77156413D01*
X115901721Y-77156413D01*
X115834682Y-77136728D01*
X115788927Y-77083924D01*
X115777721Y-77032413D01*
X115777721Y-76906413D01*
X115651721Y-76906413D01*
X115584682Y-76886728D01*
X115538927Y-76833924D01*
X115527721Y-76782413D01*
X115527721Y-76656413D01*
X116027721Y-76656413D01*
X117002720Y-76656413D01*
X117002720Y-76606441D01*
X117002719Y-76606426D01*
X116992226Y-76503715D01*
X116937079Y-76337293D01*
X116937077Y-76337288D01*
X116845036Y-76188067D01*
X116721066Y-76064097D01*
X116571845Y-75972056D01*
X116571840Y-75972054D01*
X116405418Y-75916907D01*
X116405411Y-75916906D01*
X116302707Y-75906413D01*
X116027721Y-75906413D01*
X116027721Y-76656413D01*
X115527721Y-76656413D01*
X115527721Y-75906413D01*
X115252750Y-75906413D01*
X115252733Y-75906414D01*
X115150023Y-75916907D01*
X114983601Y-75972054D01*
X114983594Y-75972057D01*
X114939553Y-75999222D01*
X114915890Y-76005696D01*
X114893716Y-76016177D01*
X114882790Y-76014752D01*
X114872160Y-76017661D01*
X114848753Y-76010314D01*
X114824433Y-76007143D01*
X114816011Y-76000037D01*
X114805497Y-75996737D01*
X114789780Y-75977904D01*
X114771032Y-75962086D01*
X114767788Y-75951554D01*
X114760729Y-75943095D01*
X114757688Y-75918754D01*
X114750469Y-75895311D01*
X114752660Y-75878504D01*
X114752068Y-75873764D01*
X114755029Y-75860323D01*
X114813725Y-75650256D01*
X114850722Y-75590991D01*
X114854363Y-75587876D01*
X114878807Y-75567776D01*
X114880351Y-75565616D01*
X114887168Y-75556084D01*
X114900355Y-75540526D01*
X114904100Y-75536779D01*
X114910516Y-75530365D01*
X114928279Y-75499596D01*
X114934793Y-75489482D01*
X114955462Y-75460580D01*
X114964105Y-75437545D01*
X114976408Y-75416237D01*
X114987162Y-75376099D01*
X115001761Y-75337196D01*
X115004148Y-75312707D01*
X115010516Y-75288943D01*
X115010516Y-75247392D01*
X115015684Y-75194374D01*
X115020709Y-75169529D01*
X115194591Y-74611402D01*
X115197978Y-74601913D01*
X115230495Y-74521343D01*
X115234458Y-74512533D01*
X115352793Y-74274825D01*
X119974787Y-74274825D01*
X119974787Y-74432518D01*
X120005548Y-74587161D01*
X120005551Y-74587173D01*
X120065889Y-74732844D01*
X120065896Y-74732857D01*
X120153497Y-74863960D01*
X120153500Y-74863964D01*
X120264994Y-74975458D01*
X120264998Y-74975461D01*
X120396101Y-75063062D01*
X120396114Y-75063069D01*
X120518133Y-75113610D01*
X120541790Y-75123409D01*
X120696440Y-75154171D01*
X120696443Y-75154172D01*
X120696445Y-75154172D01*
X120854131Y-75154172D01*
X120854132Y-75154171D01*
X120955052Y-75134097D01*
X121008775Y-75123411D01*
X121008776Y-75123410D01*
X121008784Y-75123409D01*
X121032442Y-75113609D01*
X121079891Y-75104172D01*
X127100972Y-75104172D01*
X127126070Y-75111541D01*
X127151979Y-75115149D01*
X127162046Y-75122105D01*
X127168011Y-75123857D01*
X127181756Y-75134097D01*
X127185316Y-75137154D01*
X127205197Y-75157035D01*
X127216807Y-75164196D01*
X127224196Y-75170541D01*
X127238124Y-75192003D01*
X127255232Y-75211022D01*
X127256826Y-75220821D01*
X127262232Y-75229150D01*
X127262346Y-75254733D01*
X127266456Y-75279984D01*
X127262499Y-75289090D01*
X127262544Y-75299019D01*
X127248808Y-75320603D01*
X127238614Y-75344067D01*
X127228050Y-75353221D01*
X127225032Y-75357965D01*
X127219772Y-75360395D01*
X127208518Y-75370149D01*
X127205513Y-75372002D01*
X127205508Y-75372006D01*
X127081537Y-75495977D01*
X126989496Y-75645198D01*
X126989494Y-75645203D01*
X126934347Y-75811625D01*
X126934346Y-75811632D01*
X126923853Y-75914336D01*
X126923853Y-75964323D01*
X129373852Y-75964323D01*
X129373852Y-75914351D01*
X129373851Y-75914336D01*
X129363358Y-75811625D01*
X129308211Y-75645203D01*
X129308209Y-75645198D01*
X129216168Y-75495977D01*
X129092197Y-75372006D01*
X129092194Y-75372004D01*
X129089192Y-75370152D01*
X129087566Y-75368344D01*
X129086530Y-75367525D01*
X129086670Y-75367347D01*
X129042470Y-75318203D01*
X129031250Y-75249240D01*
X129059096Y-75185159D01*
X129073511Y-75170541D01*
X129080902Y-75164193D01*
X129092509Y-75157035D01*
X129112378Y-75137165D01*
X129115952Y-75134097D01*
X129143677Y-75121584D01*
X129170376Y-75107006D01*
X129177733Y-75106214D01*
X129179637Y-75105356D01*
X129182193Y-75105735D01*
X129196734Y-75104172D01*
X137338307Y-75104172D01*
X137385755Y-75113609D01*
X137409414Y-75123409D01*
X137409419Y-75123410D01*
X137409422Y-75123411D01*
X137564064Y-75154171D01*
X137564067Y-75154172D01*
X137564069Y-75154172D01*
X137721755Y-75154172D01*
X137721756Y-75154171D01*
X137876408Y-75123409D01*
X138022090Y-75063066D01*
X138153200Y-74975461D01*
X138264700Y-74863961D01*
X138352305Y-74732851D01*
X138412648Y-74587169D01*
X138443411Y-74432514D01*
X138443411Y-74274830D01*
X138443411Y-74274827D01*
X138443410Y-74274825D01*
X138421543Y-74164895D01*
X138412648Y-74120175D01*
X138397225Y-74082940D01*
X138352308Y-73974499D01*
X138352301Y-73974486D01*
X138264700Y-73843383D01*
X138264697Y-73843379D01*
X138153203Y-73731885D01*
X138153199Y-73731882D01*
X138022096Y-73644281D01*
X138022083Y-73644274D01*
X137876412Y-73583936D01*
X137876400Y-73583933D01*
X137721756Y-73553172D01*
X137721753Y-73553172D01*
X137564069Y-73553172D01*
X137564066Y-73553172D01*
X137409422Y-73583932D01*
X137409417Y-73583934D01*
X137409415Y-73583934D01*
X137409414Y-73583935D01*
X137385755Y-73593734D01*
X137338307Y-73603172D01*
X129275432Y-73603172D01*
X129208393Y-73583487D01*
X129187751Y-73566853D01*
X129092510Y-73471612D01*
X129092509Y-73471611D01*
X128981279Y-73403004D01*
X128943189Y-73379510D01*
X128943184Y-73379508D01*
X128925922Y-73373788D01*
X128776650Y-73324324D01*
X128776648Y-73324323D01*
X128673863Y-73313823D01*
X127623851Y-73313823D01*
X127623833Y-73313824D01*
X127521056Y-73324323D01*
X127521053Y-73324324D01*
X127354521Y-73379508D01*
X127354516Y-73379510D01*
X127205195Y-73471612D01*
X127109955Y-73566853D01*
X127048632Y-73600338D01*
X127022274Y-73603172D01*
X121079891Y-73603172D01*
X121032442Y-73593734D01*
X121008784Y-73583935D01*
X121008780Y-73583934D01*
X121008775Y-73583932D01*
X120854132Y-73553172D01*
X120854129Y-73553172D01*
X120696445Y-73553172D01*
X120696442Y-73553172D01*
X120541797Y-73583933D01*
X120541785Y-73583936D01*
X120396114Y-73644274D01*
X120396101Y-73644281D01*
X120264998Y-73731882D01*
X120264994Y-73731885D01*
X120153500Y-73843379D01*
X120153497Y-73843383D01*
X120065896Y-73974486D01*
X120065889Y-73974499D01*
X120005551Y-74120170D01*
X120005548Y-74120182D01*
X119974787Y-74274825D01*
X115352793Y-74274825D01*
X115870932Y-73234003D01*
X115872867Y-73230278D01*
X115952232Y-73083716D01*
X116055464Y-72894622D01*
X116056609Y-72892815D01*
X116059884Y-72886787D01*
X116059887Y-72886785D01*
X116091061Y-72829419D01*
X116091074Y-72829426D01*
X116091166Y-72829225D01*
X116122463Y-72771901D01*
X116122463Y-72771897D01*
X116125752Y-72765875D01*
X116126650Y-72763929D01*
X116187442Y-72652065D01*
X117937006Y-72652065D01*
X117937006Y-72839306D01*
X117973531Y-73022929D01*
X117973533Y-73022937D01*
X118045182Y-73195914D01*
X118045187Y-73195923D01*
X118149203Y-73351593D01*
X118149206Y-73351597D01*
X118281594Y-73483985D01*
X118281598Y-73483988D01*
X118437268Y-73588004D01*
X118437277Y-73588009D01*
X118455765Y-73595667D01*
X118610255Y-73659659D01*
X118793885Y-73696185D01*
X118793889Y-73696186D01*
X118793890Y-73696186D01*
X118981123Y-73696186D01*
X118981124Y-73696185D01*
X119164757Y-73659659D01*
X119337737Y-73588008D01*
X119493414Y-73483988D01*
X119625808Y-73351594D01*
X119729828Y-73195917D01*
X119801479Y-73022937D01*
X119838006Y-72839302D01*
X119838006Y-72652070D01*
X119801479Y-72468435D01*
X119729828Y-72295455D01*
X119729827Y-72295454D01*
X119729824Y-72295448D01*
X119625808Y-72139778D01*
X119625805Y-72139774D01*
X119493417Y-72007386D01*
X119493413Y-72007383D01*
X119337743Y-71903367D01*
X119337734Y-71903362D01*
X119164757Y-71831713D01*
X119164749Y-71831711D01*
X118981126Y-71795186D01*
X118981122Y-71795186D01*
X118793890Y-71795186D01*
X118793885Y-71795186D01*
X118610262Y-71831711D01*
X118610254Y-71831713D01*
X118437277Y-71903362D01*
X118437268Y-71903367D01*
X118281598Y-72007383D01*
X118281594Y-72007386D01*
X118149206Y-72139774D01*
X118149203Y-72139778D01*
X118045187Y-72295448D01*
X118045182Y-72295457D01*
X117973533Y-72468434D01*
X117973531Y-72468442D01*
X117937006Y-72652065D01*
X116187442Y-72652065D01*
X116195469Y-72637295D01*
X116199569Y-72629769D01*
X116200163Y-72629140D01*
X116231018Y-72571880D01*
X116262044Y-72514790D01*
X116262044Y-72514787D01*
X116264805Y-72509708D01*
X116266439Y-72506148D01*
X116270878Y-72497911D01*
X116271948Y-72496202D01*
X116275213Y-72490115D01*
X116275215Y-72490114D01*
X116306277Y-72432220D01*
X116337199Y-72374840D01*
X116337304Y-72374395D01*
X116363284Y-72325975D01*
X116366696Y-72320017D01*
X116381682Y-72295455D01*
X116673509Y-71817147D01*
X116674435Y-71815654D01*
X116726858Y-71732593D01*
X116729822Y-71728118D01*
X117560899Y-70530744D01*
X120058327Y-70530744D01*
X120058327Y-70717985D01*
X120094852Y-70901608D01*
X120094854Y-70901616D01*
X120166503Y-71074593D01*
X120166508Y-71074602D01*
X120270524Y-71230272D01*
X120270527Y-71230276D01*
X120402915Y-71362664D01*
X120402919Y-71362667D01*
X120558589Y-71466683D01*
X120558598Y-71466688D01*
X120597783Y-71482919D01*
X120731576Y-71538338D01*
X120880965Y-71568053D01*
X120915206Y-71574864D01*
X120915210Y-71574865D01*
X120915211Y-71574865D01*
X121102444Y-71574865D01*
X121102445Y-71574864D01*
X121286078Y-71538338D01*
X121459058Y-71466687D01*
X121614735Y-71362667D01*
X121747129Y-71230273D01*
X121851149Y-71074596D01*
X121922800Y-70901616D01*
X121959327Y-70717981D01*
X121959327Y-70530749D01*
X121922800Y-70347114D01*
X121851149Y-70174134D01*
X121851148Y-70174133D01*
X121851145Y-70174127D01*
X121747129Y-70018457D01*
X121747126Y-70018453D01*
X121614738Y-69886065D01*
X121614734Y-69886062D01*
X121459064Y-69782046D01*
X121459055Y-69782041D01*
X121286078Y-69710392D01*
X121286070Y-69710390D01*
X121102447Y-69673865D01*
X121102443Y-69673865D01*
X120915211Y-69673865D01*
X120915206Y-69673865D01*
X120731583Y-69710390D01*
X120731575Y-69710392D01*
X120558598Y-69782041D01*
X120558589Y-69782046D01*
X120402919Y-69886062D01*
X120402915Y-69886065D01*
X120270527Y-70018453D01*
X120270524Y-70018457D01*
X120166508Y-70174127D01*
X120166503Y-70174136D01*
X120094854Y-70347113D01*
X120094852Y-70347121D01*
X120058327Y-70530744D01*
X117560899Y-70530744D01*
X117617885Y-70448641D01*
X117621098Y-70444226D01*
X117753651Y-70270374D01*
X117853036Y-70141263D01*
X117856999Y-70136734D01*
X117859769Y-70133093D01*
X117859773Y-70133091D01*
X117898829Y-70081774D01*
X117938210Y-70030616D01*
X117938210Y-70030614D01*
X117941007Y-70026982D01*
X117944349Y-70021965D01*
X117960818Y-70000327D01*
X117964081Y-69996224D01*
X117976270Y-69981557D01*
X118028669Y-69946335D01*
X118028191Y-69945180D01*
X118033919Y-69942807D01*
X118034253Y-69942583D01*
X118034956Y-69942377D01*
X118035695Y-69942071D01*
X118035694Y-69942071D01*
X118035699Y-69942070D01*
X118055276Y-69930766D01*
X118070681Y-69923242D01*
X118072301Y-69922584D01*
X118091630Y-69914749D01*
X118119539Y-69893664D01*
X118149827Y-69876178D01*
X118171885Y-69854119D01*
X118196781Y-69835312D01*
X118218281Y-69807723D01*
X118243013Y-69782992D01*
X118258611Y-69755973D01*
X118263896Y-69749193D01*
X118268767Y-69742941D01*
X118277789Y-69731366D01*
X118288429Y-69706212D01*
X118295244Y-69692524D01*
X118306294Y-69673384D01*
X118322694Y-69651141D01*
X118731543Y-69209661D01*
X118790431Y-69174141D01*
X118808453Y-69169313D01*
X118922581Y-69103421D01*
X119015767Y-69010235D01*
X119066402Y-68922531D01*
X119075068Y-68913288D01*
X119078723Y-68904917D01*
X119105000Y-68881362D01*
X119181717Y-68830219D01*
X119235810Y-68794505D01*
X119235810Y-68794504D01*
X119235831Y-68794491D01*
X119236298Y-68794083D01*
X119236685Y-68793746D01*
X119237482Y-68793054D01*
X119237505Y-68793028D01*
X119280253Y-68744385D01*
X119323245Y-68695903D01*
X119323246Y-68695899D01*
X119328652Y-68689804D01*
X119328736Y-68689878D01*
X119329853Y-68687956D01*
X119329988Y-68687803D01*
X119331933Y-68689519D01*
X119362902Y-68660911D01*
X119448081Y-68613253D01*
X119460738Y-68607994D01*
X119460465Y-68607363D01*
X119467919Y-68604133D01*
X119467930Y-68604130D01*
X119516595Y-68574980D01*
X119519670Y-68573200D01*
X119569162Y-68545511D01*
X119569165Y-68545507D01*
X119575678Y-68540649D01*
X119576091Y-68541202D01*
X119586955Y-68532837D01*
X119699532Y-68465410D01*
X119716996Y-68456736D01*
X120165079Y-68276623D01*
X120191408Y-68269288D01*
X120673937Y-68190843D01*
X120689030Y-68191464D01*
X120738774Y-68180302D01*
X120789102Y-68172121D01*
X120792773Y-68170468D01*
X120802880Y-68165918D01*
X120817617Y-68162613D01*
X120862773Y-68138959D01*
X120909273Y-68118029D01*
X120920976Y-68108472D01*
X120934356Y-68101464D01*
X120971853Y-68066928D01*
X121011349Y-68034677D01*
X121020178Y-68022418D01*
X121031290Y-68012185D01*
X121058574Y-67969115D01*
X121088374Y-67927745D01*
X121093730Y-67913619D01*
X121101814Y-67900859D01*
X121117018Y-67852203D01*
X121135099Y-67804523D01*
X121135353Y-67802001D01*
X121140367Y-67777485D01*
X121273215Y-67352373D01*
X121280460Y-67340400D01*
X121282736Y-67329938D01*
X121303886Y-67301683D01*
X121318350Y-67287218D01*
X121325504Y-67280605D01*
X121356923Y-67253782D01*
X121361775Y-67246724D01*
X121376273Y-67229295D01*
X121382332Y-67223237D01*
X121405423Y-67183241D01*
X121431586Y-67145190D01*
X121438248Y-67126387D01*
X121448224Y-67109109D01*
X121460176Y-67064502D01*
X121475600Y-67020973D01*
X121477169Y-67001083D01*
X121482332Y-66981815D01*
X121482332Y-66950071D01*
X121492277Y-66901415D01*
X121617189Y-66608609D01*
X121729052Y-66346394D01*
X121753576Y-66293335D01*
X121754861Y-66285895D01*
X121757824Y-66278952D01*
X121765807Y-66222877D01*
X121766368Y-66219317D01*
X121776019Y-66163476D01*
X121776018Y-66163467D01*
X121776320Y-66155975D01*
X121776398Y-66148491D01*
X121776400Y-66148484D01*
X121769379Y-66090437D01*
X121764088Y-66032232D01*
X121761482Y-66025148D01*
X121760576Y-66017653D01*
X121748956Y-65988744D01*
X121739450Y-65965092D01*
X121738766Y-65963391D01*
X121718595Y-65908550D01*
X121714245Y-65902382D01*
X121711429Y-65895376D01*
X121677419Y-65850073D01*
X121676303Y-65848587D01*
X121642640Y-65800856D01*
X121636845Y-65796026D01*
X121632310Y-65789986D01*
X121587757Y-65755047D01*
X121584898Y-65752736D01*
X121547502Y-65721573D01*
X121508602Y-65663533D01*
X121503180Y-65617751D01*
X121548605Y-64961648D01*
X121549407Y-64953756D01*
X121568343Y-64812689D01*
X121628877Y-64367996D01*
X121628965Y-64367786D01*
X121637701Y-64303167D01*
X121646621Y-64237646D01*
X121646620Y-64237641D01*
X121647646Y-64230106D01*
X121647716Y-64229092D01*
X121649831Y-64213452D01*
X121718968Y-63702118D01*
X121718995Y-63702054D01*
X121727630Y-63638053D01*
X121736616Y-63571594D01*
X121736615Y-63571589D01*
X121737722Y-63563406D01*
X121737742Y-63563100D01*
X121740454Y-63542998D01*
X121742672Y-63531731D01*
X121742865Y-63530173D01*
X121742866Y-63530172D01*
X121750567Y-63468096D01*
X121750735Y-63466803D01*
X121751867Y-63458419D01*
X121759105Y-63404775D01*
X121759104Y-63404774D01*
X121759314Y-63403225D01*
X121760041Y-63391749D01*
X121901699Y-62250081D01*
X123507605Y-62250081D01*
X123509323Y-62447048D01*
X123549439Y-62639909D01*
X123705140Y-63006719D01*
X123705141Y-63006719D01*
X124349494Y-62733207D01*
X124544859Y-63193460D01*
X123900506Y-63466972D01*
X123900505Y-63466973D01*
X124056208Y-63833784D01*
X124056214Y-63833795D01*
X124167065Y-63996603D01*
X124167073Y-63996612D01*
X124307568Y-64134677D01*
X124307569Y-64134678D01*
X124472301Y-64242681D01*
X124654944Y-64316474D01*
X124848464Y-64353214D01*
X124848474Y-64353215D01*
X125045445Y-64351497D01*
X125087059Y-64342840D01*
X125087059Y-64342839D01*
X124773351Y-63603790D01*
X124789229Y-63615755D01*
X124862468Y-63645345D01*
X124940872Y-63654972D01*
X125019094Y-63643978D01*
X125091807Y-63613114D01*
X125154053Y-63564482D01*
X125201592Y-63501396D01*
X125231182Y-63428157D01*
X125233605Y-63408423D01*
X125547314Y-64147474D01*
X125582444Y-64123556D01*
X125582447Y-64123554D01*
X125720513Y-63983057D01*
X125720514Y-63983055D01*
X125828519Y-63818320D01*
X125828520Y-63818318D01*
X125902311Y-63635680D01*
X125939051Y-63442160D01*
X125939052Y-63442150D01*
X125937334Y-63245183D01*
X125897219Y-63052324D01*
X125696334Y-62579069D01*
X125688260Y-62509667D01*
X125718988Y-62446917D01*
X125778764Y-62410742D01*
X125810477Y-62406618D01*
X125920576Y-62406618D01*
X125920579Y-62406618D01*
X126067964Y-62367126D01*
X126200107Y-62290833D01*
X126308001Y-62182939D01*
X126384294Y-62050796D01*
X126423786Y-61903411D01*
X126423786Y-61750825D01*
X126384294Y-61603440D01*
X126382584Y-61600479D01*
X126308003Y-61471300D01*
X126307998Y-61471294D01*
X126200109Y-61363405D01*
X126200103Y-61363400D01*
X126067967Y-61287111D01*
X126067968Y-61287111D01*
X126055881Y-61283872D01*
X125920579Y-61247618D01*
X125767993Y-61247618D01*
X125632690Y-61283872D01*
X125620604Y-61287111D01*
X125488468Y-61363400D01*
X125488462Y-61363405D01*
X125380573Y-61471294D01*
X125380571Y-61471297D01*
X125341458Y-61539042D01*
X125290890Y-61587257D01*
X125222283Y-61600479D01*
X125157418Y-61574511D01*
X125147159Y-61565485D01*
X125139087Y-61557553D01*
X124974353Y-61449549D01*
X124791712Y-61375757D01*
X124598193Y-61339017D01*
X124598183Y-61339016D01*
X124401216Y-61340734D01*
X124359597Y-61349391D01*
X124673305Y-62088441D01*
X124657429Y-62076478D01*
X124584190Y-62046887D01*
X124505787Y-62037260D01*
X124427564Y-62048254D01*
X124354852Y-62079119D01*
X124292605Y-62127750D01*
X124245067Y-62190836D01*
X124215476Y-62264075D01*
X124213052Y-62283809D01*
X123899343Y-61544757D01*
X123864213Y-61568676D01*
X123864209Y-61568680D01*
X123726142Y-61709177D01*
X123618138Y-61873911D01*
X123544346Y-62056552D01*
X123507606Y-62250071D01*
X123507605Y-62250081D01*
X121901699Y-62250081D01*
X121938174Y-61956120D01*
X121938653Y-61954924D01*
X121946274Y-61890842D01*
X121954243Y-61826622D01*
X121954242Y-61826618D01*
X121954836Y-61821836D01*
X121955146Y-61816238D01*
X122011305Y-61344064D01*
X122033053Y-61162474D01*
X122033163Y-61161591D01*
X122033434Y-61159465D01*
X122185019Y-59969928D01*
X122213018Y-59905920D01*
X122271182Y-59867207D01*
X122341043Y-59866085D01*
X122400419Y-59902912D01*
X122410519Y-59915820D01*
X122475203Y-60010820D01*
X122475207Y-60010825D01*
X122615702Y-60148890D01*
X122615703Y-60148891D01*
X122780435Y-60256895D01*
X122963079Y-60330688D01*
X123156598Y-60367428D01*
X123156608Y-60367429D01*
X123353579Y-60365711D01*
X123395193Y-60357054D01*
X123395193Y-60357053D01*
X123081486Y-59618005D01*
X123097363Y-59629969D01*
X123170602Y-59659559D01*
X123249005Y-59669186D01*
X123327228Y-59658192D01*
X123399940Y-59627328D01*
X123462187Y-59578696D01*
X123509725Y-59515610D01*
X123539316Y-59442371D01*
X123541738Y-59422639D01*
X123855447Y-60161688D01*
X123890577Y-60137770D01*
X123890580Y-60137768D01*
X124028647Y-59997271D01*
X124028648Y-59997270D01*
X124136651Y-59832538D01*
X124210442Y-59649900D01*
X124240346Y-59492399D01*
X130585304Y-59492399D01*
X130585304Y-59644985D01*
X130622695Y-59784528D01*
X130624797Y-59792373D01*
X130701086Y-59924509D01*
X130701088Y-59924511D01*
X130701089Y-59924513D01*
X130808983Y-60032407D01*
X130808984Y-60032408D01*
X130808986Y-60032409D01*
X130941122Y-60108698D01*
X130941123Y-60108698D01*
X130941126Y-60108700D01*
X131088511Y-60148192D01*
X131088514Y-60148192D01*
X131241094Y-60148192D01*
X131241097Y-60148192D01*
X131388482Y-60108700D01*
X131520625Y-60032407D01*
X131606959Y-59946072D01*
X131668278Y-59912590D01*
X131737970Y-59917574D01*
X131793904Y-59959445D01*
X131808780Y-59985305D01*
X132009375Y-60457875D01*
X132009376Y-60457878D01*
X132120227Y-60620686D01*
X132120235Y-60620695D01*
X132260730Y-60758760D01*
X132260731Y-60758761D01*
X132425463Y-60866764D01*
X132608106Y-60940557D01*
X132801626Y-60977297D01*
X132801636Y-60977298D01*
X132998607Y-60975580D01*
X133040221Y-60966923D01*
X133040221Y-60966922D01*
X132726514Y-60227873D01*
X132742391Y-60239838D01*
X132815630Y-60269428D01*
X132894034Y-60279055D01*
X132972256Y-60268061D01*
X133044969Y-60237197D01*
X133107215Y-60188565D01*
X133154754Y-60125479D01*
X133184344Y-60052240D01*
X133186766Y-60032507D01*
X133500476Y-60771557D01*
X133535610Y-60747636D01*
X133673675Y-60607140D01*
X133673676Y-60607138D01*
X133781681Y-60442403D01*
X133781682Y-60442401D01*
X133855473Y-60259763D01*
X133892213Y-60066243D01*
X133892214Y-60066233D01*
X133890496Y-59869266D01*
X133850381Y-59676407D01*
X133694677Y-59309593D01*
X133050324Y-59583105D01*
X132854958Y-59122851D01*
X133499311Y-58849341D01*
X133343608Y-58482524D01*
X133232750Y-58319707D01*
X133232746Y-58319703D01*
X133092249Y-58181636D01*
X132927515Y-58073632D01*
X132744874Y-57999840D01*
X132551355Y-57963100D01*
X132551345Y-57963099D01*
X132354378Y-57964817D01*
X132312759Y-57973474D01*
X132626466Y-58712524D01*
X132610591Y-58700561D01*
X132537352Y-58670970D01*
X132458949Y-58661343D01*
X132380726Y-58672337D01*
X132308014Y-58703202D01*
X132245767Y-58751833D01*
X132198229Y-58814919D01*
X132168638Y-58888158D01*
X132166214Y-58907891D01*
X131852505Y-58168840D01*
X131817375Y-58192759D01*
X131817371Y-58192763D01*
X131679304Y-58333260D01*
X131571300Y-58497994D01*
X131497508Y-58680635D01*
X131460768Y-58874154D01*
X131460767Y-58874165D01*
X131460865Y-58885400D01*
X131441766Y-58952608D01*
X131389362Y-58998821D01*
X131320293Y-59009367D01*
X131304777Y-59006255D01*
X131283153Y-59000460D01*
X131241097Y-58989192D01*
X131088511Y-58989192D01*
X130953208Y-59025446D01*
X130941122Y-59028685D01*
X130808986Y-59104974D01*
X130808980Y-59104979D01*
X130701091Y-59212868D01*
X130701086Y-59212874D01*
X130624797Y-59345010D01*
X130624796Y-59345014D01*
X130585304Y-59492399D01*
X124240346Y-59492399D01*
X124246281Y-59461142D01*
X124246281Y-59461140D01*
X124247185Y-59456378D01*
X124247186Y-59456366D01*
X124245468Y-59259398D01*
X124205353Y-59066539D01*
X124108259Y-58837801D01*
X123463906Y-59111312D01*
X123268540Y-58651058D01*
X123912894Y-58377547D01*
X123815804Y-58148814D01*
X123740168Y-58037726D01*
X123740167Y-58037725D01*
X123704943Y-57985991D01*
X123704939Y-57985987D01*
X123564441Y-57847919D01*
X123399709Y-57739916D01*
X123217073Y-57666126D01*
X123023542Y-57629382D01*
X122826570Y-57631100D01*
X122826569Y-57631100D01*
X122784951Y-57639757D01*
X123098658Y-58378806D01*
X123082783Y-58366844D01*
X123009544Y-58337253D01*
X122931141Y-58327626D01*
X122852918Y-58338620D01*
X122780206Y-58369485D01*
X122717959Y-58418116D01*
X122670421Y-58481202D01*
X122640830Y-58554441D01*
X122638406Y-58574174D01*
X122442171Y-58111873D01*
X122439948Y-58095782D01*
X122433872Y-58083017D01*
X122433311Y-58047739D01*
X122435249Y-58032544D01*
X122438438Y-58019797D01*
X122437636Y-58019609D01*
X122439494Y-58011706D01*
X122439498Y-58011698D01*
X122445260Y-57954388D01*
X122445623Y-57951200D01*
X122452918Y-57894019D01*
X122452918Y-57894016D01*
X122452885Y-57885882D01*
X122453712Y-57885878D01*
X122453472Y-57872725D01*
X122457457Y-57833106D01*
X122507306Y-57337390D01*
X122509477Y-57323635D01*
X122580658Y-56994125D01*
X122614053Y-56932757D01*
X122650055Y-56907652D01*
X122671129Y-56897962D01*
X122677936Y-56895074D01*
X122929446Y-56797201D01*
X122931827Y-56796303D01*
X123143315Y-56719106D01*
X123156907Y-56715860D01*
X123156753Y-56715254D01*
X123164627Y-56713243D01*
X123164628Y-56713242D01*
X123164631Y-56713242D01*
X123216894Y-56692310D01*
X123220390Y-56690972D01*
X123266920Y-56673989D01*
X123273230Y-56671686D01*
X123280439Y-56667925D01*
X123280729Y-56668481D01*
X123293010Y-56661825D01*
X123802044Y-56457959D01*
X123804182Y-56457685D01*
X123863161Y-56433481D01*
X123863597Y-56433307D01*
X123863599Y-56433306D01*
X123863836Y-56433210D01*
X123922380Y-56409765D01*
X123922382Y-56409763D01*
X123924970Y-56408727D01*
X123933262Y-56404714D01*
X124678941Y-56098717D01*
X124845728Y-56030751D01*
X125631687Y-55713670D01*
X125633562Y-55713052D01*
X125640007Y-55710438D01*
X125640010Y-55710438D01*
X125700518Y-55685902D01*
X125761357Y-55661358D01*
X125761359Y-55661355D01*
X125767794Y-55658760D01*
X125769587Y-55657895D01*
X126025362Y-55554179D01*
X126029514Y-55552581D01*
X126773469Y-55281759D01*
X126806479Y-55274337D01*
X126835127Y-55259313D01*
X126865517Y-55248251D01*
X126886723Y-55233399D01*
X126900254Y-55225160D01*
X126954202Y-55196871D01*
X127018592Y-55163106D01*
X127076178Y-55148923D01*
X127181445Y-55148923D01*
X127181447Y-55148923D01*
X127308741Y-55114815D01*
X127422869Y-55048923D01*
X127516055Y-54955737D01*
X127517935Y-54952479D01*
X127527384Y-54943556D01*
X127548743Y-54932672D01*
X127569319Y-54917476D01*
X127639665Y-54891328D01*
X127667180Y-54881182D01*
X127680326Y-54878017D01*
X127680145Y-54877308D01*
X127688016Y-54875290D01*
X127688020Y-54875288D01*
X127688023Y-54875288D01*
X127740939Y-54854040D01*
X127744125Y-54852813D01*
X127797647Y-54833081D01*
X127797655Y-54833075D01*
X127804846Y-54829295D01*
X127805187Y-54829945D01*
X127817055Y-54823478D01*
X128435788Y-54575047D01*
X128436098Y-54575010D01*
X128496847Y-54550531D01*
X128557793Y-54526061D01*
X128557795Y-54526059D01*
X128564650Y-54523307D01*
X128565881Y-54522714D01*
X129348972Y-54207176D01*
X129352430Y-54205789D01*
X129354183Y-54205086D01*
X129376081Y-54196302D01*
X129437934Y-54171492D01*
X129437935Y-54171491D01*
X129438061Y-54171479D01*
X129438296Y-54171347D01*
X129632390Y-54094226D01*
X129632844Y-54094080D01*
X129640236Y-54091139D01*
X129640237Y-54091139D01*
X129702518Y-54066362D01*
X129762508Y-54042526D01*
X129762589Y-54042465D01*
X129808802Y-54024080D01*
X129828584Y-54018066D01*
X129966112Y-53988520D01*
X130035791Y-53993684D01*
X130079839Y-54022073D01*
X130092451Y-54034685D01*
X130092453Y-54034686D01*
X130092454Y-54034687D01*
X130095736Y-54036582D01*
X130098916Y-54038418D01*
X130117761Y-54051784D01*
X130123419Y-54056649D01*
X130123422Y-54056650D01*
X130123423Y-54056651D01*
X130161625Y-54075027D01*
X130169866Y-54079381D01*
X130206582Y-54100579D01*
X130206586Y-54100580D01*
X130213785Y-54102509D01*
X130213793Y-54102511D01*
X130225000Y-54105513D01*
X130242181Y-54113779D01*
X130288423Y-54122508D01*
X130311040Y-54128568D01*
X130337055Y-54138803D01*
X130544787Y-54249023D01*
X130550967Y-54252532D01*
X130762331Y-54380730D01*
X130809441Y-54432325D01*
X130812167Y-54438300D01*
X131051821Y-55002890D01*
X131035945Y-54990927D01*
X130962706Y-54961336D01*
X130884303Y-54951709D01*
X130806080Y-54962703D01*
X130733368Y-54993568D01*
X130671121Y-55042199D01*
X130623583Y-55105285D01*
X130593992Y-55178524D01*
X130591568Y-55198257D01*
X130277859Y-54459205D01*
X130242732Y-54483123D01*
X130242725Y-54483129D01*
X130104658Y-54623626D01*
X129996655Y-54788358D01*
X129922865Y-54970994D01*
X129886121Y-55164522D01*
X129886121Y-55164529D01*
X129887839Y-55361496D01*
X129927954Y-55554357D01*
X130025046Y-55783093D01*
X130669400Y-55509580D01*
X130864765Y-55969833D01*
X130220412Y-56243346D01*
X130220411Y-56243347D01*
X130317503Y-56472080D01*
X130317506Y-56472085D01*
X130428365Y-56634903D01*
X130428369Y-56634908D01*
X130568864Y-56772973D01*
X130568865Y-56772974D01*
X130733597Y-56880978D01*
X130916241Y-56954771D01*
X131109760Y-56991511D01*
X131109770Y-56991512D01*
X131306741Y-56989794D01*
X131348355Y-56981137D01*
X131348355Y-56981136D01*
X131034647Y-56242087D01*
X131050525Y-56254052D01*
X131123764Y-56283642D01*
X131202167Y-56293269D01*
X131280390Y-56282275D01*
X131353102Y-56251411D01*
X131415349Y-56202779D01*
X131462887Y-56139693D01*
X131492478Y-56066454D01*
X131494900Y-56046721D01*
X131808609Y-56785771D01*
X131843739Y-56761853D01*
X131843742Y-56761851D01*
X131981809Y-56621354D01*
X131981810Y-56621353D01*
X132089813Y-56456621D01*
X132163604Y-56273983D01*
X132200348Y-56080456D01*
X132200348Y-56080449D01*
X132198630Y-55883481D01*
X132158515Y-55690622D01*
X132054038Y-55444489D01*
X132045964Y-55375087D01*
X132076692Y-55312337D01*
X132136468Y-55276162D01*
X132206312Y-55278046D01*
X132235635Y-55291990D01*
X132370938Y-55379716D01*
X132583142Y-55517302D01*
X132583143Y-55517302D01*
X132591092Y-55522456D01*
X132592219Y-55523689D01*
X132646316Y-55558261D01*
X132646664Y-55558486D01*
X132646665Y-55558488D01*
X132703542Y-55595365D01*
X132709848Y-55598863D01*
X132724721Y-55608368D01*
X132735983Y-55616487D01*
X132738614Y-55618617D01*
X132738618Y-55618621D01*
X132759322Y-55631308D01*
X132789807Y-55649989D01*
X132790813Y-55650605D01*
X132842308Y-55683515D01*
X132846885Y-55684965D01*
X133295662Y-55959968D01*
X133301131Y-55963808D01*
X133304723Y-55965979D01*
X133304724Y-55965980D01*
X133359852Y-55999303D01*
X133414702Y-56032914D01*
X133416182Y-56033352D01*
X133907301Y-56330215D01*
X133908765Y-56331115D01*
X133935556Y-56347845D01*
X134000332Y-56388292D01*
X134002003Y-56389354D01*
X134411486Y-56654276D01*
X134434076Y-56673989D01*
X134466568Y-56689912D01*
X134472743Y-56693907D01*
X134472744Y-56693908D01*
X134494402Y-56707921D01*
X134496956Y-56709573D01*
X134517032Y-56716057D01*
X134533476Y-56722703D01*
X134540929Y-56726356D01*
X134615701Y-56763002D01*
X134626808Y-56772397D01*
X134637444Y-56776613D01*
X134653169Y-56794697D01*
X134661888Y-56802072D01*
X134665460Y-56807052D01*
X134684099Y-56839335D01*
X134700085Y-56855321D01*
X134705993Y-56863557D01*
X134706063Y-56863758D01*
X134706533Y-56864316D01*
X134707948Y-56866320D01*
X134713729Y-56874508D01*
X134746828Y-56902064D01*
X134777285Y-56932521D01*
X134797269Y-56944058D01*
X134805421Y-56950845D01*
X134805421Y-56950846D01*
X134805423Y-56950847D01*
X134815006Y-56958825D01*
X134815008Y-56958827D01*
X134820637Y-56961425D01*
X134848977Y-56974507D01*
X134859004Y-56979702D01*
X134891407Y-56998410D01*
X134891412Y-56998413D01*
X134903457Y-57001640D01*
X134913705Y-57004386D01*
X134934660Y-57014059D01*
X134977107Y-57021374D01*
X135018707Y-57032521D01*
X135031178Y-57032521D01*
X135052238Y-57034322D01*
X135064529Y-57036441D01*
X135101788Y-57033035D01*
X135113073Y-57032521D01*
X135150492Y-57032521D01*
X135156450Y-57030923D01*
X135162534Y-57029293D01*
X135183347Y-57025581D01*
X135585812Y-56988802D01*
X135605447Y-56990631D01*
X135651208Y-56982825D01*
X135697418Y-56978603D01*
X135705178Y-56975743D01*
X135727187Y-56969866D01*
X135735355Y-56968474D01*
X135777535Y-56949091D01*
X135821080Y-56933052D01*
X135837185Y-56921681D01*
X135855102Y-56913449D01*
X135890824Y-56883813D01*
X135928738Y-56857047D01*
X135941352Y-56841895D01*
X136062082Y-56741735D01*
X136063224Y-56740801D01*
X136090676Y-56718643D01*
X136112210Y-56704677D01*
X136113014Y-56704268D01*
X136113017Y-56704265D01*
X136113018Y-56704265D01*
X136149331Y-56671536D01*
X136154468Y-56667153D01*
X136156957Y-56665144D01*
X136192519Y-56636441D01*
X136193050Y-56635711D01*
X136210235Y-56616645D01*
X136463552Y-56388344D01*
X136473122Y-56380548D01*
X137851516Y-55367971D01*
X137872863Y-55355367D01*
X139064853Y-54804153D01*
X148618004Y-54804153D01*
X148618004Y-55128439D01*
X148621558Y-55164522D01*
X148649788Y-55451153D01*
X148649791Y-55451170D01*
X148713049Y-55769198D01*
X148713052Y-55769209D01*
X148807190Y-56079543D01*
X148880252Y-56255928D01*
X148926796Y-56368297D01*
X148931290Y-56379145D01*
X148931292Y-56379150D01*
X149084150Y-56665126D01*
X149084161Y-56665144D01*
X149264315Y-56934763D01*
X149264325Y-56934777D01*
X149470050Y-57185454D01*
X149699345Y-57414749D01*
X149699350Y-57414753D01*
X149699351Y-57414754D01*
X149950028Y-57620479D01*
X150219662Y-57800643D01*
X150219671Y-57800648D01*
X150219673Y-57800649D01*
X150505649Y-57953507D01*
X150505651Y-57953507D01*
X150505657Y-57953511D01*
X150805258Y-58077610D01*
X151115581Y-58171745D01*
X151115587Y-58171746D01*
X151115590Y-58171747D01*
X151115601Y-58171750D01*
X151315032Y-58211418D01*
X151433636Y-58235010D01*
X151756361Y-58266796D01*
X151756364Y-58266796D01*
X152080644Y-58266796D01*
X152080647Y-58266796D01*
X152403372Y-58235010D01*
X152560799Y-58203695D01*
X152721406Y-58171750D01*
X152721417Y-58171747D01*
X152721417Y-58171746D01*
X152721427Y-58171745D01*
X153031750Y-58077610D01*
X153331351Y-57953511D01*
X153617346Y-57800643D01*
X153886980Y-57620479D01*
X154137657Y-57414754D01*
X154366962Y-57185449D01*
X154572687Y-56934772D01*
X154752851Y-56665138D01*
X154905719Y-56379143D01*
X155029818Y-56079542D01*
X155123953Y-55769219D01*
X155123955Y-55769209D01*
X155123958Y-55769198D01*
X155159518Y-55590420D01*
X155187218Y-55451164D01*
X155219004Y-55128439D01*
X155219004Y-55081491D01*
X155698671Y-55081491D01*
X155698671Y-55337307D01*
X156436171Y-55337307D01*
X156436171Y-54387307D01*
X156392855Y-54387307D01*
X156290997Y-54397714D01*
X156125961Y-54452401D01*
X156125956Y-54452403D01*
X155977979Y-54543677D01*
X155855041Y-54666615D01*
X155763767Y-54814592D01*
X155763765Y-54814597D01*
X155709078Y-54979633D01*
X155698671Y-55081491D01*
X155219004Y-55081491D01*
X155219004Y-54804153D01*
X155187218Y-54481428D01*
X155161499Y-54352128D01*
X155123958Y-54163393D01*
X155123955Y-54163382D01*
X155123954Y-54163379D01*
X155123953Y-54163373D01*
X155029818Y-53853050D01*
X154905719Y-53553449D01*
X154891268Y-53526414D01*
X154752857Y-53267465D01*
X154752856Y-53267463D01*
X154752851Y-53267454D01*
X154572687Y-52997820D01*
X154366962Y-52747143D01*
X154366961Y-52747142D01*
X154366957Y-52747137D01*
X154137662Y-52517842D01*
X153886985Y-52312117D01*
X153886984Y-52312116D01*
X153886980Y-52312113D01*
X153617346Y-52131949D01*
X153617341Y-52131946D01*
X153617334Y-52131942D01*
X153331358Y-51979084D01*
X153331353Y-51979082D01*
X153315588Y-51972552D01*
X153211324Y-51929364D01*
X153031751Y-51854982D01*
X152721417Y-51760844D01*
X152721406Y-51760841D01*
X152403378Y-51697583D01*
X152403361Y-51697580D01*
X152159316Y-51673544D01*
X152080647Y-51665796D01*
X151756361Y-51665796D01*
X151683603Y-51672962D01*
X151433646Y-51697580D01*
X151433629Y-51697583D01*
X151115601Y-51760841D01*
X151115590Y-51760844D01*
X150805256Y-51854982D01*
X150505654Y-51979082D01*
X150505649Y-51979084D01*
X150219673Y-52131942D01*
X150219655Y-52131953D01*
X149950036Y-52312107D01*
X149950022Y-52312117D01*
X149699345Y-52517842D01*
X149470050Y-52747137D01*
X149264325Y-52997814D01*
X149264315Y-52997828D01*
X149084161Y-53267447D01*
X149084150Y-53267465D01*
X148931292Y-53553441D01*
X148931290Y-53553446D01*
X148807190Y-53853048D01*
X148713052Y-54163382D01*
X148713049Y-54163393D01*
X148649791Y-54481421D01*
X148649788Y-54481438D01*
X148625758Y-54725430D01*
X148618004Y-54804153D01*
X139064853Y-54804153D01*
X139447054Y-54627411D01*
X139448820Y-54626613D01*
X139752311Y-54492606D01*
X139765325Y-54487714D01*
X140870874Y-54141638D01*
X140893924Y-54136768D01*
X142098405Y-54000123D01*
X142116173Y-53999392D01*
X143355148Y-54037367D01*
X143370392Y-54038780D01*
X144254719Y-54176245D01*
X144270788Y-54183782D01*
X144288190Y-54186443D01*
X144311905Y-54203067D01*
X144317709Y-54205789D01*
X144320622Y-54208359D01*
X144340140Y-54227877D01*
X144347675Y-54232227D01*
X144355950Y-54239528D01*
X144356341Y-54239803D01*
X144356344Y-54239806D01*
X144403666Y-54264667D01*
X144403665Y-54264667D01*
X144405853Y-54265816D01*
X144454268Y-54293769D01*
X144464046Y-54296388D01*
X144473008Y-54301097D01*
X144525124Y-54312856D01*
X144529913Y-54314037D01*
X144581562Y-54327877D01*
X144581564Y-54327877D01*
X144591686Y-54327877D01*
X144601560Y-54330105D01*
X144657428Y-54327877D01*
X144705489Y-54327877D01*
X144724643Y-54329365D01*
X145221913Y-54407110D01*
X145235987Y-54410158D01*
X145236608Y-54410330D01*
X145236613Y-54410332D01*
X145297407Y-54418925D01*
X145299091Y-54419176D01*
X145304366Y-54420000D01*
X145359704Y-54428653D01*
X145359718Y-54428651D01*
X145360328Y-54428667D01*
X145360362Y-54428668D01*
X145364299Y-54428763D01*
X145364364Y-54428765D01*
X145365861Y-54428801D01*
X145366457Y-54428772D01*
X145367097Y-54428778D01*
X145367098Y-54428777D01*
X145367100Y-54428778D01*
X145428878Y-54421243D01*
X145490739Y-54414617D01*
X145494215Y-54413274D01*
X145928527Y-54360303D01*
X145950304Y-54359577D01*
X145961094Y-54360167D01*
X146004546Y-54351032D01*
X146048615Y-54345658D01*
X146068778Y-54337530D01*
X146090059Y-54333057D01*
X146124923Y-54315390D01*
X146134597Y-54311000D01*
X146159165Y-54301097D01*
X146170843Y-54296390D01*
X146188219Y-54283317D01*
X146207613Y-54273491D01*
X146240667Y-54243862D01*
X146276155Y-54217166D01*
X146282819Y-54208648D01*
X146297702Y-54192737D01*
X146668850Y-53860058D01*
X146683894Y-53848521D01*
X146686704Y-53846688D01*
X146690451Y-53844526D01*
X146691253Y-53843723D01*
X146696853Y-53840073D01*
X146709440Y-53836287D01*
X146739716Y-53822467D01*
X146744238Y-53821542D01*
X146746600Y-53820360D01*
X146769966Y-53811491D01*
X146772530Y-53810805D01*
X146816601Y-53785360D01*
X146862110Y-53762606D01*
X146873487Y-53752516D01*
X146884363Y-53746237D01*
X146884365Y-53746237D01*
X146884367Y-53746235D01*
X146886658Y-53744913D01*
X146920017Y-53711553D01*
X146925414Y-53706471D01*
X146960712Y-53675171D01*
X146962169Y-53672962D01*
X146966787Y-53666435D01*
X146971933Y-53659636D01*
X146979844Y-53651727D01*
X146986020Y-53641029D01*
X146990677Y-53634878D01*
X147007326Y-53622553D01*
X147027547Y-53602333D01*
X147031551Y-53600022D01*
X147124737Y-53506836D01*
X147190629Y-53392708D01*
X147190631Y-53392698D01*
X147192126Y-53389092D01*
X147192783Y-53388275D01*
X147192913Y-53387235D01*
X147214655Y-53361134D01*
X147235967Y-53334689D01*
X147237182Y-53334092D01*
X147237633Y-53333552D01*
X147269446Y-53318269D01*
X147285462Y-53313225D01*
X147344680Y-53294580D01*
X147349727Y-53293110D01*
X147400393Y-53279535D01*
X147409899Y-53274046D01*
X147420369Y-53270750D01*
X147466826Y-53241179D01*
X147514521Y-53213643D01*
X147514526Y-53213637D01*
X147520976Y-53208690D01*
X147521044Y-53208779D01*
X147525383Y-53205298D01*
X147525311Y-53205212D01*
X147531539Y-53199990D01*
X147531540Y-53199988D01*
X147531543Y-53199987D01*
X147568768Y-53159395D01*
X147607707Y-53120457D01*
X147613193Y-53110953D01*
X147620611Y-53102865D01*
X147620610Y-53102865D01*
X147620614Y-53102862D01*
X147644850Y-53056348D01*
X147647372Y-53051753D01*
X147673599Y-53006329D01*
X147673599Y-53006328D01*
X147674190Y-53005305D01*
X147707465Y-52967892D01*
X147711133Y-52965158D01*
X147834149Y-52873456D01*
X147835684Y-52872332D01*
X147882690Y-52838544D01*
X147901086Y-52827599D01*
X148155186Y-52704782D01*
X148173150Y-52699969D01*
X148214308Y-52676205D01*
X148257096Y-52655525D01*
X148262297Y-52651036D01*
X148281328Y-52637512D01*
X148281535Y-52637392D01*
X148287278Y-52634077D01*
X148317674Y-52603679D01*
X148324309Y-52597514D01*
X148356861Y-52569421D01*
X148367315Y-52554039D01*
X148380464Y-52540891D01*
X148404226Y-52499733D01*
X148430941Y-52460429D01*
X148430942Y-52460424D01*
X148432135Y-52458670D01*
X148469529Y-52422876D01*
X148504297Y-52401403D01*
X148504297Y-52401402D01*
X148504533Y-52401257D01*
X148515867Y-52393072D01*
X148992951Y-52089709D01*
X148999480Y-52085836D01*
X149791323Y-51648531D01*
X149818446Y-51638408D01*
X149848757Y-51616812D01*
X149881341Y-51598818D01*
X149895604Y-51585086D01*
X149909655Y-51573425D01*
X150039114Y-51481192D01*
X150067513Y-51466085D01*
X150318110Y-51372110D01*
X150320690Y-51371833D01*
X150379722Y-51349005D01*
X150439071Y-51326750D01*
X150439074Y-51326747D01*
X150440780Y-51326108D01*
X150450795Y-51321522D01*
X150540523Y-51286825D01*
X150547419Y-51284390D01*
X151226904Y-51066957D01*
X151229070Y-51066287D01*
X151299597Y-51045220D01*
X151319420Y-51041027D01*
X152901619Y-50839585D01*
X152917835Y-50838594D01*
X153021846Y-50839072D01*
X153032737Y-50839604D01*
X154081774Y-50937289D01*
X154130254Y-50941804D01*
X154143510Y-50943766D01*
X154195816Y-50954422D01*
X154203052Y-50956123D01*
X154287879Y-50978775D01*
X154396187Y-51007696D01*
X154399103Y-51008678D01*
X154405188Y-51010284D01*
X154405192Y-51010287D01*
X154468058Y-51026888D01*
X154531224Y-51043755D01*
X154531225Y-51043754D01*
X154537292Y-51045375D01*
X154540318Y-51045969D01*
X154567702Y-51053200D01*
X154583953Y-51058722D01*
X155449606Y-51421575D01*
X155486183Y-51436907D01*
X155515804Y-51454515D01*
X155779377Y-51665796D01*
X156209363Y-52010475D01*
X156271791Y-52060517D01*
X156286644Y-52074586D01*
X156300143Y-52089673D01*
X156318353Y-52116328D01*
X156480426Y-52436322D01*
X156491336Y-52457861D01*
X156493674Y-52467212D01*
X156521034Y-52516498D01*
X156522110Y-52518622D01*
X156546523Y-52566823D01*
X156546529Y-52566831D01*
X156552960Y-52574008D01*
X156557637Y-52582433D01*
X156596818Y-52622956D01*
X156598393Y-52624713D01*
X156634466Y-52664971D01*
X156634470Y-52664974D01*
X156634471Y-52664975D01*
X156642540Y-52670243D01*
X156649241Y-52677173D01*
X156697601Y-52706189D01*
X156744820Y-52737016D01*
X156753979Y-52740016D01*
X156762245Y-52744976D01*
X156816476Y-52760489D01*
X156870057Y-52778042D01*
X156870058Y-52778042D01*
X156870061Y-52778043D01*
X156878046Y-52779543D01*
X156877985Y-52779866D01*
X156880854Y-52780349D01*
X156880903Y-52780024D01*
X156888942Y-52781219D01*
X156888947Y-52781221D01*
X156943027Y-52782130D01*
X156947668Y-52782296D01*
X157001643Y-52785257D01*
X157001648Y-52785256D01*
X157001649Y-52785256D01*
X157011078Y-52783275D01*
X157020713Y-52783438D01*
X157075435Y-52769757D01*
X157130613Y-52758168D01*
X157130617Y-52758166D01*
X157138281Y-52755473D01*
X157138389Y-52755781D01*
X157152724Y-52750434D01*
X157206448Y-52737004D01*
X157220323Y-52734367D01*
X157222325Y-52734103D01*
X157222333Y-52734103D01*
X157281035Y-52718372D01*
X157282774Y-52717922D01*
X157341753Y-52703179D01*
X157341761Y-52703174D01*
X157343624Y-52702440D01*
X157343631Y-52702437D01*
X157346651Y-52701245D01*
X157346653Y-52701244D01*
X157346668Y-52701239D01*
X157347311Y-52700984D01*
X157347777Y-52700760D01*
X157349612Y-52699998D01*
X157349627Y-52699995D01*
X157402193Y-52669644D01*
X157403900Y-52668678D01*
X157456975Y-52639216D01*
X157456982Y-52639208D01*
X157458581Y-52638025D01*
X157461194Y-52636088D01*
X157461196Y-52636087D01*
X157461243Y-52636052D01*
X157461777Y-52635656D01*
X157462161Y-52635325D01*
X157463743Y-52634109D01*
X157463755Y-52634103D01*
X157506700Y-52591156D01*
X157508077Y-52589804D01*
X157531575Y-52567084D01*
X157551714Y-52547612D01*
X157551720Y-52547601D01*
X157552976Y-52546022D01*
X157552981Y-52546015D01*
X157554994Y-52543481D01*
X157554996Y-52543479D01*
X157555014Y-52543457D01*
X157555420Y-52542945D01*
X157555707Y-52542524D01*
X157556935Y-52540922D01*
X157556941Y-52540917D01*
X157587786Y-52487491D01*
X157619517Y-52434607D01*
X157620693Y-52430495D01*
X157622833Y-52426789D01*
X157626262Y-52413988D01*
X157662625Y-52354328D01*
X157665633Y-52351681D01*
X157758798Y-52272363D01*
X157811040Y-52227888D01*
X157821668Y-52219788D01*
X157826774Y-52216312D01*
X157826784Y-52216308D01*
X157870638Y-52177193D01*
X157872718Y-52175382D01*
X157917428Y-52137321D01*
X157917431Y-52137315D01*
X157921566Y-52132738D01*
X157931040Y-52123321D01*
X158050883Y-52016435D01*
X158051750Y-52015995D01*
X158100085Y-51972552D01*
X158148509Y-51929364D01*
X158148508Y-51929364D01*
X158152696Y-51925630D01*
X158155661Y-51922601D01*
X158167138Y-51912285D01*
X158178190Y-51903441D01*
X158179813Y-51902286D01*
X158179819Y-51902284D01*
X158225022Y-51860263D01*
X158270883Y-51819045D01*
X158273211Y-51815466D01*
X158490292Y-51613668D01*
X158495392Y-51609490D01*
X158498481Y-51606583D01*
X158498484Y-51606582D01*
X158545237Y-51562593D01*
X158545377Y-51562463D01*
X158545463Y-51562382D01*
X158592538Y-51518622D01*
X158592765Y-51518258D01*
X158592776Y-51518253D01*
X158639721Y-51473697D01*
X158686979Y-51429235D01*
X158686979Y-51429234D01*
X158690832Y-51425610D01*
X158694109Y-51422076D01*
X158776795Y-51343600D01*
X158796295Y-51328479D01*
X159056646Y-51165302D01*
X159105860Y-51136889D01*
X159112375Y-51130373D01*
X159120180Y-51125482D01*
X159158870Y-51083878D01*
X159199046Y-51043703D01*
X159203651Y-51035725D01*
X159209926Y-51028979D01*
X159235493Y-50980734D01*
X159237634Y-50976865D01*
X159264938Y-50929575D01*
X159264939Y-50929570D01*
X159266565Y-50925646D01*
X159268508Y-50919842D01*
X159270903Y-50913919D01*
X159271636Y-50912537D01*
X159271863Y-50911544D01*
X159274295Y-50905533D01*
X159281708Y-50896173D01*
X159307382Y-50858891D01*
X159344668Y-50826116D01*
X159356352Y-50818018D01*
X159356018Y-50817553D01*
X159362618Y-50812816D01*
X159362624Y-50812814D01*
X159404829Y-50773237D01*
X159448259Y-50735063D01*
X159452791Y-50728263D01*
X159593458Y-50596357D01*
X159604283Y-50588363D01*
X159603830Y-50587768D01*
X159610292Y-50582848D01*
X159610298Y-50582845D01*
X159650856Y-50542597D01*
X159653245Y-50540293D01*
X159694956Y-50501183D01*
X159694958Y-50501180D01*
X159700108Y-50494898D01*
X159700684Y-50495370D01*
X159709071Y-50484833D01*
X159726696Y-50467343D01*
X159737234Y-50458014D01*
X159737807Y-50457562D01*
X159764966Y-50446641D01*
X159788143Y-50434103D01*
X159794886Y-50434611D01*
X159802633Y-50431497D01*
X159807364Y-50431130D01*
X160001999Y-50419747D01*
X160034633Y-50422163D01*
G37*
%TD.AperFunction*%
%TD*%
M02*
