%TF.GenerationSoftware,KiCad,Pcbnew,9.0.0*%
%TF.CreationDate,2025-12-18T00:51:24+08:00*%
%TF.ProjectId,hnr26-badge,686e7232-362d-4626-9164-67652e6b6963,0.0.14*%
%TF.SameCoordinates,Original*%
%TF.FileFunction,Soldermask,Bot*%
%TF.FilePolarity,Negative*%
%FSLAX46Y46*%
G04 Gerber Fmt 4.6, Leading zero omitted, Abs format (unit mm)*
G04 Created by KiCad (PCBNEW 9.0.0) date 2025-12-18 00:51:24*
%MOMM*%
%LPD*%
G01*
G04 APERTURE LIST*
G04 Aperture macros list*
%AMRoundRect*
0 Rectangle with rounded corners*
0 $1 Rounding radius*
0 $2 $3 $4 $5 $6 $7 $8 $9 X,Y pos of 4 corners*
0 Add a 4 corners polygon primitive as box body*
4,1,4,$2,$3,$4,$5,$6,$7,$8,$9,$2,$3,0*
0 Add four circle primitives for the rounded corners*
1,1,$1+$1,$2,$3*
1,1,$1+$1,$4,$5*
1,1,$1+$1,$6,$7*
1,1,$1+$1,$8,$9*
0 Add four rect primitives between the rounded corners*
20,1,$1+$1,$2,$3,$4,$5,0*
20,1,$1+$1,$4,$5,$6,$7,0*
20,1,$1+$1,$6,$7,$8,$9,0*
20,1,$1+$1,$8,$9,$2,$3,0*%
%AMHorizOval*
0 Thick line with rounded ends*
0 $1 width*
0 $2 $3 position (X,Y) of the first rounded end (center of the circle)*
0 $4 $5 position (X,Y) of the second rounded end (center of the circle)*
0 Add line between two ends*
20,1,$1,$2,$3,$4,$5,0*
0 Add two circle primitives to create the rounded ends*
1,1,$1,$2,$3*
1,1,$1,$4,$5*%
%AMRotRect*
0 Rectangle, with rotation*
0 The origin of the aperture is its center*
0 $1 length*
0 $2 width*
0 $3 Rotation angle, in degrees counterclockwise*
0 Add horizontal line*
21,1,$1,$2,0,0,$3*%
%AMFreePoly0*
4,1,23,0.500000,-0.750000,0.000000,-0.750000,0.000000,-0.745722,-0.065263,-0.745722,-0.191342,-0.711940,-0.304381,-0.646677,-0.396677,-0.554381,-0.461940,-0.441342,-0.495722,-0.315263,-0.495722,-0.250000,-0.500000,-0.250000,-0.500000,0.250000,-0.495722,0.250000,-0.495722,0.315263,-0.461940,0.441342,-0.396677,0.554381,-0.304381,0.646677,-0.191342,0.711940,-0.065263,0.745722,0.000000,0.745722,
0.000000,0.750000,0.500000,0.750000,0.500000,-0.750000,0.500000,-0.750000,$1*%
%AMFreePoly1*
4,1,23,0.000000,0.745722,0.065263,0.745722,0.191342,0.711940,0.304381,0.646677,0.396677,0.554381,0.461940,0.441342,0.495722,0.315263,0.495722,0.250000,0.500000,0.250000,0.500000,-0.250000,0.495722,-0.250000,0.495722,-0.315263,0.461940,-0.441342,0.396677,-0.554381,0.304381,-0.646677,0.191342,-0.711940,0.065263,-0.745722,0.000000,-0.745722,0.000000,-0.750000,-0.500000,-0.750000,
-0.500000,0.750000,0.000000,0.750000,0.000000,0.745722,0.000000,0.745722,$1*%
%AMFreePoly2*
4,1,123,0.971755,0.948997,1.016180,0.945872,1.060427,0.940665,1.104369,0.933401,1.147930,0.924054,1.190983,0.912700,1.233477,0.899340,1.275286,0.883998,1.316332,0.866701,1.356541,0.847523,1.395784,0.826467,1.434011,0.803581,1.471120,0.778943,1.507036,0.752604,1.541656,0.724613,1.574956,0.694996,1.606807,0.663881,1.637186,0.631293,1.665989,0.597333,1.693167,0.562052,
1.718669,0.525527,1.742418,0.487859,1.764389,0.449098,1.784531,0.409373,1.802769,0.330023,3.500102,0.330023,3.500102,-0.329972,1.802769,-0.329972,1.784531,-0.409271,1.764389,-0.448997,1.742418,-0.487757,1.718669,-0.525425,1.693167,-0.561951,1.665989,-0.597231,1.637186,-0.631191,1.606807,-0.663780,1.574956,-0.694895,1.541656,-0.724511,1.507036,-0.752502,1.471120,-0.778842,
1.434011,-0.803480,1.395784,-0.826365,1.356541,-0.847422,1.316332,-0.866599,1.275286,-0.883896,1.233477,-0.899238,1.190983,-0.912598,1.147930,-0.923952,1.104369,-0.933299,1.060427,-0.940564,1.016180,-0.945771,0.971755,-0.948895,0.927229,-0.949962,-0.926975,-0.949962,-0.971501,-0.948895,-1.015926,-0.945771,-1.060173,-0.940564,-1.104115,-0.933299,-1.147676,-0.923952,-1.190729,-0.912598,
-1.233223,-0.899238,-1.275032,-0.883896,-1.316078,-0.866599,-1.356287,-0.847422,-1.395530,-0.826365,-1.433757,-0.803480,-1.470866,-0.778842,-1.506782,-0.752502,-1.541402,-0.724511,-1.574702,-0.694895,-1.606553,-0.663780,-1.636932,-0.631191,-1.665735,-0.597231,-1.692913,-0.561951,-1.718415,-0.525425,-1.742164,-0.487757,-1.764135,-0.448997,-1.784277,-0.409271,-1.802515,-0.368631,-1.818847,-0.327203,
-1.833198,-0.285039,-1.845568,-0.242240,-1.855906,-0.198908,-1.864211,-0.155169,-1.870460,-0.111049,-1.874625,-0.066701,-1.876708,-0.022225,-1.876708,0.022327,-1.874625,0.066802,-1.870460,0.111151,-1.864211,0.155271,-1.855906,0.199009,-1.845568,0.242342,-1.833198,0.285141,-1.818847,0.327305,-1.802515,0.368733,-1.784277,0.409373,-1.764135,0.449098,-1.742164,0.487859,-1.718415,0.525527,
-1.692913,0.562052,-1.665735,0.597333,-1.636932,0.631293,-1.606553,0.663881,-1.574702,0.694996,-1.541402,0.724613,-1.506782,0.752604,-1.470866,0.778943,-1.433757,0.803581,-1.395530,0.826467,-1.356287,0.847523,-1.316078,0.866701,-1.275032,0.883998,-1.233223,0.899340,-1.190729,0.912700,-1.147676,0.924054,-1.104115,0.933401,-1.060173,0.940665,-1.015926,0.945872,-0.971501,0.948997,
-0.926975,0.950064,0.927229,0.950064,0.971755,0.948997,0.971755,0.948997,$1*%
G04 Aperture macros list end*
%ADD10C,0.100000*%
%ADD11C,0.900000*%
%ADD12RotRect,0.900000X1.250000X225.000000*%
%ADD13RotRect,0.800000X0.930000X225.000000*%
%ADD14C,5.600000*%
%ADD15RoundRect,0.150000X0.150000X-0.512500X0.150000X0.512500X-0.150000X0.512500X-0.150000X-0.512500X0*%
%ADD16RoundRect,0.250000X0.450000X-0.262500X0.450000X0.262500X-0.450000X0.262500X-0.450000X-0.262500X0*%
%ADD17RoundRect,0.250000X0.475000X-0.250000X0.475000X0.250000X-0.475000X0.250000X-0.475000X-0.250000X0*%
%ADD18R,2.500000X2.500000*%
%ADD19RoundRect,0.250000X-0.450000X0.262500X-0.450000X-0.262500X0.450000X-0.262500X0.450000X0.262500X0*%
%ADD20RoundRect,0.062500X-0.291682X0.203293X0.203293X-0.291682X0.291682X-0.203293X-0.203293X0.291682X0*%
%ADD21RoundRect,0.062500X-0.291682X-0.203293X-0.203293X-0.291682X0.291682X0.203293X0.203293X0.291682X0*%
%ADD22RotRect,2.700000X2.700000X315.000000*%
%ADD23FreePoly0,180.000000*%
%ADD24FreePoly1,180.000000*%
%ADD25RoundRect,0.250000X-0.262500X-0.450000X0.262500X-0.450000X0.262500X0.450000X-0.262500X0.450000X0*%
%ADD26RoundRect,0.250000X-0.475000X0.250000X-0.475000X-0.250000X0.475000X-0.250000X0.475000X0.250000X0*%
%ADD27R,0.300000X0.300000*%
%ADD28R,0.400000X0.280000*%
%ADD29R,0.400000X0.220000*%
%ADD30R,0.220000X0.400000*%
%ADD31RoundRect,0.250000X-0.250000X-0.475000X0.250000X-0.475000X0.250000X0.475000X-0.250000X0.475000X0*%
%ADD32R,1.000000X1.000000*%
%ADD33C,0.650000*%
%ADD34RoundRect,0.150000X0.027985X-0.449824X0.304136X-0.332605X-0.027985X0.449824X-0.304136X0.332605X0*%
%ADD35RoundRect,0.075000X0.126328X-0.489557X0.264403X-0.430948X-0.126328X0.489557X-0.264403X0.430948X0*%
%ADD36HorizOval,1.000000X-0.156292X0.368202X0.156292X-0.368202X0*%
%ADD37HorizOval,1.000000X-0.214902X0.506278X0.214902X-0.506278X0*%
%ADD38R,4.000000X4.000000*%
%ADD39R,0.672009X1.575006*%
%ADD40FreePoly2,90.000000*%
%ADD41RoundRect,0.150000X-0.150000X0.512500X-0.150000X-0.512500X0.150000X-0.512500X0.150000X0.512500X0*%
%ADD42RoundRect,0.250000X-0.516794X0.065804X-0.311660X-0.417462X0.516794X-0.065804X0.311660X0.417462X0*%
%ADD43RoundRect,0.250000X0.250000X0.475000X-0.250000X0.475000X-0.250000X-0.475000X0.250000X-0.475000X0*%
%ADD44RoundRect,0.250000X-0.250000X-1.500000X0.250000X-1.500000X0.250000X1.500000X-0.250000X1.500000X0*%
%ADD45RoundRect,0.250001X-0.499999X-1.449999X0.499999X-1.449999X0.499999X1.449999X-0.499999X1.449999X0*%
%ADD46R,0.750000X1.000000*%
%ADD47RoundRect,0.243750X0.456250X-0.243750X0.456250X0.243750X-0.456250X0.243750X-0.456250X-0.243750X0*%
%ADD48R,1.800000X1.800000*%
%ADD49R,0.900000X1.500000*%
%ADD50R,0.700000X0.700000*%
%ADD51RoundRect,0.218750X-0.218750X-0.381250X0.218750X-0.381250X0.218750X0.381250X-0.218750X0.381250X0*%
%ADD52R,1.700000X1.700000*%
%ADD53C,1.700000*%
G04 APERTURE END LIST*
D10*
X182135632Y-85394945D02*
X194210798Y-85394945D01*
X194210798Y-95625063D01*
X182135632Y-95625063D01*
X182135632Y-85394945D01*
G36*
X182135632Y-85394945D02*
G01*
X194210798Y-85394945D01*
X194210798Y-95625063D01*
X182135632Y-95625063D01*
X182135632Y-85394945D01*
G37*
X182254645Y-62080080D02*
X194701354Y-62080080D01*
X194701354Y-73059280D01*
X182254645Y-73059280D01*
X182254645Y-62080080D01*
G36*
X182254645Y-62080080D02*
G01*
X194701354Y-62080080D01*
X194701354Y-73059280D01*
X182254645Y-73059280D01*
X182254645Y-62080080D01*
G37*
X182382608Y-75093673D02*
X194457774Y-75093673D01*
X194457774Y-83308829D01*
X182382608Y-83308829D01*
X182382608Y-75093673D01*
G36*
X182382608Y-75093673D02*
G01*
X194457774Y-75093673D01*
X194457774Y-83308829D01*
X182382608Y-83308829D01*
X182382608Y-75093673D01*
G37*
%TO.C,JP1*%
G36*
X110350306Y-116318770D02*
G01*
X110050306Y-116318770D01*
X110050306Y-117818770D01*
X110350306Y-117818770D01*
X110350306Y-116318770D01*
G37*
%TD*%
D11*
%TO.C,SW9*%
X118887506Y-72745686D03*
X121008827Y-70624365D03*
D12*
X119827958Y-74746798D03*
X121949279Y-72625478D03*
X123009939Y-71564817D03*
D13*
X123434203Y-69797051D03*
X121829071Y-68191918D03*
X116455059Y-73565930D03*
X118060191Y-75171062D03*
%TD*%
D14*
%TO.C,H1*%
X151918504Y-54966296D03*
%TD*%
D15*
%TO.C,U4*%
X137808835Y-65704580D03*
X136858835Y-65704580D03*
X135908835Y-65704580D03*
X135908835Y-63429580D03*
X136858835Y-63429580D03*
X137808835Y-63429580D03*
%TD*%
D16*
%TO.C,R16*%
X169589486Y-57810931D03*
X169589486Y-55985931D03*
%TD*%
%TO.C,R27*%
X123416846Y-79966832D03*
X123416846Y-78141832D03*
%TD*%
D17*
%TO.C,C8*%
X124617638Y-67713416D03*
X124617638Y-65813416D03*
%TD*%
D18*
%TO.C,TP7*%
X169634903Y-113057080D03*
%TD*%
D19*
%TO.C,R4*%
X178340568Y-75969549D03*
X178340568Y-77794549D03*
%TD*%
D16*
%TO.C,R20*%
X128991932Y-94257423D03*
X128991932Y-92432423D03*
%TD*%
D20*
%TO.C,U2*%
X166694240Y-70777127D03*
X167047794Y-70423574D03*
X167401347Y-70070021D03*
X167754901Y-69716467D03*
X168108454Y-69362914D03*
X168462007Y-69009360D03*
D21*
X169469635Y-69009360D03*
X169823188Y-69362914D03*
X170176741Y-69716467D03*
X170530295Y-70070021D03*
X170883848Y-70423574D03*
X171237402Y-70777127D03*
D20*
X171237402Y-71784755D03*
X170883848Y-72138308D03*
X170530295Y-72491861D03*
X170176741Y-72845415D03*
X169823188Y-73198968D03*
X169469635Y-73552522D03*
D21*
X168462007Y-73552522D03*
X168108454Y-73198968D03*
X167754901Y-72845415D03*
X167401347Y-72491861D03*
X167047794Y-72138308D03*
X166694240Y-71784755D03*
D22*
X168965821Y-71280941D03*
%TD*%
D23*
%TO.C,JP1*%
X110850306Y-117068770D03*
D24*
X109550306Y-117068770D03*
%TD*%
D25*
%TO.C,R1*%
X177541629Y-95744565D03*
X179366629Y-95744565D03*
%TD*%
D17*
%TO.C,C3*%
X115820236Y-78712925D03*
X115820236Y-76812925D03*
%TD*%
D19*
%TO.C,R6*%
X174295539Y-75969549D03*
X174295539Y-77794549D03*
%TD*%
D26*
%TO.C,C5*%
X110926517Y-112943761D03*
X110926517Y-114843761D03*
%TD*%
D27*
%TO.C,L2*%
X114390917Y-136380717D03*
X120090917Y-116270717D03*
%TD*%
D28*
%TO.C,U3*%
X107259971Y-114393761D03*
D29*
X107259971Y-113893761D03*
X107259971Y-113393761D03*
D30*
X107859971Y-113293761D03*
D29*
X108459971Y-113393761D03*
X108459971Y-113893761D03*
X108459971Y-114393761D03*
D30*
X107859971Y-114493761D03*
%TD*%
D31*
%TO.C,C4*%
X128897591Y-90298669D03*
X130797591Y-90298669D03*
%TD*%
D16*
%TO.C,R3*%
X166852459Y-82487068D03*
X166852459Y-80662068D03*
%TD*%
%TO.C,R10*%
X157474568Y-57810931D03*
X157474568Y-55985931D03*
%TD*%
%TO.C,R23*%
X135787673Y-72882886D03*
X135787673Y-71057886D03*
%TD*%
%TO.C,R14*%
X165551180Y-57810931D03*
X165551180Y-55985931D03*
%TD*%
D19*
%TO.C,R7*%
X172123347Y-75957738D03*
X172123347Y-77782738D03*
%TD*%
D25*
%TO.C,R2*%
X176629129Y-93552262D03*
X178454129Y-93552262D03*
%TD*%
D32*
%TO.C,TP3*%
X107955216Y-111007359D03*
%TD*%
D16*
%TO.C,R11*%
X159493721Y-57810931D03*
X159493721Y-55985931D03*
%TD*%
D33*
%TO.C,J1*%
X125844286Y-61827118D03*
X131164804Y-59568692D03*
D34*
X125978965Y-62937787D03*
X126715369Y-62625203D03*
D35*
X127773949Y-62175862D03*
X128694454Y-61785131D03*
X129154707Y-61589765D03*
X130075212Y-61199034D03*
D34*
X131133792Y-60749693D03*
X131870196Y-60437108D03*
X131870196Y-60437108D03*
X131133792Y-60749693D03*
D35*
X130535464Y-61003668D03*
X129614959Y-61394400D03*
X128234202Y-61980496D03*
X127313697Y-62371227D03*
D34*
X126715369Y-62625203D03*
X125978965Y-62937787D03*
D36*
X123090073Y-58998406D03*
D37*
X124723329Y-62846116D03*
D36*
X131043235Y-55622489D03*
D37*
X132676491Y-59470199D03*
%TD*%
D38*
%TO.C,TP9*%
X150947329Y-70030085D03*
%TD*%
D16*
%TO.C,R13*%
X163532027Y-57810931D03*
X163532027Y-55985931D03*
%TD*%
%TO.C,R17*%
X171608639Y-57810931D03*
X171608639Y-55985931D03*
%TD*%
%TO.C,R15*%
X167570333Y-57810931D03*
X167570333Y-55985931D03*
%TD*%
D39*
%TO.C,U6*%
X125814771Y-73164281D03*
D40*
X127314645Y-75876755D03*
D39*
X128814768Y-73164286D03*
%TD*%
D26*
%TO.C,C1*%
X166527876Y-75379457D03*
X166527876Y-77279457D03*
%TD*%
D41*
%TO.C,U5*%
X131594658Y-69206942D03*
X132544658Y-69206942D03*
X133494658Y-69206942D03*
X133494658Y-71481942D03*
X132544658Y-71481942D03*
X131594658Y-71481942D03*
%TD*%
D42*
%TO.C,R25*%
X131848143Y-63483800D03*
X132561227Y-65163722D03*
%TD*%
D17*
%TO.C,C7*%
X129416745Y-70945853D03*
X129416745Y-69045853D03*
%TD*%
D43*
%TO.C,C9*%
X137414921Y-58915586D03*
X135514921Y-58915586D03*
%TD*%
D44*
%TO.C,J4*%
X143083583Y-62698899D03*
X145083583Y-62698899D03*
D45*
X140733583Y-56948899D03*
X147433583Y-56948899D03*
%TD*%
D16*
%TO.C,R19*%
X175646945Y-57810931D03*
X175646945Y-55985931D03*
%TD*%
D25*
%TO.C,R28*%
X117910937Y-103714933D03*
X119735937Y-103714933D03*
%TD*%
D18*
%TO.C,TP6*%
X169658741Y-116656605D03*
%TD*%
D46*
%TO.C,SW7*%
X132802078Y-88203217D03*
X132802078Y-82203217D03*
X129052078Y-88203217D03*
X129052078Y-82203217D03*
%TD*%
D18*
%TO.C,TP5*%
X169617025Y-109484703D03*
%TD*%
D38*
%TO.C,TP8*%
X144696410Y-70056799D03*
%TD*%
D16*
%TO.C,R18*%
X173627792Y-57810931D03*
X173627792Y-55985931D03*
%TD*%
D19*
%TO.C,R5*%
X176350632Y-75969549D03*
X176350632Y-77794549D03*
%TD*%
D47*
%TO.C,D13*%
X138001534Y-72930476D03*
X138001534Y-71055476D03*
%TD*%
D32*
%TO.C,TP2*%
X105876457Y-111059104D03*
%TD*%
D16*
%TO.C,R12*%
X161512874Y-57810931D03*
X161512874Y-55985931D03*
%TD*%
D48*
%TO.C,BZ1*%
X131383740Y-100280906D03*
X137683708Y-100280908D03*
X137683706Y-106580876D03*
X131383738Y-106580874D03*
%TD*%
D25*
%TO.C,R24*%
X136030108Y-68819022D03*
X137855108Y-68819022D03*
%TD*%
D32*
%TO.C,TP1*%
X110084567Y-111031401D03*
%TD*%
D49*
%TO.C,U1*%
X114483026Y-82438594D03*
X115983026Y-82438594D03*
X117483026Y-82438594D03*
X118983026Y-82438594D03*
X120483026Y-82438594D03*
X121983026Y-82438594D03*
X123483026Y-82438594D03*
X124983026Y-82438594D03*
X126483026Y-82438594D03*
X126483026Y-99938594D03*
X124983026Y-99938594D03*
X123483026Y-99938594D03*
X121983026Y-99938594D03*
X120483026Y-99938594D03*
X118983026Y-99938594D03*
X117483026Y-99938594D03*
X115983026Y-99938594D03*
X114483026Y-99938594D03*
D50*
X121783026Y-91048594D03*
X120683026Y-91048594D03*
X119583026Y-91048594D03*
X121783026Y-92098594D03*
X120683026Y-92098594D03*
X119583026Y-92098594D03*
X121783026Y-93248594D03*
X120683026Y-93248594D03*
X119583026Y-93248594D03*
%TD*%
D51*
%TO.C,L1*%
X136112601Y-61172869D03*
X138237601Y-61172869D03*
%TD*%
D42*
%TO.C,R26*%
X127862765Y-65051434D03*
X128575849Y-66731356D03*
%TD*%
D18*
%TO.C,TP4*%
X169553457Y-105924907D03*
%TD*%
D52*
%TO.C,J2*%
X131739056Y-77798673D03*
D53*
X134279056Y-77798673D03*
%TD*%
M02*
